<svg width="133" height="35" viewBox="0 0 133 35" fill="none" xmlns="http://www.w3.org/2000/svg">
<path d="M2.77067 10.6968L14.9995 2.89989L16.8051 1.75088V0L10.6496 3.96684L3.94705 8.26197C1.70373 9.68456 0.773575 11.3807 0.5 12.7486C1.12922 11.9279 1.89523 11.2713 2.77067 10.6968ZM16.7777 8.72704V7.00352L3.42725 15.6758C1.67637 16.9617 0.5 18.7125 0.5 20.9285C0.5 22.8709 1.4028 24.7038 2.93482 25.8802L16.7777 34.8808V27.3302L5.80736 20.4361C5.09606 19.9436 4.65834 19.1503 4.65834 18.2748C4.65834 17.4267 5.09606 16.606 5.80736 16.1409L16.7777 8.72704ZM3.50933 11.9826C1.43016 13.2957 0.664145 14.7183 0.527357 16.3871C1.32072 15.457 2.25088 14.6363 3.29047 13.9523L16.7777 5.22528V3.4744L3.50933 11.9826Z" fill="#6C6E6F"/>
<path d="M125.196 25.0048H127.439V12.5571L125.196 14.0071V25.0048ZM120.162 9.8761H132.5V12.0373H120.162V9.8761Z" fill="#6C6E6F"/>
<path d="M29.2793 11.8732C30.9755 11.8458 32.5896 12.6666 33.5744 14.0891L33.7386 14.3354L35.6262 13.0496L35.4895 12.8033C34.2857 10.861 31.933 9.65723 29.3067 9.65723C24.7927 9.65723 21.5098 12.9128 21.5098 17.4268C21.5098 21.9408 24.7927 25.2237 29.3067 25.2237C31.7415 25.2784 34.0395 24.1294 35.4347 22.1596L35.5989 21.9134L33.7659 20.5729L33.6018 20.8191C32.6443 22.2417 31.0302 23.0624 29.3067 23.0077C26.1605 23.0077 23.8625 20.6823 23.8625 17.4541C23.8352 14.2259 26.1332 11.8732 29.2793 11.8732ZM42.8486 9.87609L36.6932 24.868L36.6385 25.0048H39.0186L40.6327 20.9832H47.4447L49.0861 25.0322H51.521L45.3108 9.90345H42.8486V9.87609ZM41.5628 18.7946L44.0797 12.6392L46.5966 18.7946H41.5628ZM68.8656 9.87609L62.7102 24.868L62.6555 24.9774H65.0356L66.677 20.9285H73.489L75.1031 24.9774H77.538L71.3278 9.84873H68.8656V9.87609ZM67.5525 18.7946L70.0694 12.6392L72.5862 18.7946H67.5525ZM85.7178 9.87609H79.9454V25.0048H82.2161V19.1776H85.7452C89.1375 19.1776 91.162 17.4541 91.162 14.5542C91.162 11.6543 89.1375 9.87609 85.7178 9.87609ZM85.6631 16.989H82.1887V12.0373H85.6631C87.7697 12.0373 88.8092 12.8854 88.8092 14.4995C88.8366 16.141 87.7697 16.989 85.6631 16.989Z" fill="#6C6E6F"/>
<path d="M112.72 9.98547L110.449 11.4354V24.8953H121.119V22.7341H112.72V9.98547Z" fill="#6C6E6F"/>
<path d="M104.376 18.6852C104.376 21.2842 102.926 22.7888 100.355 22.7888C97.7831 22.7888 96.3605 21.2842 96.3605 18.6852V9.8761L94.1172 11.326V18.7946C94.1172 22.5426 96.5794 24.9774 100.382 24.9774C104.185 24.9774 106.674 22.5426 106.674 18.7946V9.8761L104.404 11.326L104.376 18.6852Z" fill="#6C6E6F"/>
<path d="M56.0084 25.0048H58.2791V12.5571L56.0084 14.0071V25.0048ZM50.9746 9.8761H63.3128V12.0373H50.9746V9.8761Z" fill="#6C6E6F"/>
</svg>
