<svg width="133" height="29" viewBox="0 0 133 29" fill="none" xmlns="http://www.w3.org/2000/svg">
<path d="M126.664 13.3726V21.7245H123.588V13.9245C123.588 12.0241 122.768 10.9631 121.171 10.9631C119.575 10.9631 118.52 12.0777 118.223 13.9459C118.137 14.3925 118.117 15.0819 118.117 16.5358V21.7155H115.041V8.44828H117.766C117.777 8.56438 117.841 9.75393 117.841 9.82716C117.841 9.92183 117.958 9.97541 118.033 9.9129C119.161 9.02163 120.406 8.19287 122.142 8.19287C124.993 8.19287 126.664 10.1129 126.664 13.3726Z" fill="#C5C5C5"/>
<path d="M110.081 8.45724L109.986 9.97544C109.975 10.0701 109.859 10.1237 109.794 10.0612C109.422 9.71109 108.048 8.20361 105.717 8.20361C102.374 8.20361 99.916 11.0793 99.916 14.9855C99.916 18.9435 102.354 21.8317 105.717 21.8317C107.963 21.8317 109.336 20.3778 109.592 20.0598C109.667 19.9741 109.805 20.0277 109.805 20.1349C109.773 20.5385 109.719 21.5459 109.379 22.4068C108.952 23.4892 107.996 24.4983 106.068 24.4983C104.482 24.4983 103.076 23.8928 101.745 22.5979L100.138 24.7948C101.596 26.4398 103.897 27.3633 106.398 27.3633C110.421 27.3633 112.838 24.6144 112.838 20.1241V8.46081H110.081V8.45724ZM106.376 19.0507C104.386 19.0507 102.979 17.3307 102.979 14.9855C102.979 12.6403 104.384 10.9632 106.376 10.9632C108.366 10.9632 109.773 12.6296 109.773 14.9855C109.76 17.3414 108.356 19.0507 106.376 19.0507Z" fill="#C5C5C5"/>
<path d="M93.4854 17.7861C93.4854 20.3009 91.3679 21.9888 88.2579 21.9888C85.8197 21.9888 83.6484 21.044 82.3496 19.6954L83.3618 17.2967C84.3417 18.1773 85.9164 19.44 88.163 19.44C89.7269 19.44 90.6334 18.7506 90.6334 17.8808C90.6334 16.8716 89.3883 16.6073 87.8978 16.3215C85.7803 15.875 82.9695 15.1534 82.9695 12.2777C82.9695 9.86825 84.9275 8.21252 87.8244 8.21252C90.0494 8.21252 91.9645 9.06093 93.2848 10.1647L91.7728 12.2759C90.4955 11.2668 89.1536 10.7685 87.8226 10.7685C86.4915 10.7685 85.8322 11.3204 85.8322 12.117C85.8322 13.2315 87.269 13.5173 88.3224 13.7298C90.972 14.2424 93.4854 15.0373 93.4854 17.7861Z" fill="#C5C5C5"/>
<path d="M48.497 8.19287C44.7385 8.19287 42.0352 11.1007 42.0352 15.0908C42.0352 19.081 44.7385 21.9888 48.497 21.9888C52.2555 21.9888 54.9696 19.081 54.9696 15.0908C54.9696 11.1007 52.2663 8.19287 48.497 8.19287ZM48.497 19.2096C46.5067 19.2096 45.1004 17.5217 45.1004 15.0819C45.1004 12.651 46.4744 10.9542 48.497 10.9542C50.5088 10.9542 51.8937 12.6421 51.8937 15.0819C51.8937 17.5217 50.4873 19.2096 48.497 19.2096Z" fill="#C5C5C5"/>
<path d="M56.0566 15.0908C56.0566 11.1525 58.76 8.19287 62.3698 8.19287C65.2326 8.19287 67.3304 9.62534 68.3103 12.3206L65.5855 13.3494C64.8403 11.6829 63.8603 10.9721 62.3806 10.9721C60.5282 10.9721 59.1452 12.7135 59.1452 15.0998C59.1452 17.4771 60.5192 19.2275 62.3806 19.2275C63.8711 19.2275 64.8403 18.5166 65.5855 16.8502L68.3103 17.879C67.3304 20.5742 65.2344 22.0067 62.3698 22.0067C58.76 21.9906 56.0566 19.0292 56.0566 15.0908Z" fill="#C5C5C5"/>
<path d="M39.61 2.29158C39.5563 2.29158 39.4936 2.3023 39.4399 2.33445L37.4388 3.3954C37.3958 3.41683 37.3743 3.4597 37.3743 3.50078V9.81648C37.3743 9.92186 37.2471 9.96473 37.1719 9.90221C36.8745 9.6468 36.1812 9.00023 35.2245 8.5537C34.7247 8.31972 33.9902 8.1929 33.3184 8.1929C29.954 8.1929 27.5176 11.1007 27.5176 15.0909C27.5176 19.0811 29.9558 21.9888 33.3184 21.9888C35.0848 21.9888 36.4158 21.0654 37.2256 20.2385C37.2793 20.1849 37.3116 20.1527 37.3635 20.1009C37.4388 20.0259 37.566 20.0688 37.566 20.1759L37.6717 21.7263H40.4503V2.37553C40.4503 2.33266 40.418 2.28979 40.3643 2.28979C40.3643 2.29158 39.61 2.29158 39.61 2.29158ZM33.9776 19.2097C31.9658 19.2097 30.581 17.5218 30.581 15.0819C30.581 12.6403 31.9963 10.9632 33.9776 10.9632C35.968 10.9632 37.3743 12.651 37.3743 15.0909C37.3743 17.5218 36.0002 19.2097 33.9776 19.2097Z" fill="#C5C5C5"/>
<path d="M97.1034 8.50007L95.1758 9.51816C95.1328 9.53959 95.1113 9.58246 95.1113 9.62354V21.7227H98.1873V8.53044C98.1873 8.48757 98.155 8.4447 98.1013 8.4447H97.2718C97.2091 8.4572 97.1572 8.46792 97.1034 8.50007Z" fill="#C5C5C5"/>
<path d="M96.6473 6.30318C97.6685 6.30318 98.4997 5.47621 98.4997 4.45634C98.4997 3.43647 97.6702 2.6095 96.6473 2.6095C95.6262 2.6095 94.7949 3.43647 94.7949 4.45634C94.7949 5.47621 95.6244 6.30318 96.6473 6.30318Z" fill="#C5C5C5"/>
<path d="M81.2422 8.44653V15.6535C81.2422 21.119 78.177 21.9799 75.4414 21.9799C72.7058 21.9799 69.6406 21.1101 69.6406 15.6535V8.44653H72.7058V16.418C72.7058 17.1931 72.8975 19.2097 75.4414 19.2097C77.9853 19.2097 78.177 17.2039 78.177 16.418V8.44653H81.2422Z" fill="#C5C5C5"/>
<path d="M128.422 20.3652V20.5563H127.984V21.7138H127.771V20.5563H127.336V20.3652H128.422ZM129.944 21.7138H129.731V20.6528L129.316 21.4494H129.199L128.783 20.6635V21.7138H128.57V20.3652H128.846L129.251 21.1404L129.656 20.3652H129.932L129.944 21.7138Z" fill="#C5C5C5"/>
<path opacity="0.48" d="M17.0507 16.5341V21.787C17.0507 22.0621 16.8268 22.2853 16.5509 22.2853H2.70099C2.42511 22.2853 2.20117 22.0621 2.20117 21.787V7.98929C2.20117 7.71423 2.42511 7.49097 2.70099 7.49097H7.95898V16.0339C7.95898 16.309 8.18291 16.5323 8.4588 16.5323H17.0507V16.5341Z" fill="#C5C5C5"/>
<path opacity="0.48" d="M22.8203 9.12708C22.8203 13.5424 20.2334 16.5252 17.0499 16.5359V10.9739C17.0499 10.815 16.9854 10.656 16.869 10.5488L13.9739 7.66246C13.8575 7.54636 13.707 7.48207 13.5476 7.48207H7.9707V2.23982C7.9707 1.96476 8.19464 1.74149 8.47053 1.74149H16.2742C19.9772 1.72899 22.8203 4.70109 22.8203 9.12708Z" fill="#C5C5C5"/>
<path d="M16.869 10.5381C16.9854 10.6542 17.0499 10.8043 17.0499 10.9632V16.5252H8.47053C8.19464 16.5252 7.9707 16.3019 7.9707 16.0269V7.48389H13.5494C13.7088 7.48389 13.8682 7.54819 13.9757 7.66429L16.869 10.5381Z" fill="#C5C5C5"/>
</svg>
