<svg viewBox="0 0 52 41" fill="none" xmlns="http://www.w3.org/2000/svg">
<path d="M45 36C46.1046 36 47.0094 35.1027 46.9093 34.0027C46.7207 31.9299 46.2392 29.8943 45.4776 27.9636C44.4725 25.4158 42.9993 23.1008 41.1421 21.1508C39.285 19.2007 37.0802 17.6539 34.6537 16.5985C32.8442 15.8116 30.9379 15.3094 28.9963 15.1049C27.8979 14.9892 27 15.8954 27 17V34C27 35.1046 27.8954 36 29 36H45Z" fill="#07BDEB"/>
<mask id="path-2-inside-1_1278_5738" fill="white">
<path d="M2 36C0.895432 36 -0.00770569 35.1033 0.0739403 34.0018C0.276283 31.2717 0.89238 28.5877 1.90301 26.0502C3.15938 22.8958 5.00087 20.0295 7.32233 17.6152C9.6438 15.2009 12.3998 13.2858 15.4329 11.9791C17.8491 10.9383 20.4035 10.2998 23.0023 10.0831C24.103 9.99137 25 10.8954 25 12L25 34C25 35.1046 24.1046 36 23 36H2Z"/>
</mask>
<path d="M2 36C0.895432 36 -0.00770569 35.1033 0.0739403 34.0018C0.276283 31.2717 0.89238 28.5877 1.90301 26.0502C3.15938 22.8958 5.00087 20.0295 7.32233 17.6152C9.6438 15.2009 12.3998 13.2858 15.4329 11.9791C17.8491 10.9383 20.4035 10.2998 23.0023 10.0831C24.103 9.99137 25 10.8954 25 12L25 34C25 35.1046 24.1046 36 23 36H2Z" stroke="white" stroke-width="2" mask="url(#path-2-inside-1_1278_5738)"/>
<circle cx="26" cy="37" r="4" fill="#0E0E0E"/>
<circle cx="26" cy="37" r="2" fill="#07BDEB"/>
</svg>
