<svg viewBox="0 0 31 41" fill="none" xmlns="http://www.w3.org/2000/svg">
<path d="M14 6.00098V8.43998" stroke="#07BDEB" stroke-linecap="round"/>
<path d="M23 15H21" stroke="#07BDEB" stroke-linecap="round"/>
<path d="M5 15H7" stroke="#07BDEB" stroke-linecap="round"/>
<path d="M20.3603 8.63989L15.4043 13.5959" stroke="#07BDEB" stroke-linecap="round"/>
<path d="M13.9805 13C15.0855 13 15.9805 13.895 15.9805 15C15.9805 16.105 15.0855 17 13.9805 17C12.8755 17 11.9805 16.105 11.9805 15C11.9805 13.895 12.8755 13 13.9805 13Z" fill="#07BDEB"/>
<path d="M7.64062 8.63989L9.76063 10.7599" stroke="#07BDEB" stroke-linecap="round"/>
<path d="M18.2402 19.24L20.3603 21.36L20.3643 21.364C23.8793 17.849 23.8793 12.151 20.3643 8.63601C16.8493 5.12101 11.1513 5.12101 7.63625 8.63601C4.12125 12.151 4.12125 17.849 7.63625 21.364L7.64025 21.36L9.64025 19.36" stroke="#07BDEB" stroke-linecap="round"/>
<path d="M2.41078 20.2253C1.39061 18.1883 0.870248 15.8484 1.02772 13.3726C1.45223 6.59303 6.99816 1.17493 13.6738 1.0043C21.0102 0.816273 27.0183 6.8124 27.0183 14.2327V15.6255L29.935 23.3383C30.1781 23.986 29.7091 24.6789 29.0278 24.6789H27.0183L26.4671 30.8596C26.3918 31.6987 25.7003 32.3394 24.8752 32.3394H20.9006C20.3118 32.3394 19.8325 32.8269 19.8325 33.4259V40H3.40015L4.9133 30.7551C5.23852 28.7634 5.016 26.7229 4.26627 24.853L2.41078 20.2218V20.2253Z" stroke="white" stroke-linecap="round"/>
</svg>
