<svg width="100" height="30" viewBox="0 0 100 30" fill="none" xmlns="http://www.w3.org/2000/svg">
<g clip-path="url(#clip0_1297_10207)">
<mask id="mask0_1297_10207" style="mask-type:luminance" maskUnits="userSpaceOnUse" x="0" y="0" width="100" height="30">
<path d="M100 0.64502H0V29.3547H100V0.64502Z" fill="white"/>
</mask>
<g mask="url(#mask0_1297_10207)">
<path d="M81.5576 29.3256C76.1305 29.3256 71.7148 24.6913 71.7148 19.0043C71.7148 13.3174 76.1305 8.68311 81.5576 8.68311C86.9848 8.68311 91.4005 13.3174 91.4005 19.0043C91.4005 24.6913 86.9711 29.3256 81.5576 29.3256ZM82.1592 13.3994C79.2884 13.3994 76.9644 15.9148 76.9644 18.9906C76.9644 22.0803 79.3019 24.5819 82.1592 24.5819C85.0163 24.5819 87.3539 22.0666 87.3539 18.9906C87.3539 15.9148 85.0163 13.3994 82.1592 13.3994Z" fill="#737677"/>
<path d="M36.2808 8.95654H31.0312V28.9976H36.2808V8.95654Z" fill="#737677"/>
<path d="M11.3739 28.9978V8.95671C11.3739 7.26155 9.99316 5.8945 8.31169 5.8945C6.61655 5.8945 5.24948 7.26155 5.24948 8.95671H0C0 4.37707 3.73206 0.658689 8.31169 0.658689C12.8913 0.658689 16.6234 4.39075 16.6234 8.97037V23.762H19.6719V8.95671C19.6719 4.37707 23.404 0.64502 27.9836 0.64502C32.5632 0.64502 36.2953 4.37707 36.2953 8.95671H31.0458C31.0458 7.26155 29.665 5.8945 27.9836 5.8945C26.2884 5.8945 24.9215 7.27523 24.9215 8.95671V28.9978H11.3739Z" fill="#737677"/>
<path d="M5.24948 8.95654H0V28.9976H5.24948V8.95654Z" fill="#737677"/>
<path d="M56.5815 8.95654H51.332V20.2621H56.5815V8.95654Z" fill="#737677"/>
<path d="M47.4913 29.3258C42.4879 29.3258 38.4141 25.2519 38.4141 20.2485H43.6636C43.6636 22.3539 45.386 24.0763 47.4913 24.0763C49.5966 24.0763 51.3191 22.3539 51.3191 20.2485H56.5686C56.5686 25.2519 52.4947 29.3258 47.4913 29.3258Z" fill="#737677"/>
<path d="M43.6772 8.95654H38.4277V20.2621H43.6772V8.95654Z" fill="#737677"/>
<path d="M99.9995 0.973145H94.75V8.95675H99.9995V0.973145Z" fill="#737677"/>
<path d="M92.605 8.95654H87.3555V28.9976H92.605V8.95654Z" fill="#737677"/>
<path d="M99.9995 8.95654H94.75V28.9976H99.9995V8.95654Z" fill="#737677"/>
<path d="M63.9779 14.1924H58.7285V28.9839H63.9779V14.1924Z" fill="#737677"/>
<path d="M71.6471 8.95654H58.7285V14.206H71.6471V8.95654Z" fill="#737677"/>
</g>
</g>
<defs>
<clipPath id="clip0_1297_10207">
<rect width="100" height="28.7097" fill="white" transform="translate(0 0.64502)"/>
</clipPath>
</defs>
</svg>
