<svg viewBox="0 0 52 39" fill="none" xmlns="http://www.w3.org/2000/svg">
<path d="M0.5 28.596V10.9198C0.5 10.6017 0.816731 10.3809 1.11518 10.4908L8.88661 13.354C9.06633 13.4202 9.18571 13.5914 9.18571 13.7829V25.9374C9.18571 26.1328 9.06147 26.3067 8.87654 26.3699L1.10511 29.0286C0.808452 29.1301 0.5 28.9096 0.5 28.596Z" stroke="white" stroke-width="0.457143"/>
<path d="M50.7852 28.5963V10.92C50.7852 10.6019 50.4684 10.3811 50.17 10.491L42.3985 13.3542C42.2188 13.4204 42.0994 13.5916 42.0994 13.7832V25.9376C42.0994 26.1331 42.2237 26.3069 42.4086 26.3702L50.18 29.0288C50.4767 29.1303 50.7852 28.9098 50.7852 28.5963Z" stroke="white" stroke-width="0.457143"/>
<path d="M11.0137 25.1778V14.1089C11.0137 13.7939 11.3247 13.5733 11.622 13.6775L16.6505 15.4391C16.8338 15.5033 16.9565 15.6763 16.9565 15.8705V23.542C16.9565 23.74 16.8291 23.9155 16.6408 23.9767L11.6122 25.6125C11.3168 25.7086 11.0137 25.4884 11.0137 25.1778Z" stroke="white" stroke-width="0.457143"/>
<path d="M40.2715 25.1778V14.1089C40.2715 13.7939 39.9604 13.5733 39.6632 13.6775L34.6346 15.4391C34.4513 15.5033 34.3286 15.6763 34.3286 15.8705V23.542C34.3286 23.74 34.4561 23.9155 34.6444 23.9767L39.6729 25.6125C39.9683 25.7086 40.2715 25.4884 40.2715 25.1778Z" stroke="white" stroke-width="0.457143"/>
<path d="M18.7852 22.9095V16.3754C18.7852 16.066 19.0862 15.8459 19.3811 15.9399L22.5811 16.9594C22.7707 17.0198 22.8994 17.196 22.8994 17.395V21.9627C22.8994 22.1653 22.7662 22.3436 22.572 22.4011L19.372 23.3478C19.079 23.4345 18.7852 23.2149 18.7852 22.9095Z" fill="#07BDEB"/>
<path d="M32.5 22.9095V16.3754C32.5 16.066 32.1989 15.8459 31.9041 15.9399L28.7041 16.9594C28.5145 17.0198 28.3857 17.196 28.3857 17.395V21.9627C28.3857 22.1653 28.519 22.3436 28.7132 22.4011L31.9132 23.3478C32.2061 23.4345 32.5 23.2149 32.5 22.9095Z" fill="#07BDEB"/>
</svg>
