<svg viewBox="0 0 41 42" fill="none" xmlns="http://www.w3.org/2000/svg">
<g clip-path="url(#clip0_1317_6021)">
<path d="M22.1602 11.2949C22.184 14.2253 24.0415 16.2718 26.6788 16.2718C28.8871 16.2718 31.2649 14.6346 31.2649 11.0403C31.2649 8.10192 29.467 6.12744 26.7913 6.12744C24.1156 6.12744 22.1602 8.24991 22.1602 11.2949ZM26.7913 7.19401C28.8977 7.19401 30.2058 8.66853 30.2058 11.0403C30.2058 13.9174 28.4343 15.2052 26.6788 15.2052C24.6293 15.2052 23.2392 13.6307 23.2193 11.2909C23.2193 8.84052 24.6545 7.19534 26.7913 7.19534V7.19401Z" fill="white"/>
<path d="M16.1319 10.1443C18.3403 10.1443 20.7181 8.50708 20.7181 4.91409C20.7181 1.9757 18.9201 0.0012207 16.2444 0.0012207C13.5688 0.0012207 11.6133 2.12369 11.6133 5.1634C11.6133 8.20311 13.4708 10.1443 16.1319 10.1443ZM16.2444 1.06645C18.3508 1.06645 19.6589 2.54098 19.6589 4.91275C19.6589 7.78981 17.8875 9.07636 16.1319 9.07636C14.0626 9.07636 12.6724 7.50317 12.6724 5.16206C12.6724 2.82095 14.1076 1.06645 16.2444 1.06645Z" fill="white"/>
<path d="M39.7409 18.2037H33.1397L22.8262 18.2237H22.7944C22.3443 18.2517 21.9127 18.4357 21.5777 18.741L21.575 18.7436L21.5459 18.717C21.1779 18.3823 20.7039 18.197 20.2087 18.197H7.14932V18.2024H1.25907C0.564002 18.2024 0 18.7716 0 19.4702V34.4808C0 35.1807 0.565326 35.75 1.25907 35.75H4.57424C5.17001 35.75 5.67576 35.3407 5.80418 34.7541L6.01734 33.7835C6.20667 33.8435 6.40526 33.8755 6.60782 33.8755C6.68991 33.8755 6.77331 33.8702 6.84746 33.8609L10.2685 33.4956L19.1761 40.5749L20.12 41.4615C20.4894 41.8094 20.9713 42.0001 21.4771 42.0001C21.5949 42.0001 21.7127 41.9894 21.8292 41.9681C22.2661 41.9268 22.6819 41.7401 23.0009 41.4388L29.6419 35.2021L32.7055 32.385L33.566 32.641C33.7487 32.6956 33.9394 32.7236 34.1314 32.7236C34.3366 32.7236 34.5378 32.6903 34.7298 32.6303L35.1945 34.7554C35.3229 35.3421 35.8287 35.7514 36.4244 35.7514H39.7396C40.4347 35.7514 40.9987 35.1821 40.9987 34.4821V19.4716C40.9987 18.7716 40.4333 18.2037 39.7396 18.2037H39.7409ZM4.57424 34.6848H1.25907C1.14919 34.6848 1.05916 34.5941 1.05916 34.4821V19.4716C1.05916 19.3596 1.14919 19.2703 1.25907 19.2703H7.86028C7.92118 19.2703 7.97811 19.2982 8.0165 19.3462C8.0549 19.3942 8.06814 19.4556 8.0549 19.5156L4.76886 34.5261C4.749 34.6195 4.66824 34.6848 4.57291 34.6848H4.57424ZM11.3197 32.9716L12.6291 31.3851C12.747 31.2424 12.9575 31.2238 13.0991 31.3411L14.3039 32.3503C14.4443 32.469 14.4641 32.681 14.3476 32.8223L13.074 34.3635L11.3211 32.9703L11.3197 32.9716ZM13.9041 35.0261L15.0864 33.5956L15.097 33.6036C15.2148 33.4622 15.424 33.4422 15.5656 33.5596L16.7704 34.5701C16.838 34.6275 16.8803 34.7074 16.8883 34.7954C16.8962 34.8848 16.8697 34.9714 16.8128 35.0407L16.6857 35.1941C16.6447 35.2327 16.6063 35.2741 16.5692 35.3181L16.5771 35.3247L15.6663 36.426L13.9028 35.0248L13.9041 35.0261ZM18.9377 37.6365L18.244 38.4764L16.499 37.0886L17.4443 35.9447C17.5648 35.8567 17.7343 35.858 17.8534 35.958L19.0569 36.9672C19.1257 37.0246 19.1668 37.1046 19.1761 37.1939C19.184 37.2832 19.1575 37.3699 19.1006 37.4392L19.0145 37.5432C18.9867 37.5712 18.9603 37.6005 18.9351 37.6325L18.9391 37.6352L18.9377 37.6365ZM20.6721 40.4336L20.6311 40.4669L20.6231 40.4762L19.883 39.7816L19.0768 39.1377L19.7904 38.2738C19.842 38.2298 19.9069 38.2018 19.9757 38.1965C20.0631 38.1885 20.1505 38.2151 20.2193 38.2724L21.4254 39.283C21.4493 39.303 21.4705 39.3283 21.489 39.359C21.44 39.5377 21.2679 39.947 20.6734 40.4349L20.6721 40.4336ZM30.3237 33.1316L23.136 26.3736C22.9215 26.1723 22.5865 26.1843 22.3879 26.3989C22.188 26.6136 22.1999 26.9522 22.4131 27.1522L29.5386 33.8529L28.923 34.4181L27.7738 35.4967L21.587 29.7573C21.3725 29.5573 21.0362 29.5719 20.8389 29.7879C20.6403 30.0039 20.6549 30.3425 20.8694 30.5412L26.9966 36.2246L25.2675 37.8485L19.9267 32.929C19.7109 32.7303 19.376 32.745 19.1787 32.9623C18.9814 33.1796 18.996 33.5169 19.2118 33.7155L24.4904 38.5777L22.2767 40.6562C22.1245 40.8002 21.9325 40.8855 21.7233 40.9042C22.5243 40.0829 22.5601 39.3817 22.5614 39.2937V39.2097L22.5376 39.1297C22.5256 39.0924 22.5111 39.055 22.4952 39.0177L22.4833 38.987C22.3932 38.7751 22.2635 38.5977 22.0967 38.4591L20.8919 37.4499C20.6986 37.2885 20.4722 37.1845 20.2299 37.1445C20.2299 37.1285 20.2273 37.1126 20.2259 37.0966C20.1915 36.7233 20.0154 36.386 19.7295 36.1473L18.526 35.1381C18.3512 34.9928 18.1513 34.8968 17.9448 34.8488C17.9448 34.7981 17.9448 34.7474 17.9395 34.6968C17.9051 34.3235 17.729 33.9875 17.443 33.7489L16.2382 32.7396C16.0158 32.553 15.747 32.4423 15.4637 32.4197C15.4187 32.0837 15.2532 31.7637 14.9765 31.5304L13.7717 30.5198C13.1812 30.0266 12.3021 30.1079 11.8109 30.7012L10.4009 32.4063L6.72168 32.7996C6.68064 32.805 6.64224 32.8076 6.60385 32.8076C6.47807 32.8076 6.35627 32.781 6.24241 32.733L9.08493 19.7422C9.12067 19.5822 9.122 19.4196 9.09684 19.2623H20.2034C20.4351 19.2623 20.6576 19.3489 20.8283 19.5049L20.8389 19.5142L17.9024 23.0939L16.9743 24.2591C16.8711 24.3778 16.3971 24.9604 16.4514 25.6843C16.4778 26.0243 16.6142 26.3309 16.8552 26.5989C17.2047 26.9855 17.7038 27.2015 18.338 27.2402C19.3468 27.3015 20.3504 26.8589 21.0216 26.0523L22.7865 23.9311L22.8063 23.9058C22.8791 23.8205 22.9824 23.7685 23.0963 23.7605C23.2167 23.7525 23.3332 23.7938 23.4233 23.8778L31.7853 31.7797L30.3197 33.1276L30.3237 33.1316ZM33.8679 31.6197L32.8405 31.3144L24.1528 23.1046C23.8522 22.8206 23.4431 22.6726 23.0314 22.7006C22.6236 22.7273 22.2423 22.9246 21.9868 23.2405C21.9815 23.2472 21.9762 23.2539 21.9722 23.2592L20.214 25.371C19.7573 25.919 19.0821 26.2216 18.4082 26.1803C18.0586 26.1589 17.8005 26.0589 17.6429 25.8856C17.5622 25.795 17.5198 25.707 17.5119 25.607C17.492 25.3497 17.7012 25.051 17.7727 24.9697L18.7286 23.7725L21.959 19.8355L22.29 19.5329C22.4436 19.3929 22.6395 19.3076 22.8447 19.2916L31.8965 19.2743C31.8727 19.4289 31.874 19.5889 31.9098 19.7462L34.4994 31.5811C34.3022 31.6651 34.0784 31.6837 33.8679 31.6211V31.6197ZM39.9408 34.4835C39.9408 34.5955 39.8508 34.6861 39.7409 34.6861H36.4258C36.3304 34.6861 36.2497 34.6208 36.2298 34.5275L32.9438 19.5156C32.9305 19.4556 32.9438 19.3942 32.9835 19.3462C33.0219 19.2982 33.0801 19.2703 33.1397 19.2703H39.7409C39.8508 19.2703 39.9408 19.3609 39.9408 19.4716V34.4821V34.4835Z" fill="white"/>
<path d="M25.3053 0.273248L16.8633 15.4778L17.7878 15.9983L26.2297 0.793745L25.3053 0.273248Z" fill="white"/>
<path d="M11.3203 32.9716L12.6297 31.3851C12.7475 31.2424 12.958 31.2237 13.0997 31.3411L14.3045 32.3503C14.4448 32.469 14.4647 32.6809 14.3482 32.8223L13.2396 34.1637C13.1478 34.2749 12.9847 34.292 12.872 34.2025L11.3231 32.9714C11.3223 32.9707 11.3211 32.9708 11.3203 32.9716Z" fill="#07BDEB"/>
<path d="M13.9023 35.0246C13.9031 35.0253 13.9042 35.0252 13.9049 35.0245L15.0817 33.6005C15.0841 33.5976 15.0883 33.5971 15.0913 33.5994C15.0942 33.6016 15.0984 33.6011 15.1009 33.5983C15.2194 33.4616 15.4253 33.4435 15.5652 33.5594L16.77 34.57C16.8375 34.6273 16.8799 34.7073 16.8878 34.7953C16.8958 34.8846 16.8693 34.9712 16.8124 35.0406L16.6853 35.1939C16.6455 35.2314 16.6082 35.2714 16.5721 35.3139C16.5703 35.3161 16.5706 35.3194 16.5728 35.3212C16.5749 35.3231 16.5752 35.3263 16.5734 35.3285L15.8309 36.2263C15.739 36.3373 15.5761 36.3544 15.4634 36.2649L13.9023 35.0246Z" fill="#07BDEB"/>
<path d="M18.9375 37.6364L18.4089 38.2764C18.317 38.3876 18.1539 38.4048 18.0412 38.3152L16.712 37.258C16.5952 37.1651 16.5774 36.9934 16.6726 36.8782L17.4229 35.9702C17.437 35.9532 17.4529 35.9375 17.4719 35.9263C17.5897 35.8573 17.743 35.8654 17.8532 35.9579L19.0567 36.9671C19.1255 37.0244 19.1666 37.1044 19.1759 37.1938C19.1838 37.2831 19.1573 37.3698 19.1004 37.4391L19.0143 37.5431C18.987 37.5705 18.961 37.5993 18.9363 37.6306C18.9355 37.6316 18.9358 37.633 18.9368 37.6336L18.9373 37.634C18.9381 37.6346 18.9382 37.6357 18.9375 37.6364Z" fill="#07BDEB"/>
<path d="M20.6734 40.4342C20.673 40.4339 20.6724 40.4338 20.672 40.4342L20.6324 40.4663C20.6319 40.4667 20.6315 40.4672 20.631 40.4677C20.627 40.4723 20.62 40.4727 20.6155 40.4685L19.8836 39.7816L19.2897 39.3073C19.1732 39.2143 19.1556 39.043 19.2507 38.9279L19.7761 38.2917C19.786 38.2798 19.7967 38.2685 19.8092 38.2593C19.8575 38.2237 19.9153 38.2012 19.9763 38.1965C20.0637 38.1885 20.1511 38.2151 20.2199 38.2725L21.426 39.283C21.4746 39.3238 21.4811 39.3941 21.4585 39.4536C21.3801 39.6611 21.1802 40.0192 20.6748 40.4343C20.6744 40.4346 20.6738 40.4346 20.6734 40.4342Z" fill="#07BDEB"/>
<path d="M33.8671 31.6202C33.8671 31.6198 33.8669 31.6195 33.8665 31.6194L32.9001 31.3322C32.8604 31.3204 32.824 31.2994 32.7939 31.2709L24.152 23.1044C23.8515 22.8204 23.4424 22.6724 23.0306 22.7004C22.6228 22.7271 22.2416 22.9244 21.986 23.2404C21.9807 23.247 21.9754 23.2537 21.9715 23.259L20.2133 25.3708C19.7565 25.9188 19.0813 26.2214 18.4074 26.1801C18.0579 26.1587 17.7997 26.0588 17.6422 25.8854C17.5614 25.7948 17.519 25.7068 17.5111 25.6068C17.4912 25.3495 17.7004 25.0508 17.7719 24.9695L18.7278 23.7723L21.9461 19.8501C21.9542 19.8403 21.9629 19.8311 21.9723 19.8225L22.2892 19.5327C22.4428 19.3927 22.6387 19.3074 22.8439 19.2914L31.5861 19.2747C31.7488 19.2743 31.8703 19.4217 31.8841 19.5849C31.8887 19.6387 31.8969 19.6925 31.909 19.746L34.4513 31.3643C34.4787 31.4898 34.4136 31.6214 34.2879 31.6436C34.1496 31.6681 34.0059 31.6621 33.8678 31.6211C33.8674 31.621 33.8671 31.6206 33.8671 31.6202Z" fill="#07BDEB"/>
<path d="M39.9415 34.4835C39.9415 34.5955 39.8515 34.6861 39.7416 34.6861H36.4264C36.3311 34.6861 36.2503 34.6208 36.2305 34.5275L32.9444 19.5156C32.9312 19.4556 32.9444 19.3943 32.9841 19.3463C33.0225 19.2983 33.0808 19.2703 33.1404 19.2703H39.7416C39.8515 19.2703 39.9415 19.3609 39.9415 19.4716V34.4822V34.4835Z" fill="#07BDEB"/>
</g>
<defs>
<clipPath id="clip0_1317_6021">
<rect width="41" height="42" fill="white"/>
</clipPath>
</defs>
</svg>
