<svg width="133" height="35" viewBox="0 0 133 35" fill="none" xmlns="http://www.w3.org/2000/svg">
<g clip-path="url(#clip0_1317_6132)">
<path fill-rule="evenodd" clip-rule="evenodd" d="M0.5 24.8295L5.23618 21.1926C7.75206 24.4838 10.4247 26.0015 13.4005 26.0015C16.3603 26.0015 18.9574 24.5017 21.3599 21.236L26.1632 24.7851C22.6972 29.4939 18.3889 31.9814 13.4005 31.9814C8.42825 31.9814 4.07834 29.5109 0.5 24.8295Z" fill="#737677"/>
<path fill-rule="evenodd" clip-rule="evenodd" d="M13.134 9.02301L4.7052 16.3043L0.808594 11.7741L13.1519 1.11176L25.398 11.7826L21.4834 16.2968L13.134 9.02301Z" fill="#737677"/>
<path d="M44.0731 27.4898C41.1956 27.4898 38.7968 26.5549 36.8513 24.685C34.9058 22.7886 33.9473 20.3577 33.9473 17.3914C33.9473 14.4004 34.9323 11.9422 36.8768 10.0184C38.8506 8.06822 41.2494 7.10776 44.1015 7.10776C47.6194 7.10776 50.7359 8.62825 52.5501 11.0081L49.3769 14.3466C47.8583 12.7156 46.2056 11.8883 44.4207 11.8883C42.9011 11.8883 41.6489 12.3945 40.6081 13.4371C39.5957 14.4807 39.0905 15.7906 39.0905 17.3659C39.0905 18.8882 39.5957 20.1707 40.6081 21.2134C41.6489 22.2276 42.9011 22.7338 44.3933 22.7338C46.3388 22.7338 48.0453 21.8792 49.4572 20.1962L52.7626 23.376C51.856 24.5783 50.6301 25.567 49.1106 26.3415C47.591 27.1159 45.9128 27.4898 44.0731 27.4898ZM58.3534 6.81217V27.1961H53.6645V6.81217H58.3534ZM62.7987 11.1385C61.2273 11.1385 60.0817 9.99008 60.0817 8.41576C60.0817 6.89244 61.2811 5.7431 62.7987 5.7431C64.3192 5.7431 65.4922 6.89244 65.4922 8.41576C65.4922 9.99008 64.3183 11.1413 62.7987 11.1413V11.1385ZM65.172 12.4484V27.1961H60.4538V12.4484H65.172ZM74.2015 27.5172C71.882 27.5172 70.0178 26.7957 68.553 25.3527C67.1128 23.9106 66.3931 22.0661 66.3931 19.7958C66.3931 17.5245 67.1128 15.6829 68.5785 14.2389C70.0451 12.7959 71.9358 12.0763 74.2808 12.0763C77.3463 12.0763 80.0388 13.5713 81.2901 16.3761L77.5333 18.3546C76.7872 17.0986 75.7474 16.4564 74.3884 16.4564C73.4015 16.4564 72.6026 16.7775 71.9613 17.4197C71.6573 17.735 71.4185 18.1072 71.2586 18.5149C71.0986 18.9226 71.0207 19.3579 71.0292 19.7958C71.0292 21.746 72.4411 23.189 74.3346 23.189C75.6936 23.189 76.9459 22.4411 77.4795 21.2927L81.2382 23.5356C79.9576 25.9939 77.3189 27.5172 74.2015 27.5172ZM97.5971 27.1961H91.9987L87.6526 21.3446L86.9603 21.9868V27.1961H82.2733V6.81217H86.9632V16.7237L91.3858 12.4484H97.1164L90.8012 18.3801L97.5971 27.1961ZM97.9116 19.5285V7.45247H102.922V19.4492C102.922 21.6657 104.201 22.7348 106.041 22.7348C107.852 22.7348 109.131 21.6119 109.131 19.4483V7.45247H114.169V19.5285C114.169 25.3527 110.144 27.5437 106.041 27.5437C101.963 27.5437 97.9116 25.3527 97.9116 19.5285ZM125.304 12.0763C127.41 12.0763 129.117 12.8233 130.475 14.3192C131.834 15.7887 132.499 17.6322 132.499 19.7958C132.499 21.9613 131.807 23.8029 130.449 25.3262C129.088 26.8212 127.384 27.5711 125.331 27.5711C123.704 27.5711 122.292 27.0365 121.147 25.9684V33.2611H116.429V12.4484H121.067V13.8121C122.213 12.6618 123.625 12.0763 125.304 12.0763ZM127.702 19.8487C127.702 17.9259 126.318 16.4564 124.398 16.4564C122.479 16.4564 121.067 17.9259 121.067 19.8496C121.067 20.7846 121.386 21.5864 122 22.2541C122.638 22.9218 123.438 23.2429 124.398 23.2429C125.357 23.2429 126.157 22.9218 126.77 22.2541C127.381 21.6039 127.716 20.742 127.705 19.8496L127.702 19.8487Z" fill="#737677"/>
</g>
<defs>
<clipPath id="clip0_1317_6132">
<rect width="132" height="34.3728" fill="white" transform="translate(0.5)"/>
</clipPath>
</defs>
</svg>
