<svg viewBox="0 0 51 39" fill="none" xmlns="http://www.w3.org/2000/svg">
<rect y="31" width="10" height="1" rx="0.5" fill="white"/>
<rect x="20" y="31" width="11" height="1" rx="0.5" fill="white"/>
<rect x="41" y="31" width="10" height="1" rx="0.5" fill="white"/>
<rect x="10" y="38" width="10" height="1" rx="0.5" fill="white"/>
<rect x="31" y="38" width="10" height="1" rx="0.5" fill="white"/>
<path d="M20.7675 5.40527C16.8913 5.40527 13.75 8.54777 13.75 12.424C13.75 16.3002 16.8913 19.4415 20.7675 19.4415H29.2313" stroke="#07BDEB" stroke-width="1.25" stroke-linecap="round" stroke-linejoin="round"/>
<path d="M34.6144 16.9277C35.6356 15.709 36.2506 14.139 36.2506 12.424C36.2506 8.54777 33.1081 5.40527 29.2319 5.40527H25" stroke="white" stroke-width="1.25" stroke-linecap="round" stroke-linejoin="round"/>
<path d="M25.957 16.1621L29.2358 19.4409L25.957 22.7209" stroke="#07BDEB" stroke-width="1.25" stroke-linecap="round" stroke-linejoin="round"/>
</svg>
