<svg viewBox="0 0 52 41" fill="none" xmlns="http://www.w3.org/2000/svg">
<path d="M21.4335 3.40527C17.5573 3.40527 14.416 6.54777 14.416 10.424C14.416 14.3002 17.5573 17.4415 21.4335 17.4415H29.8973" stroke="#07BDEB" stroke-width="1.25" stroke-linecap="round" stroke-linejoin="round"/>
<path d="M35.2804 14.9277C36.3016 13.709 36.9166 12.139 36.9166 10.424C36.9166 6.54777 33.7741 3.40527 29.8979 3.40527H25.666" stroke="white" stroke-width="1.25" stroke-linecap="round" stroke-linejoin="round"/>
<path d="M26.623 14.1621L29.9018 17.4409L26.623 20.7209" stroke="#07BDEB" stroke-width="1.25" stroke-linecap="round" stroke-linejoin="round"/>
<path d="M21 30H7C5.89543 30 5 30.8954 5 32V38C5 39.1046 5.89543 40 7 40H21C22.1046 40 23 39.1046 23 38V32C23 30.8954 22.1046 30 21 30Z" stroke="white" stroke-width="1.25" stroke-linecap="round" stroke-linejoin="round"/>
<path d="M8 35H10" stroke="white" stroke-width="1.25" stroke-linecap="round" stroke-linejoin="round"/>
<path d="M13 35L20 35" stroke="white" stroke-width="1.25" stroke-linecap="round" stroke-linejoin="round"/>
<path d="M46 30H32C30.8954 30 30 30.8954 30 32V38C30 39.1046 30.8954 40 32 40H46C47.1046 40 48 39.1046 48 38V32C48 30.8954 47.1046 30 46 30Z" stroke="white" stroke-width="1.25" stroke-linecap="round" stroke-linejoin="round"/>
<path d="M33 35H35" stroke="white" stroke-width="1.25" stroke-linecap="round" stroke-linejoin="round"/>
<path d="M38 35L45 35" stroke="white" stroke-width="1.25" stroke-linecap="round" stroke-linejoin="round"/>
<path d="M14 30L14 27C14 26.4696 14.2107 25.9609 14.5858 25.5858C14.9609 25.2107 15.4696 25 16 25L37 25C37.5304 25 38.0391 25.2107 38.4142 25.5858C38.7893 25.9609 39 26.4696 39 27L39 30" stroke="white" stroke-width="1.25" stroke-linecap="round" stroke-linejoin="round"/>
</svg>
