<svg viewBox="0 0 51 39" fill="none" xmlns="http://www.w3.org/2000/svg">
<path fill-rule="evenodd" clip-rule="evenodd" d="M22.9852 31.8838C24.763 33.6618 27.103 34.5227 29.4284 34.4724C32.5863 34.4041 38.125 34.4538 38.125 34.4538C38.125 34.4538 38.0764 28.8501 38.0788 25.6373C38.0805 23.3732 37.2185 21.1096 35.488 19.3796C32.0387 15.929 26.4346 15.929 22.9852 19.3787C19.5296 22.8347 19.5358 28.4341 22.9852 31.8838Z" stroke="#07BDEB" stroke-linecap="round"/>
<path d="M32.7921 25.9978H32.8867" stroke="white" stroke-linecap="square"/>
<path d="M29.214 25.9978H29.3086" stroke="white" stroke-linecap="square"/>
<path d="M25.6339 25.9978H25.7285" stroke="white" stroke-linecap="square"/>
<g clip-path="url(#clip0_1278_5726)">
<path fill-rule="evenodd" clip-rule="evenodd" d="M23.4976 24.3267C21.1787 26.6458 18.1265 27.7687 15.0934 27.7032C10.9744 27.6141 3.75 27.6788 3.75 27.6788C3.75 27.6788 3.81335 20.3697 3.81024 16.1791C3.80805 13.226 4.93244 10.2735 7.18952 8.01688C11.6887 3.51605 18.9984 3.51605 23.4976 8.01573C28.0049 12.5235 27.9967 19.8271 23.4976 24.3267Z" stroke="white" stroke-linecap="round"/>
<path d="M10.7055 16.6494H10.582" stroke="white" stroke-linecap="square"/>
<path d="M15.3734 16.6494H15.25" stroke="white" stroke-linecap="square"/>
<path d="M20.0413 16.6494H19.918" stroke="white" stroke-linecap="square"/>
</g>
<defs>
<clipPath id="clip0_1278_5726">
<rect width="30" height="30" fill="white" transform="translate(0 1)"/>
</clipPath>
</defs>
</svg>
