<svg width="171" height="65" viewBox="0 0 171 65" fill="none" xmlns="http://www.w3.org/2000/svg">
<path fill-rule="evenodd" clip-rule="evenodd" d="M15.1383 31.08L14.0466 32.3369L14.4154 33.2137L16.2152 31.0654H15.1383V31.08Z" fill="white"/>
<path fill-rule="evenodd" clip-rule="evenodd" d="M13.8992 31.0654L13.6926 31.3723L13.8254 31.65L14.1794 31.1093L13.8992 31.0654Z" fill="white"/>
<path fill-rule="evenodd" clip-rule="evenodd" d="M14.5193 31.0947L13.8259 31.9131L13.9882 32.1616L14.9028 31.1093H14.5193V31.0947Z" fill="white"/>
<path fill-rule="evenodd" clip-rule="evenodd" d="M19.8873 31.0654L15.978 37.5103L16.0813 37.8756L20.2119 31.0654H19.8873Z" fill="white"/>
<path fill-rule="evenodd" clip-rule="evenodd" d="M36.0694 40.3301L36.0251 40.3447L35.9956 40.3739L22.7778 55.2657H23.1171L31.8208 45.4596L23.7957 55.2657H24.1793L34.963 43.2383L35.2138 42.5953L35.1843 42.6099L35.1695 42.6245L27.3215 51.3637L35.8039 41.0023L36.0694 40.3301Z" fill="white"/>
<path fill-rule="evenodd" clip-rule="evenodd" d="M34.6686 43.8965L34.5948 43.9111L34.5653 43.9403L24.8438 55.2662H25.4043L28.9301 51.2766L25.6109 55.2662H25.9502L34.167 45.3579L34.4473 44.598L32.146 47.1993L34.5211 44.3641L34.6981 43.9111L34.6686 43.8965Z" fill="white"/>
<path fill-rule="evenodd" clip-rule="evenodd" d="M33.2529 47.7832L33.2086 47.7978L33.1791 47.827L26.4817 55.2656H26.8357L33.0316 48.3678L33.2529 47.7832Z" fill="white"/>
<path fill-rule="evenodd" clip-rule="evenodd" d="M32.294 50.3555L32.2645 50.3701L32.235 50.3993L28.7388 55.2512H29.0486L31.9547 51.2177L32.294 50.3555Z" fill="white"/>
<path fill-rule="evenodd" clip-rule="evenodd" d="M30.8624 54.126L29.7708 55.2659H30.1396L30.6411 54.7544L30.8624 54.126Z" fill="white"/>
<path fill-rule="evenodd" clip-rule="evenodd" d="M37.9303 34.9961L37.8861 35.0107L37.8566 35.0399L26.9843 47.0235L25.4058 48.9818L25.3616 49.0256H25.3026H25.2583L25.2288 49.011L25.2141 48.9818V48.9672L22.4554 52.0069L26.5122 45.9128L26.527 45.869L26.5122 45.7813L26.4827 45.7521L26.4385 45.7228H26.35L26.3205 45.7521L22.6915 49.9171L25.8336 45.5036L25.8631 45.4598L25.8484 45.3575L25.7746 45.299H25.6714L25.6271 45.3429L23.252 48.0319L25.6124 44.9921L25.6419 44.9483L25.6271 44.8606L25.5534 44.8022H25.4648L25.4206 44.8314L21.7621 48.9087L25.1551 44.0861L25.1846 44.0276L25.1698 43.9399L25.096 43.8815H25.0075L24.9633 43.9107L22.8095 46.1613L25.6714 42.7708L25.7009 42.7123L25.6861 42.6247L25.6124 42.5662H25.5239L25.4796 42.61L21.9539 46.4389L25.0223 42.5077L25.0518 42.4493L25.037 42.3616L24.9633 42.3031H24.8748L24.8305 42.347L20.0066 47.8565L20.1099 48.1342L22.0424 45.9274L20.1836 48.3241L20.3016 48.6603L21.6588 47.1696L20.3311 48.748L20.4344 49.0402L23.9896 45.3283L20.7589 49.9463L20.8917 50.3117L23.2373 47.7104L21.0097 50.5893L21.1277 50.9108L24.2404 47.3888L21.3343 51.4662L21.4523 51.8023L25.2436 47.4327L21.6736 52.6938L21.8211 53.0883L27.0286 47.3596L21.8653 53.2199L21.9686 53.5122L29.3741 45.4159L23.8274 51.7438L23.7979 51.8023L23.8126 51.89L23.8864 51.9484H23.9896L24.0339 51.9046L32.1918 42.7854L22.3522 54.5351L22.4554 54.8128L37.237 37.159L37.3845 36.7059H37.355H37.3402L37.414 36.6183L37.6353 35.9752L30.51 43.7792L38.0631 35.1861L38.0926 35.1422V35.0545L38.0631 35.0253H38.0041L37.9303 34.9961Z" fill="white"/>
<path fill-rule="evenodd" clip-rule="evenodd" d="M56.5169 6.16309V6.33846H79.8841V6.16309H56.5169ZM44.5825 31.5332L53.1682 55.1934H30.5976L21.7316 31.5332H44.5825ZM36.0558 7.50758L35.8936 7.56604L39.2718 16.8606H25.5081V17.036H39.316L44.5235 31.3578H21.6726L19.327 25.1176L19.1648 25.176L21.4808 31.3578H0.429688V31.5332H21.5546L30.4206 55.1934H14.1933V55.3688H30.4796L33.7988 64.1957L33.961 64.1372L30.6713 55.3688H53.2419L54.6876 59.373L54.8499 59.3146L53.419 55.3688H64.0109V55.1934H53.36L44.7743 31.5332H79.8841V31.3578H44.7153L39.5078 17.036H71.1509V16.8606H39.4488L36.0558 7.50758Z" fill="white"/>
<path fill-rule="evenodd" clip-rule="evenodd" d="M72.1242 3.72168L51.5746 59.6499L51.7369 59.7083L72.2865 3.78014L72.1242 3.72168ZM46.9425 10.9703L28.1189 61.2136L28.2812 61.272L47.1048 11.0287L46.9425 10.9703Z" fill="white"/>
<path fill-rule="evenodd" clip-rule="evenodd" d="M13.0556 28.5807L12.8933 28.6392L24.3851 60.3956L24.5474 60.3371L13.0556 28.5807ZM29.4303 10.9707L29.2681 11.0292L47.8409 61.9739L48.0031 61.9155L29.4303 10.9707Z" fill="white"/>
<path fill-rule="evenodd" clip-rule="evenodd" d="M38.9158 10.9708L21.9509 57.239L22.1132 57.2975L39.078 11.0292L38.9158 10.9708ZM65.2629 0.609375L44.5953 57.239L44.7576 57.2975L65.4252 0.667831L65.2629 0.609375Z" fill="white"/>
<path fill-rule="evenodd" clip-rule="evenodd" d="M63.1134 28.4932L45.529 48.5145L49.2907 43.3411L49.1727 43.0342L46.2223 46.4247L49.0252 42.6835L48.9219 42.4058H48.9072L48.8924 42.4204L48.7597 42.5812L48.9072 42.3912L48.8187 42.1135H48.8039L48.7892 42.1281L45.6765 45.7378L48.6564 41.7189L48.4204 41.1051L43.9948 46.0447L47.9778 39.936L47.8598 39.6437L42.8589 47.3308L42.8293 47.3746L42.8441 47.4623L42.9179 47.5207H43.0064L43.0506 47.4769L48.4499 41.4559L48.4646 41.5289L43.3014 48.4707L43.2719 48.5291L43.2867 48.6168L43.3604 48.6752H43.4489L43.4932 48.646L46.1486 45.5771L43.4637 49.0844L43.4342 49.1429L43.4489 49.2306L43.5227 49.289H43.6112L43.6555 49.2598L44.8061 47.8569L43.803 49.2014L43.7735 49.2598L43.7882 49.3475L43.862 49.406H43.9653L44.0095 49.3621L47.4615 45.3871L43.6702 50.6043L43.7587 50.882L43.7882 50.8674L43.803 50.8527L55.0293 38.0654L43.9505 51.2473L44.0538 51.5396L61.4317 32.9943L61.6677 32.3659L47.1517 47.8422L62.8331 29.2093L63.1134 28.4932Z" fill="white"/>
<path fill-rule="evenodd" clip-rule="evenodd" d="M17.2342 31.0947L15.1394 34.6752L15.3017 35.1136L17.6915 31.0947H17.2342Z" fill="white"/>
<path fill-rule="evenodd" clip-rule="evenodd" d="M19.2379 31.1094L15.4023 35.4205L15.5204 35.7274L19.6509 31.1094H19.2379Z" fill="white"/>
<path fill-rule="evenodd" clip-rule="evenodd" d="M21.4216 32.1758L21.3774 32.205L16.3469 37.963L16.4502 38.2406L19.6366 34.5871L16.6272 38.7229L16.7305 39.0298L17.0255 38.6498H17.055L17.1288 38.6206L17.1583 38.5914L19.1646 36.3262L16.8337 39.3367L16.937 39.629L21.9379 33.1842L21.9674 33.1403L21.9527 33.0526L21.9232 33.0088L21.8789 32.9796H21.7757L21.7462 33.0088L19.1203 35.9755L21.4216 32.9065L21.4511 32.8626L21.4364 32.775L21.4069 32.7311L21.3774 32.7165H21.3479L21.5986 32.3804L21.6281 32.3365L21.6134 32.2489L21.5396 32.1904H21.4216V32.1758Z" fill="white"/>
<path fill-rule="evenodd" clip-rule="evenodd" d="M22.1623 33.9443L22.059 33.9589L22.0295 33.9882L17.0286 39.8484L17.1318 40.1261L18.8578 38.1093L17.1908 40.2722L17.2941 40.5645L22.2508 34.1635L22.2803 34.1197L22.2655 34.032L22.236 34.0028L22.1623 33.9443Z" fill="white"/>
<path fill-rule="evenodd" clip-rule="evenodd" d="M22.3072 35.1719L22.2187 35.1865L22.1891 35.2157L17.3652 40.7983L17.4685 41.076L20.2124 37.8901L17.6013 41.4559L17.7045 41.7482L22.3809 35.3765L22.4104 35.3326L22.3957 35.2449L22.3662 35.2157L22.3072 35.1719Z" fill="white"/>
<path fill-rule="evenodd" clip-rule="evenodd" d="M22.5733 36.6621H22.4847L22.4552 36.6913L17.8083 41.967L17.9116 42.2447L21.3046 38.3866L18.1772 43.0046L18.2952 43.3554L22.529 39.0296L18.959 45.1675L19.077 45.489L23.2961 38.2404L23.3109 38.1966L23.2814 38.1089L23.2518 38.0797L23.2076 38.0505H23.1191L23.0748 38.0797L18.959 42.3032L22.647 36.8375L22.6765 36.7936L22.6618 36.706L22.6323 36.6767L22.5733 36.6621Z" fill="white"/>
<path fill-rule="evenodd" clip-rule="evenodd" d="M24.2404 40.7256L24.1962 40.7548L19.3132 46.1767L19.4165 46.4543L21.349 44.3061L19.4903 46.6443L19.6083 46.9512L22.8832 43.3707L19.8 47.4481L19.9033 47.7404L24.8452 41.2225L24.8747 41.164L24.86 41.0763L24.7862 41.0179H24.6977L24.6535 41.0617L21.9243 44.0138L24.3879 40.9302L24.4174 40.8717L24.4027 40.784L24.3289 40.7256H24.2404Z" fill="white"/>
<path fill-rule="evenodd" clip-rule="evenodd" d="M42.9895 26.7246L42.9453 26.7392L42.9158 26.7685L25.2133 48.8065L25.1838 48.8504V48.9381L25.2133 48.9819L26.9836 47.0236L37.9443 33.4033H37.8853L37.8411 33.374L37.8116 33.3302V33.2279L37.8411 33.184L39.6261 31.3281L43.1076 26.9877L42.9895 26.7246Z" fill="white"/>
<path fill-rule="evenodd" clip-rule="evenodd" d="M26.9817 47.0088L25.2114 48.9671V48.9817L25.2262 48.9963L25.2557 49.0255H25.2999L25.3589 49.0109L25.4032 48.9671L26.9817 47.0088Z" fill="white"/>
<path fill-rule="evenodd" clip-rule="evenodd" d="M38.6652 16.5098H38.5767L38.5325 16.539L35.5378 20.2217L35.2723 20.9671L36.5114 19.4326L35.0657 21.4932L34.6822 22.56L37.6473 19.3011L34.2544 23.7437L33.9446 24.5767L39.8454 18.2196L39.7421 17.9419L37.3523 20.514L39.6684 17.752L39.5651 17.4743L37.2638 20.2071L39.4913 17.2843L39.3733 16.9774L35.6853 21.0694L38.739 16.7144L38.7685 16.6559L38.739 16.5682L38.6652 16.5098Z" fill="white"/>
<path fill-rule="evenodd" clip-rule="evenodd" d="M37.266 16.4805L37.1775 16.4951L37.1332 16.5389L36.6906 17.1089L36.5874 17.4158V17.4304V17.445L36.6169 17.4596H36.6464L36.3513 18.0149L35.6875 19.8271L37.3545 16.6705L37.384 16.612L37.3545 16.5243L37.266 16.4805Z" fill="white"/>
<path fill-rule="evenodd" clip-rule="evenodd" d="M39.862 18.2627L33.8432 24.839L33.6072 25.4821L39.9653 18.5404L39.862 18.2627Z" fill="white"/>
<path fill-rule="evenodd" clip-rule="evenodd" d="M40.0662 18.833L34.903 24.4302L34.8735 24.4741V24.5763L34.903 24.6202L34.9473 24.6494H35.0358L35.0801 24.6202L40.1548 19.1399L40.0662 18.833Z" fill="white"/>
<path fill-rule="evenodd" clip-rule="evenodd" d="M40.3053 19.4473L32.2654 29.1949L31.7344 30.6417L38.5645 22.2093L36.0124 25.8629L31.6753 30.7586L31.4246 31.4308L35.4371 27.1343L36.2042 26.0236L40.7921 20.8502L40.6888 20.5726L37.5024 24.1822L40.4675 19.9441L40.3053 19.4473Z" fill="white"/>
<path fill-rule="evenodd" clip-rule="evenodd" d="M41.7077 23.2617L37.0166 28.6251L38.6983 25.6146L37.9165 26.4768L36.1905 29.575L36.1757 29.6189L36.1905 29.7065L36.2495 29.765L36.338 29.7796L36.3822 29.765L28.5784 39.1911L28.3276 39.878L28.3571 39.8633L28.3866 39.8341L41.811 23.5394L41.7077 23.2617Z" fill="white"/>
<path fill-rule="evenodd" clip-rule="evenodd" d="M40.9092 21.1133L39.3749 23.8607L30.509 33.9298L30.2729 34.5729L30.922 33.8568L38.7701 24.9276L38.4751 25.4537L39.2569 24.5768L39.5815 23.9923L41.2632 22.0778L41.1599 21.8001L40.1716 22.9108L41.0124 21.4056L40.9092 21.1133Z" fill="white"/>
<path fill-rule="evenodd" clip-rule="evenodd" d="M38.4895 25.4678L30.9217 33.8709L30.2727 34.6162L30.0366 35.2446L37.9142 26.4908L38.4895 25.4678Z" fill="white"/>
<path fill-rule="evenodd" clip-rule="evenodd" d="M41.3541 22.2822L41.3246 22.2968L39.2741 24.5766L38.6987 25.5996L41.4426 22.5453L41.3541 22.2822Z" fill="white"/>
<path fill-rule="evenodd" clip-rule="evenodd" d="M30.9238 33.8564L30.2748 34.5725L30.26 34.6018L30.9238 33.8564Z" fill="white"/>
<path fill-rule="evenodd" clip-rule="evenodd" d="M39.2724 24.5908L38.4905 25.4677L37.9299 26.4907L38.7118 25.6138L39.2724 24.5908Z" fill="white"/>
<path fill-rule="evenodd" clip-rule="evenodd" d="M40.6717 27.2654L38.9752 29.4575L38.5474 29.8959L39.0932 28.9753L40.6717 27.2654ZM38.2523 29.8667L37.795 30.6413L33.5907 34.8793L38.2523 29.8667ZM41.8813 23.8457L41.7928 23.8749L41.7633 23.9042L38.8572 28.7999L28.1619 40.3304L27.9849 40.8127H28.0144L28.0734 40.7981L28.1029 40.7834L35.8625 32.9649L27.6751 41.6603L27.2916 42.7271L36.3493 33.1695L26.967 43.6186L26.7605 44.2031L26.79 44.1885L26.8195 44.1593L37.6623 32.3511L36.9247 33.1987L36.8951 33.2572L36.9099 33.3595L36.9837 33.4179H37.0869L37.1312 33.3741L42.9435 26.637L42.7222 26.067L40.8044 28.0838L42.7222 26.0524L42.6337 25.804L42.6042 25.8186L42.5747 25.8478L40.4799 27.9669L42.4714 25.3948L42.3682 25.0879L39.7128 27.9377L41.9994 24.0795L41.9256 23.8749L41.8813 23.8457Z" fill="white"/>
<path fill-rule="evenodd" clip-rule="evenodd" d="M43.2685 27.499L43.239 27.5136L39.5952 31.3133L37.9283 33.3885L37.9578 33.3739L37.9873 33.3447L38.6954 32.614L38.1495 33.2278L38.12 33.2716V33.3593L38.1495 33.4031L37.5005 34.1192L37.4709 34.1631L37.4857 34.2507L37.5595 34.3092H37.648L37.6922 34.28L41.5425 30.2465L37.8988 34.8061L37.8693 34.8499V34.9376L37.8988 34.9814H37.9578L38.002 35.0107L38.0463 34.9961L38.0758 34.9668L39.4182 33.4908L38.0463 35.113L38.0168 35.1714L38.0315 35.2591L38.0905 35.3176H38.179L38.2233 35.2883L38.9609 34.5284L38.2085 35.4637L38.179 35.5076L38.1938 35.6099L38.2233 35.6537L38.2676 35.6829L38.3708 35.6683L38.4003 35.6391L40.8639 32.5993L41.0409 32.3509V32.2925L40.9967 32.2486L40.9524 32.2194H40.8639L40.8196 32.2486L40.6426 32.4386L42.3686 30.3926L43.6078 28.5805L43.593 28.5366L40.5689 31.8686L43.475 28.2297L43.2685 27.499Z" fill="white"/>
<path fill-rule="evenodd" clip-rule="evenodd" d="M37.9419 34.9961L38.0015 35.0406H38.0611L38.0164 35.0109H37.9419V34.9961Z" fill="white"/>
<path fill-rule="evenodd" clip-rule="evenodd" d="M39.6111 31.3135L37.8261 33.1695L37.7966 33.2133V33.3156L37.8261 33.3595L37.8704 33.3887H37.9294L39.6111 31.3135Z" fill="white"/>
<path fill-rule="evenodd" clip-rule="evenodd" d="M43.771 28.8291L42.4434 30.3928L41.1157 32.3511V32.3803L41.0862 32.4096L40.9387 32.5849L38.5783 36.0777L38.5488 36.1215L38.5783 36.2092L38.6521 36.2677H38.7406L38.7849 36.2384L38.9619 36.0338V36.0777L38.9914 36.1508L39.0651 36.1946L39.1537 36.18L39.1832 36.1508L41.5287 33.5787L38.7849 36.9545L38.7554 36.9838V37.0568L38.7849 37.1153L38.8439 37.1445H38.8881H38.9471L38.9914 37.1007L44.4791 30.7582L44.3759 30.4805L43.9186 31.0066L44.3611 30.4513L44.2431 30.159L42.9744 31.5473L44.2136 30.0713L44.1103 29.779L39.8765 34.5578L43.7415 28.8291H43.771Z" fill="white"/>
<path fill-rule="evenodd" clip-rule="evenodd" d="M43.6658 28.5811L42.4414 30.3932L43.7691 28.8295L43.6658 28.5811Z" fill="white"/>
<path fill-rule="evenodd" clip-rule="evenodd" d="M41.1285 32.3506L40.9521 32.5983L41.0991 32.4234L41.1285 32.3943V32.3506Z" fill="white"/>
<path fill-rule="evenodd" clip-rule="evenodd" d="M44.6147 31.1094L39.6728 39.1325L39.6433 39.1764L39.6581 39.264L39.6876 39.2933L39.7171 39.3079H39.7613L39.8203 39.2933L39.8646 39.264L45.3376 33.0969L45.2343 32.8192L40.6612 37.9634L44.7033 31.4017L44.6147 31.1094Z" fill="white"/>
<path fill-rule="evenodd" clip-rule="evenodd" d="M45.3934 33.2275L40.3039 41.4115L40.2744 41.4553L40.2892 41.543L40.3334 41.5722L40.3777 41.6014L40.4662 41.5868L40.4957 41.5576L46.1457 35.2297L46.0425 34.952L41.3071 40.2569L45.4966 33.5344L45.3934 33.2275Z" fill="white"/>
<path fill-rule="evenodd" clip-rule="evenodd" d="M46.233 35.4053L41.2025 43.8961L41.1877 43.9399L41.2025 44.0276L41.232 44.0568L41.2615 44.0714H41.3058H41.3648L41.409 44.0422L47.1328 37.7289L47.0296 37.4512L42.0876 42.9023L46.351 35.6976L46.233 35.4053Z" fill="white"/>
<path fill-rule="evenodd" clip-rule="evenodd" d="M47.2103 37.9189L42.2832 45.5914L42.2537 45.6352L42.2684 45.7229L42.2979 45.7521L42.3274 45.7667H42.3717L42.4307 45.7521L42.4749 45.7229L47.7857 39.4388L47.6824 39.1611L43.5666 44.0423L47.3136 38.182L47.2103 37.9189Z" fill="white"/>
<path fill-rule="evenodd" clip-rule="evenodd" d="M59.2015 38.9863L45.4231 55.1057L45.5264 55.3833L58.4049 41.1784L58.6409 40.5354L51.3387 48.5878L58.9507 39.7024L59.2015 38.9863Z" fill="white"/>
<path fill-rule="evenodd" clip-rule="evenodd" d="M58.037 42.1865L46.9287 55.2515H47.2828L57.2551 44.3056L57.4912 43.6625L51.9001 49.8005L57.7715 42.9026L58.037 42.1865Z" fill="white"/>
<path fill-rule="evenodd" clip-rule="evenodd" d="M57.2237 44.4082L48.4463 55.2519H48.8446L55.8813 48.1056L56.1026 47.521L50.2313 53.4836L56.9582 45.1681L57.2237 44.4082Z" fill="white"/>
<path fill-rule="evenodd" clip-rule="evenodd" d="M55.0108 50.4434L51.9424 55.2514H52.2522L54.5977 51.5833L55.0108 50.4434Z" fill="white"/>
<path fill-rule="evenodd" clip-rule="evenodd" d="M53.9498 53.3223L52.5779 55.2513H52.8877L53.6105 54.243L53.9498 53.3223Z" fill="white"/>
<path fill-rule="evenodd" clip-rule="evenodd" d="M64.9251 6.04586L62.0632 10.0647L62.0337 10.1086L62.0484 10.1963L62.1222 10.2547H62.2107L62.255 10.2255L62.8008 9.64093L61.1928 11.5408L61.1633 11.5992L61.1781 11.6869L61.2518 11.7454H61.3403L61.3846 11.7015L63.5384 9.40711L60.9863 12.4468L60.9568 12.4907V12.5784L60.9863 12.6222L61.0305 12.6514H61.0748H61.1338L61.1781 12.6222L67.1526 6.06048L67.1674 6.04586V6.03125H66.8281L65.1906 7.85801L66.7101 6.04586H66.356L64.7481 7.7411L66.12 6.11893L66.1495 6.07509V6.03125H65.8545L63.3466 8.69102L65.2349 6.03125H64.9251V6.04586Z" fill="white"/>
<path fill-rule="evenodd" clip-rule="evenodd" d="M67.9489 6.06055L59.614 16.8019L59.5845 16.8458L59.5992 16.9481L59.6287 16.9773L59.6582 17.0065H59.7025L59.7615 16.9919L59.8058 16.9627L69.247 6.07516H68.9077L62.7562 13.163L68.2292 6.119L68.2439 6.08978V6.06055H67.9489Z" fill="white"/>
<path fill-rule="evenodd" clip-rule="evenodd" d="M69.63 6.06055L58.7873 18.6287L58.7578 18.6725L58.7726 18.7748L58.8021 18.804L58.8463 18.8333H58.9496L58.9791 18.804L60.4248 17.2111L59.1119 18.731L59.0824 18.7894L59.0971 18.8771L59.1709 18.9356H59.2594L59.3036 18.8917L70.7364 6.08978H70.3971L70.3676 6.13362L70.3824 6.119V6.10439H70.0578L67.8598 8.54494L69.9546 6.119H69.63V6.06055Z" fill="white"/>
<path fill-rule="evenodd" clip-rule="evenodd" d="M70.7676 6.07516L57.004 23.8751L56.9745 23.919L56.9892 24.0067L57.063 24.0651H57.1515L57.1958 24.0359L61.7246 18.921L56.4434 25.1319L56.4139 25.1758L56.4287 25.2635L56.5024 25.3219H56.5909L56.6352 25.2927L59.3201 22.2822L56.8712 25.1612L56.8417 25.205L56.8565 25.2927L56.9302 25.3512H57.0187L57.063 25.3073L67.1091 14.2006L54.8059 29.9692L54.7764 30.0131L54.7912 30.1007L54.8649 30.1592H54.9535L54.9977 30.13L56.8565 28.0548L54.6289 30.6268L54.5994 30.6707L54.6142 30.7584L54.6879 30.8168H54.7764L54.8207 30.773L56.7089 28.6686L54.2749 31.4598L54.2454 31.5037V31.606L54.2749 31.6498L54.3191 31.6791H54.4076L54.4519 31.6498L66.8731 18.0441L67.1091 17.4011L61.6804 23.349L67.3009 16.8896L67.5517 16.1881L65.5602 18.4387L67.6107 16.0858L67.8615 15.3843L57.3728 27.1048L69.0859 12.0962L69.3662 11.307L65.7667 15.2967L69.4842 11.0147L69.735 10.3279L63.1556 17.6641L69.9858 9.641L70.148 9.20258L70.1185 9.18796L70.03 9.20258L70.0005 9.23181L59.5856 20.9523L71.0922 6.06055H70.7676V6.07516Z" fill="white"/>
<path fill-rule="evenodd" clip-rule="evenodd" d="M66.6679 18.6582L52.8896 35.5229L52.86 35.5667L52.8748 35.6544L52.9043 35.6983L52.9486 35.7275H53.0518L53.0813 35.6983L54.9548 33.6084L53.0961 35.7421L53.0666 35.7859L53.0813 35.8736L53.1551 35.9321H53.2436L53.2879 35.9029L61.4752 26.8129L51.6209 38.6211L51.6061 38.6357V38.6503L51.5619 38.7672L51.5471 38.9864L51.5914 39.1033L51.6504 39.1472L51.6799 39.1618L51.7536 39.191L51.8717 39.1618L52.0487 39.0595L52.2995 38.8403L52.6683 38.4749L53.4354 37.6273L54.173 36.7359L55.3531 35.3183L58.6281 31.5186L60.3836 29.5165L51.0898 40.784L51.0603 40.8278L51.0751 40.9301L51.1046 40.974L51.1488 41.0032H51.2078V41.0616L51.2816 41.1493L51.3406 41.1639L51.3996 41.1493L51.4439 41.1201L63.8208 26.5644L64.0863 25.8483L58.0233 32.8485L64.3224 25.2053L64.6174 24.3723L62.6406 26.5937L57.9052 31.9863L55.0138 35.3621L53.9664 36.6189L53.4501 37.2474L52.683 38.1242L52.1815 38.6357L51.9012 38.8841L51.8274 38.928L51.8422 38.8695L51.8717 38.8111L65.1632 22.9255L65.4583 22.1217L62.0653 25.8776L65.5615 21.8587L65.8123 21.1718L56.7841 31.1679L66.3877 19.4035L66.6679 18.6582Z" fill="white"/>
<path fill-rule="evenodd" clip-rule="evenodd" d="M15.137 34.6748L14.9895 34.9379L15.1665 35.3617L15.2993 35.1132L15.137 34.6748Z" fill="white"/>
<path fill-rule="evenodd" clip-rule="evenodd" d="M15.4202 35.4199L15.2727 35.5953L15.3465 35.946L15.5382 35.7268L15.4202 35.4199Z" fill="white"/>
<path fill-rule="evenodd" clip-rule="evenodd" d="M61.0035 34.0752L44.1272 51.6998L44.2157 51.9775L58.3482 37.2318L56.5927 39.2924L52.4768 44.1882L49.4527 47.8709L47.6677 50.0923L46.2072 51.9629L45.4106 53.0297L45.0418 53.585L44.9238 53.7896L45.0566 54.1258L59.5873 37.9626L59.8234 37.3049L45.986 52.6936L46.6055 51.8752L48.2283 49.8L51.2672 46.0734L57.9499 38.0941L60.7232 34.8351L61.0035 34.0752Z" fill="white"/>
<path fill-rule="evenodd" clip-rule="evenodd" d="M39.5371 16.8603L39.4928 16.8896L39.4043 16.992L39.5076 17.2991L39.6993 17.0505L39.7288 16.992L39.7141 16.9042L39.6403 16.8457H39.5371V16.8603Z" fill="white"/>
<path fill-rule="evenodd" clip-rule="evenodd" d="M41.3964 22.2676L41.3669 22.2822L41.4555 22.5601L41.5292 22.487L41.5587 22.4431V22.3407L41.5292 22.3115L41.4997 22.2822H41.3964V22.2676Z" fill="white"/>
<path fill-rule="evenodd" clip-rule="evenodd" d="M41.928 23.8604L42.0015 24.05V24.0354L42.031 23.9916L42.0015 23.9041L41.9574 23.8749H41.9427H41.928V23.8604Z" fill="white"/>
<path fill-rule="evenodd" clip-rule="evenodd" d="M74.9105 31.3573H80.1179V14.6242H74.9105V31.3573V31.3573ZM74.4827 9.36308V9.5969L74.5417 10.0353L74.6744 10.4591L74.8662 10.8537L75.117 11.2191L75.412 11.5406L75.7513 11.8182L76.1349 12.0521L76.3414 12.1398L76.548 12.2274L76.9905 12.3297L77.4331 12.3736L77.8756 12.359L78.3034 12.2713L78.7165 12.1251L79.1 11.9205L79.4689 11.6575L79.6311 11.4967L79.7786 11.336L80.0442 10.9706L80.2507 10.576L80.3982 10.1669L80.4867 9.74304L80.5163 9.30462L80.472 8.8662L80.3687 8.44239L80.2802 8.22318L80.1917 8.01858L79.9557 7.63861L79.6754 7.30249L79.3508 7.01021L78.982 6.76177L78.5837 6.57178L78.1559 6.44026L77.7134 6.3818H77.4921H77.3446L77.0348 6.41103L76.7397 6.46949L76.4594 6.55717L76.1939 6.67408L75.9431 6.80561L75.5891 7.05405L75.176 7.46325L74.9252 7.81398L74.7777 8.06242L74.6597 8.34009L74.5712 8.61776L74.5122 8.91004L74.4827 9.21694V9.36308ZM83.865 31.3573H89.0724V23.0273V22.6181L89.1167 21.8289L89.2347 21.0836L89.3822 20.5575L89.515 20.236L89.6773 19.9291L89.869 19.6514L90.1051 19.403L90.3854 19.1984L90.6952 19.023L91.064 18.8915L91.4622 18.8038L91.9196 18.7599H92.1704H92.4211L92.8637 18.8184L93.2473 18.9207L93.5865 19.0668L93.8668 19.2714L94.1029 19.5053L94.3094 19.7829L94.4717 20.0752L94.6044 20.3967L94.6929 20.7328L94.7962 21.2736L94.8552 22.0335L94.87 22.7934V23.1588V31.3573H100.077V22.1358V21.712L100.048 20.8936L99.9889 20.1191L99.9004 19.3591L99.7676 18.643L99.5906 17.9708L99.3693 17.3424L99.0891 16.7578L98.7498 16.2317L98.3514 15.7494L97.8794 15.3256L97.3336 14.9603L96.714 14.668L96.0059 14.4488L95.2093 14.3026L94.3094 14.215H93.8226H93.5865L93.1292 14.2442L92.7014 14.3026L92.2884 14.3903L91.6983 14.5657L90.9902 14.8726L90.3706 15.2526L89.8395 15.6764L89.397 16.144L89.0429 16.6263L88.9101 16.8747H88.8364V14.6242H83.8355V31.3573H83.865ZM103.81 31.3573H109.017V23.0273V22.6181L109.061 21.8289L109.179 21.0836L109.342 20.5575L109.474 20.236L109.637 19.9291L109.829 19.6514L110.065 19.403L110.345 19.1984L110.655 19.023L111.023 18.8915L111.422 18.8038L111.879 18.7599H112.13H112.381L112.823 18.8184L113.207 18.9207L113.546 19.0668L113.826 19.2714L114.062 19.5053L114.269 19.7829L114.431 20.0752L114.564 20.3967L114.652 20.7328L114.756 21.2736L114.815 22.0335L114.829 22.7934V23.1588V31.3573H120.037V22.1358V21.712L120.007 20.8936L119.948 20.1191L119.86 19.3591L119.727 18.643L119.55 17.9708L119.329 17.3424L119.049 16.7578L118.709 16.2317L118.311 15.7494L117.839 15.3256L117.293 14.9603L116.673 14.668L115.965 14.4488L115.169 14.3026L114.269 14.215H113.782H113.576L113.118 14.2442L112.69 14.3026L112.277 14.3903L111.687 14.5657L110.979 14.8726L110.36 15.2526L109.829 15.6764L109.386 16.144L109.032 16.6263L108.899 16.8747H108.84V14.6242H103.839L103.81 31.3573ZM123.813 31.3573H129.021V14.6242H123.813V31.3573ZM123.4 9.36308V9.5969L123.459 10.0353L123.592 10.4591L123.784 10.8537L124.035 11.2191L124.33 11.5406L124.669 11.8182L125.053 12.0521L125.259 12.1398L125.48 12.2274L125.908 12.3297L126.351 12.3736L126.793 12.359L127.221 12.2713L127.634 12.1251L128.033 11.9205L128.401 11.6575L128.564 11.4967L128.711 11.336L128.977 10.9706L129.183 10.576L129.331 10.1669L129.419 9.74304L129.449 9.30462L129.404 8.8662L129.286 8.44239L129.213 8.20856L129.124 8.00397L128.888 7.624L128.608 7.28788L128.283 6.99559L127.915 6.74715L127.516 6.55717L127.088 6.42564L126.646 6.36719H126.425H126.262L125.953 6.39642L125.657 6.45487L125.377 6.54256L125.097 6.65947L124.846 6.791L124.492 7.03944L124.079 7.44863L123.828 7.79937L123.695 8.04781L123.577 8.32548L123.489 8.60315L123.43 8.89543L123.4 9.20232V9.36308ZM132.783 31.3573H137.99V23.0273V22.6181L138.034 21.8289L138.152 21.0836L138.315 20.5575L138.447 20.236L138.61 19.9291L138.816 19.6514L139.052 19.403L139.333 19.1984L139.642 19.023L139.996 18.8915L140.409 18.8038L140.867 18.7599H141.118H141.368L141.811 18.8184L142.194 18.9207L142.534 19.0668L142.814 19.2714L143.065 19.5053L143.257 19.7829L143.419 20.0752L143.552 20.3967L143.64 20.7328L143.743 21.2736L143.802 22.0335L143.817 22.7934V23.1588V31.3573H149.025V22.1358V21.712L148.995 20.8936L148.936 20.1191L148.848 19.3591L148.715 18.643L148.538 17.9708L148.317 17.3424L148.036 16.7578L147.697 16.2317L147.299 15.7494L146.827 15.3256L146.281 14.9603L145.661 14.668L144.953 14.4488L144.157 14.3026L143.257 14.215H142.77H142.534L142.076 14.2442L141.649 14.3026L141.236 14.3903L140.646 14.5657L139.937 14.8726L139.318 15.2526L138.787 15.6764L138.344 16.144L137.99 16.6263L137.857 16.8747H137.784V14.6242H132.783V31.3573V31.3573ZM170.43 14.6242H165.635V16.8309H165.562L165.399 16.5971L164.986 16.1294L164.47 15.6764L163.85 15.2526L163.113 14.8726L162.287 14.5657L161.593 14.3903L161.107 14.3026L160.59 14.2442L160.059 14.215H159.779H159.336L158.481 14.3026L157.669 14.4926L156.902 14.7703L156.194 15.121L155.53 15.5448L154.925 16.0417L154.365 16.5971L153.863 17.2109L153.421 17.8685L153.037 18.57L152.713 19.3007L152.447 20.0606L152.241 20.8498L152.108 21.6535L152.049 22.4865V22.9104V23.378L152.123 24.2841L152.27 25.1609L152.491 25.9939L152.786 26.7831L153.14 27.5284L153.568 28.2153L154.055 28.8437L154.601 29.4136L155.206 29.9251L155.87 30.3782L156.578 30.7581L157.33 31.065L158.141 31.3135L158.997 31.4742L159.897 31.5619H160.354H160.649L161.269 31.5034L161.918 31.3719L162.567 31.1819L163.201 30.9189L163.806 30.5828L164.382 30.1589L164.765 29.779L165.016 29.5013L165.119 29.3552H165.193V30.9773V31.1965L165.163 31.6204L165.09 32.0296L164.986 32.4241L164.839 32.7895L164.662 33.1402L164.441 33.4617L164.19 33.7686L163.895 34.0463L163.57 34.2947L163.201 34.5139L162.803 34.7039L162.361 34.8501L161.888 34.967L161.372 35.0401L160.812 35.0839H160.516H160.118L159.351 35.0108L158.614 34.8647L157.905 34.6455L157.227 34.3678L156.563 34.0317L155.929 33.6371L155.309 33.1841L154.999 32.9356L152.123 37.2029L152.344 37.3783L152.816 37.6998L153.303 38.0067L153.804 38.2698L154.306 38.5182L154.822 38.7374L155.619 39.0151L156.696 39.2928L157.802 39.4827L158.909 39.5997L160.03 39.6581H160.59H161.195L162.346 39.5704L163.408 39.4243L164.396 39.1905L165.311 38.8836L166.152 38.5036L166.919 38.0359L167.597 37.4952L168.202 36.8814L168.733 36.1946L169.191 35.4346L169.574 34.6016L169.884 33.7102L170.105 32.731L170.253 31.6934L170.327 30.5828V29.9982L170.43 14.6242ZM157.301 22.8957V22.6911L157.345 22.2966L157.433 21.902L157.551 21.522L157.714 21.1567L157.891 20.8059L158.112 20.4698L158.363 20.1629L158.643 19.8706L158.953 19.6076L159.292 19.3884L159.646 19.1838L160.015 19.023L160.413 18.9061L160.826 18.8184L161.254 18.7746H161.475H161.697L162.124 18.8184L162.538 18.9061L162.936 19.023L163.305 19.1838L163.659 19.3884L163.998 19.6222L164.308 19.8706L164.588 20.1629L164.839 20.4698L165.06 20.8059L165.237 21.1567L165.385 21.522L165.503 21.902L165.591 22.2966L165.635 22.6911V22.8957V23.1003L165.591 23.4949L165.503 23.8895L165.385 24.2695L165.237 24.6348L165.06 24.9856L164.839 25.3217L164.588 25.6286L164.308 25.9209L163.998 26.1693L163.659 26.4031L163.305 26.6077L162.936 26.7685L162.538 26.9L162.124 26.9877L161.697 27.0315H161.475H161.254L160.826 26.9877L160.413 26.9L160.015 26.7685L159.646 26.6077L159.292 26.4031L158.953 26.1693L158.643 25.9209L158.363 25.6286L158.112 25.3217L157.891 24.9856L157.714 24.6348L157.551 24.2695L157.433 23.8895L157.345 23.4949L157.301 23.1003V22.8957ZM74.6007 56.6251H76.0316V54.9445H76.0759L76.2529 55.1929L76.666 55.6313L77.1233 55.9967L77.6248 56.3036L78.1559 56.5374L78.7017 56.7128L79.2328 56.8297L79.7639 56.8881H80.0147H80.3097L80.8851 56.8297L81.4309 56.7274L81.9619 56.5812L82.4488 56.3913L82.9061 56.1428L83.3339 55.8652L83.7322 55.5583L84.0862 55.2075L84.4108 54.8129L84.6911 54.3891L84.9271 53.9361L85.1189 53.4538L85.2664 52.9569L85.3697 52.4308L85.4287 51.8755V51.6124V51.3202L85.3697 50.7648L85.2664 50.2387L85.1189 49.7272L84.9271 49.245L84.6911 48.7919L84.4108 48.3681L84.0862 47.9735L83.7322 47.6228L83.3339 47.3013L82.9061 47.0236L82.4488 46.7898L81.9619 46.5998L81.4456 46.4537L80.8998 46.3514L80.3245 46.3075H80.0294H79.7786L79.2476 46.366L78.7165 46.4829L78.1707 46.6583L77.6396 46.8921L77.138 47.199L76.6807 47.5643L76.2677 48.0028L76.0906 48.2512H76.0464V40.4034H74.6154V56.6251H74.6007ZM83.8502 51.6124V51.817L83.8207 52.2262L83.7617 52.6208L83.6584 53.0008L83.5257 53.3661L83.3634 53.7023L83.1716 54.0238L82.9503 54.3161L82.6995 54.5937L82.4193 54.8276L82.1095 55.0468L81.7849 55.2367L81.4309 55.3829L81.0473 55.4998L80.649 55.5729L80.236 55.6167H80.0147H79.7934L79.3656 55.5729L78.9673 55.4998L78.5837 55.3829L78.2149 55.2367L77.8756 55.0468L77.5511 54.8276L77.256 54.5937L76.9905 54.3161L76.7397 54.0238L76.5332 53.7023L76.3562 53.3661L76.2087 53.0008L76.0906 52.6208L76.0169 52.2262L75.9726 51.817V51.6124V51.3932L76.0169 50.984L76.0906 50.5895L76.2087 50.2095L76.3562 49.8441L76.5332 49.508L76.7397 49.1865L76.9905 48.8942L77.256 48.6312L77.5511 48.3827L77.8756 48.1635L78.2149 47.9735L78.5837 47.8274L78.9673 47.7105L79.3656 47.6228L79.7934 47.5936H80.0147H80.236L80.649 47.6228L81.0473 47.7105L81.4309 47.8274L81.7849 47.9735L82.1095 48.1635L82.4193 48.3827L82.6995 48.6312L82.9503 48.8942L83.1716 49.1865L83.3634 49.508L83.5257 49.8441L83.6584 50.2095L83.7617 50.5895L83.8207 50.984L83.8502 51.3932V51.6124V51.6124ZM88.4233 46.5852H86.6236L90.7837 56.7566L90.0461 58.6857L89.9575 58.8903L89.7805 59.2702L89.5887 59.6064L89.3822 59.884L89.1462 60.1179L88.8806 60.2932L88.5856 60.4101L88.2463 60.4686H88.0693H87.9365L87.6562 60.4394L87.3759 60.3809L87.1104 60.2932L86.9776 60.2348L86.8301 61.6085L86.9924 61.6523L87.3169 61.7108L87.8185 61.7546H88.143H88.4676L89.0429 61.6669L89.5445 61.4916L89.9723 61.2431L90.3411 60.907L90.6656 60.5124L90.9459 60.0448L91.1967 59.5187L91.3147 59.241L96.3747 46.5852H94.6487L91.5508 54.886L88.4233 46.5852ZM104.592 56.6251H109.681H110.05L110.773 56.5666L111.496 56.4497L112.204 56.2743L112.912 56.0259L113.59 55.7336L114.239 55.3829L114.859 54.9591L115.434 54.4914L115.965 53.9507L116.437 53.3661L116.85 52.7085L117.19 51.9924L117.455 51.2325L117.632 50.3995L117.721 49.508L117.736 49.0404L117.721 48.5727L117.632 47.6813L117.455 46.8483L117.19 46.0737L116.85 45.3576L116.437 44.7146L115.965 44.1154L115.434 43.5893L114.859 43.107L114.239 42.6978L113.59 42.3325L112.912 42.0402L112.204 41.8064L111.496 41.631L110.773 41.5141L110.05 41.4556H109.681H104.592V56.6251ZM106.155 42.844H109.179H109.607L110.433 42.9024L111.2 43.034L111.909 43.224L112.558 43.4724L113.148 43.7793L113.679 44.13L114.151 44.5246L114.579 44.9484L114.947 45.4161L115.257 45.9129L115.523 46.4391L115.729 46.9798L115.892 47.5351L115.995 48.1197L116.054 48.7042V48.9965V49.2888L115.995 49.8734L115.892 50.4433L115.729 51.0133L115.523 51.554L115.257 52.0655L114.947 52.5624L114.579 53.03L114.151 53.4538L113.679 53.8484L113.133 54.243L112.543 54.5499L111.894 54.7983L111.186 54.9883L110.419 55.1198L109.592 55.1929H109.165H106.141V42.844H106.155ZM129.788 51.9924V51.3494V51.0863L129.744 50.5895L129.655 50.0926L129.537 49.6249L129.375 49.1719L129.168 48.7481L128.932 48.3535L128.652 47.9882L128.342 47.652L128.003 47.3451L127.619 47.0675L127.206 46.8336L126.764 46.6437L126.277 46.4975L125.761 46.3952L125.215 46.3368H124.935H124.669L124.138 46.3952L123.636 46.4975L123.15 46.6437L122.692 46.8336L122.264 47.0675L121.866 47.3451L121.497 47.6666L121.158 48.0174L120.848 48.3973L120.568 48.8212L120.332 49.2742L120.14 49.7565L119.993 50.2533L119.904 50.7794L119.845 51.3348V51.6124V51.8901L119.904 52.4455L120.007 52.9716L120.155 53.4684L120.347 53.9507L120.583 54.4037L120.863 54.8276L121.173 55.2075L121.527 55.5583L121.91 55.8798L122.323 56.1574L122.766 56.3913L123.238 56.5812L123.74 56.7274L124.256 56.8297L124.802 56.8881H125.082H125.392L125.997 56.8297L126.587 56.6982L127.162 56.5082L127.708 56.2451L128.224 55.9236L128.726 55.5144L129.198 55.0321L129.419 54.7545L128.313 53.8484L128.195 54.0238L127.929 54.3453L127.605 54.6522L127.236 54.9299L126.823 55.1783L126.366 55.3683L125.864 55.5144L125.333 55.5875L125.053 55.6021H124.861L124.492 55.5729L124.138 55.4998L123.799 55.3975L123.474 55.266L123.164 55.1052L122.884 54.9152L122.619 54.696L122.368 54.4476L122.146 54.1845L121.94 53.8922L121.763 53.5854L121.601 53.2638L121.483 52.9277L121.394 52.577L121.335 52.2116L121.32 52.0216H129.788V51.9924ZM121.379 50.8379V50.6918L121.409 50.3849L121.483 50.078L121.586 49.7857L121.733 49.508L121.896 49.2304L122.087 48.9673L122.309 48.7189L122.56 48.4996L122.825 48.295L123.105 48.1051L123.4 47.9589L123.71 47.8274L124.035 47.7251L124.374 47.652L124.713 47.6228H124.89H125.082L125.451 47.652L125.805 47.7105L126.13 47.7982L126.439 47.9151L126.72 48.0612L126.985 48.222L127.221 48.412L127.428 48.6312L127.619 48.865L127.782 49.1134L127.915 49.3911L128.033 49.6834L128.121 49.9903L128.18 50.3264L128.21 50.6625V50.8379H121.379V50.8379ZM139.023 48.1197L138.905 47.8859L138.595 47.462L138.241 47.1259L137.843 46.8483L137.4 46.629L136.928 46.4829L136.426 46.3806L135.91 46.3368H135.645H135.291L134.582 46.4244L133.919 46.6144L133.461 46.819L133.181 46.9798L132.915 47.1698L132.679 47.389L132.473 47.6228L132.296 47.8859L132.134 48.1635L132.016 48.4704L131.927 48.8065L131.883 49.1719V49.3619V49.5372L131.927 49.8734L132.001 50.1657L132.119 50.4433L132.252 50.6918L132.414 50.911L132.694 51.1886L133.122 51.4955L133.55 51.7147L134.169 51.934L134.464 52.007L135.851 52.3285L136.235 52.4162L136.766 52.6062L137.076 52.7523L137.341 52.9423L137.548 53.1615L137.695 53.4246L137.769 53.7461V53.9361V54.0384L137.739 54.243L137.651 54.5207L137.459 54.8276L137.179 55.0906L136.84 55.2952L136.456 55.456L136.043 55.5583L135.615 55.6021H135.394H135.173L134.759 55.5436L134.361 55.4413L134.007 55.2806L133.668 55.0906L133.358 54.8422L133.078 54.5645L132.827 54.2576L132.709 54.0822L131.47 54.9152L131.647 55.1783L132.045 55.6313L132.473 56.0113L132.945 56.3182L133.447 56.552L133.963 56.7128L134.509 56.8297L135.069 56.8735H135.35H135.718L136.456 56.7858L137.149 56.6105L137.636 56.4059L137.931 56.2451L138.211 56.0551L138.462 55.8359L138.684 55.5875L138.875 55.3244L139.038 55.0321L139.156 54.7106L139.244 54.3599L139.288 53.9799V53.7753L139.274 53.5123L139.185 53.0154L139.008 52.5624L138.743 52.1678L138.403 51.817L138.005 51.5101L137.562 51.2617L137.061 51.0717L136.795 51.0133L135.35 50.6771L134.877 50.5602L134.302 50.3703L133.992 50.2095L133.742 50.0195L133.55 49.8003L133.432 49.5519L133.373 49.245V49.0696V48.865L133.476 48.5289L133.653 48.2366L133.904 48.0028L134.199 47.8128L134.538 47.6813L134.907 47.5936L135.276 47.5497H135.468H135.659L136.013 47.5936L136.353 47.6813L136.648 47.8128L136.928 47.9882L137.179 48.2074L137.4 48.4558L137.592 48.7335L137.68 48.8942L139.023 48.1197ZM143.36 46.5852H141.944V56.6397H143.375L143.36 46.5852ZM143.684 42.7271V42.5517L143.581 42.2594L143.404 42.011L143.168 41.8356L142.903 41.7187L142.608 41.6895L142.312 41.7479L142.032 41.8941L141.899 42.011L141.781 42.1279L141.634 42.4056L141.575 42.6978L141.604 42.9901L141.722 43.2532L141.899 43.487L142.15 43.6624L142.445 43.7501L142.622 43.7647H142.726L142.932 43.7208L143.109 43.6331L143.271 43.5309L143.419 43.3847L143.537 43.224L143.611 43.034L143.655 42.8294L143.684 42.7271ZM146.517 59.7525L146.768 60.0009L147.284 60.454L147.83 60.8339L148.39 61.1555L148.995 61.4039L149.63 61.5939L150.308 61.7108L151.016 61.7693H151.385H151.798L152.565 61.7108L153.259 61.5793L153.878 61.3893L154.424 61.1408L154.896 60.8486L155.309 60.5271L155.663 60.1617L155.958 59.7671L156.209 59.3579L156.401 58.9341L156.548 58.4957L156.666 58.0427L156.755 57.6042L156.814 56.9466V56.5228V46.556H155.398V48.2512H155.353L155.132 47.9735L154.675 47.4913L154.173 47.1113L153.672 46.819L153.155 46.5998L152.654 46.4537L152.152 46.366L151.665 46.3221H151.429H151.149L150.618 46.3806L150.102 46.4829L149.6 46.629L149.128 46.819L148.7 47.0528L148.287 47.3305L147.918 47.6374L147.579 47.9882L147.269 48.3681L147.004 48.7773L146.782 49.2157L146.591 49.6834L146.443 50.1657L146.355 50.6771L146.296 51.2033V51.4809V51.7586L146.355 52.2993L146.458 52.8108L146.62 53.2931L146.827 53.7607L147.077 54.1991L147.358 54.6083L147.682 54.9737L148.036 55.3098L148.435 55.6167L148.848 55.8798L149.305 56.1136L149.777 56.3036L150.279 56.4497L150.795 56.5374L151.326 56.5959H151.606H151.887L152.432 56.5374L152.963 56.4351L153.48 56.2743L153.967 56.0405L154.424 55.7482L154.852 55.3829L155.235 54.9445L155.412 54.696H155.457V56.5082V56.9028L155.383 57.4873L155.309 57.8527L155.206 58.2034L155.073 58.5395L154.896 58.861L154.704 59.1533L154.468 59.431L154.203 59.6794L153.893 59.8986L153.554 60.0886L153.17 60.2348L152.757 60.3517L152.3 60.4394L151.798 60.4832H151.533H151.223L150.633 60.4248L150.072 60.2932L149.541 60.1032L149.039 59.8694L148.582 59.5771L148.169 59.241L147.8 58.861L147.638 58.6564L146.517 59.7525ZM147.845 51.4663V51.2763L147.874 50.8964L147.948 50.5164L148.051 50.151L148.184 49.8149L148.361 49.4788L148.567 49.1719L148.789 48.8796L149.039 48.6166L149.32 48.3827L149.63 48.1781L149.954 47.9882L150.293 47.842L150.647 47.7251L151.016 47.652L151.4 47.6082H151.592H151.813L152.241 47.652L152.639 47.7251L153.022 47.842L153.377 47.9882L153.701 48.1781L154.011 48.3827L154.291 48.6166L154.542 48.8796L154.763 49.1719L154.955 49.4788L155.117 49.8149L155.25 50.151L155.353 50.5164L155.412 50.8964L155.442 51.2763V51.4663V51.6855L155.412 52.1093L155.339 52.5039L155.235 52.8693L155.088 53.22L154.911 53.5561L154.704 53.863L154.453 54.1407L154.188 54.3891L153.893 54.6083L153.583 54.8129L153.244 54.9737L152.904 55.1052L152.536 55.2075L152.167 55.2806L151.783 55.3098H151.592H151.4L151.016 55.266L150.647 55.1783L150.293 55.0614L149.954 54.9152L149.63 54.7253L149.32 54.5207L149.039 54.2722L148.789 54.0092L148.567 53.7169L148.361 53.41L148.184 53.0739L148.051 52.7377L147.948 52.3724L147.874 52.007L147.845 51.6271V51.4663ZM159.926 46.5852L160 47.7836L160.03 48.7919V56.6251H161.461V51.4809V51.1448L161.52 50.531L161.638 50.0049L161.8 49.5372L162.006 49.1427L162.228 48.8065L162.479 48.5289L162.744 48.295L163.024 48.1051L163.305 47.9589L163.703 47.7982L164.16 47.6813L164.47 47.6374H164.544H164.736L165.104 47.6666L165.429 47.7251L165.724 47.8128L165.99 47.9297L166.226 48.0758L166.447 48.2366L166.624 48.4266L166.771 48.6458L166.904 48.8942L167.066 49.3034L167.199 49.9464L167.258 50.6771V51.0863V56.6397H168.689V50.2679V50.0341L168.66 49.5957L168.601 49.1865L168.512 48.7919L168.394 48.4266L168.247 48.0904L168.07 47.7836L167.863 47.5059L167.627 47.2574L167.361 47.0382L167.066 46.8483L166.742 46.6875L166.373 46.556L165.99 46.4537L165.562 46.3952L165.119 46.366H164.868H164.618L164.116 46.4391L163.614 46.5706L163.142 46.7606L162.685 47.009L162.272 47.3013L161.903 47.6374L161.593 48.0174L161.461 48.222H161.416V47.8274L161.387 47.0236L161.357 46.629L159.926 46.5852Z" fill="white"/>
</svg>
