<svg width="65" height="52" viewBox="0 0 65 52" fill="none" xmlns="http://www.w3.org/2000/svg">
<path fill-rule="evenodd" clip-rule="evenodd" d="M11.7649 24.7928L10.9023 25.7859L11.1937 26.4788L12.6158 24.7812H11.7649V24.7928Z" fill="white"/>
<path fill-rule="evenodd" clip-rule="evenodd" d="M10.7862 24.7812L10.623 25.0238L10.7279 25.2432L11.0077 24.8159L10.7862 24.7812Z" fill="white"/>
<path fill-rule="evenodd" clip-rule="evenodd" d="M11.2744 24.8042L10.7266 25.4509L10.8548 25.6472L11.5774 24.8157H11.2744V24.8042Z" fill="white"/>
<path fill-rule="evenodd" clip-rule="evenodd" d="M15.5166 24.7812L12.4277 29.8738L12.5093 30.1625L15.773 24.7812H15.5166Z" fill="white"/>
<path fill-rule="evenodd" clip-rule="evenodd" d="M28.3028 32.1025L28.2678 32.1141L28.2445 32.1372L17.8008 43.9043H18.0689L24.9459 36.1558L18.605 43.9043H18.9081L27.4286 34.4005L27.6267 33.8924L27.6034 33.904L27.5918 33.9155L21.3908 40.821L28.093 32.6337L28.3028 32.1025Z" fill="white"/>
<path fill-rule="evenodd" clip-rule="evenodd" d="M27.1964 34.9199L27.1382 34.9315L27.1148 34.9546L19.4336 43.904H19.8765L22.6623 40.7515L20.0397 43.904H20.3078L26.8001 36.0747L27.0216 35.4742L25.2033 37.5297L27.0799 35.2894L27.2198 34.9315L27.1964 34.9199Z" fill="white"/>
<path fill-rule="evenodd" clip-rule="evenodd" d="M26.0766 37.9917L26.0417 38.0032L26.0184 38.0263L20.7266 43.9041H21.0063L25.9018 38.4536L26.0766 37.9917Z" fill="white"/>
<path fill-rule="evenodd" clip-rule="evenodd" d="M25.3189 40.0239L25.2955 40.0355L25.2722 40.0586L22.5098 43.8924H22.7545L25.0508 40.7052L25.3189 40.0239Z" fill="white"/>
<path fill-rule="evenodd" clip-rule="evenodd" d="M24.1887 43.0034L23.3262 43.9041H23.6176L24.0139 43.5L24.1887 43.0034Z" fill="white"/>
<path fill-rule="evenodd" clip-rule="evenodd" d="M29.7713 27.8872L29.7364 27.8988L29.713 27.9219L21.1226 37.3909L19.8754 38.9383L19.8405 38.973H19.7939H19.7589L19.7356 38.9614L19.7239 38.9383V38.9268L17.5443 41.3287L20.7496 36.5133L20.7613 36.4787L20.7496 36.4094L20.7263 36.3863L20.6914 36.3632H20.6214L20.5981 36.3863L17.7308 39.6774L20.2135 36.19L20.2368 36.1553L20.2251 36.0745L20.1668 36.0283H20.0853L20.0503 36.0629L18.1737 38.1877L20.0386 35.7858L20.0619 35.7512L20.0503 35.6819L19.992 35.6357H19.9221L19.8871 35.6588L16.9964 38.8806L19.6773 35.0698L19.7006 35.0237L19.689 34.9544L19.6307 34.9082H19.5607L19.5258 34.9313L17.824 36.7096L20.0853 34.0306L20.1086 33.9844L20.0969 33.9151L20.0386 33.8689H19.9687L19.9337 33.9035L17.148 36.929L19.5724 33.8227L19.5957 33.7765L19.584 33.7072L19.5258 33.661H19.4558L19.4209 33.6957L15.6094 38.0491L15.691 38.2685L17.2179 36.5249L15.7492 38.4187L15.8425 38.6843L16.9148 37.5064L15.8658 38.7535L15.9474 38.9845L18.7565 36.0514L16.2038 39.7005L16.3087 39.9892L18.162 37.9337L16.402 40.2086L16.4952 40.4626L18.9546 37.6796L16.6584 40.9014L16.7517 41.167L19.7472 37.7143L16.9265 41.8714L17.0431 42.1832L21.1576 37.6565L17.078 42.2871L17.1596 42.5181L23.0109 36.1207L18.6283 41.1208L18.6049 41.167L18.6166 41.2363L18.6749 41.2825H18.7565L18.7914 41.2478L25.2372 34.0421L17.4627 43.3264L17.5443 43.5458L29.2235 29.5963L29.3401 29.2383H29.3167H29.3051L29.3634 29.169L29.5382 28.6609L23.9084 34.8273L29.8762 28.0373L29.8995 28.0027V27.9334L29.8762 27.9103H29.8296L29.7713 27.8872Z" fill="white"/>
<path fill-rule="evenodd" clip-rule="evenodd" d="M44.4584 5.104V5.24258H62.9214V5.104H44.4584ZM35.0288 25.1507L41.8125 43.8464H23.9789L16.9737 25.1507H35.0288ZM28.2916 6.16639L28.1634 6.21258L30.8326 13.5569H19.9576V13.6955H30.8676L34.9821 25.0122H16.9271L15.0738 20.0813L14.9456 20.1275L16.7756 25.0122H0.142578V25.1507H16.8339L23.8391 43.8464H11.0176V43.985H23.8857L26.5083 50.9598L26.6365 50.9136L24.0372 43.985H41.8708L43.0131 47.149L43.1413 47.1029L42.0107 43.985H50.3796V43.8464H41.964L35.1803 25.1507H62.9214V25.0122H35.1337L31.0191 13.6955H56.0211V13.5569H30.9725L28.2916 6.16639Z" fill="white"/>
<path fill-rule="evenodd" clip-rule="evenodd" d="M56.7911 3.17529L40.5544 47.3682L40.6826 47.4144L56.9193 3.22148L56.7911 3.17529ZM36.8944 8.90293L22.0215 48.6038L22.1497 48.65L37.0227 8.94912L36.8944 8.90293Z" fill="white"/>
<path fill-rule="evenodd" clip-rule="evenodd" d="M10.1184 22.8178L9.99023 22.864L19.0702 47.957L19.1984 47.9108L10.1184 22.8178ZM23.0565 8.90283L22.9283 8.94902L37.6031 49.2042L37.7313 49.158L23.0565 8.90283Z" fill="white"/>
<path fill-rule="evenodd" clip-rule="evenodd" d="M30.5508 8.90311L17.1465 45.463L17.2747 45.5092L30.679 8.9493L30.5508 8.90311ZM51.3683 0.71582L35.0383 45.463L35.1665 45.5092L51.4965 0.762011L51.3683 0.71582Z" fill="white"/>
<path fill-rule="evenodd" clip-rule="evenodd" d="M49.6714 22.7485L35.7776 38.5688L38.7498 34.481L38.6566 34.2385L36.3254 36.9175L38.54 33.9613L38.4584 33.7419H38.4468L38.4351 33.7535L38.3302 33.8805L38.4468 33.7304L38.3768 33.511H38.3652L38.3535 33.5225L35.8941 36.3748L38.2486 33.1992L38.0621 32.7142L34.5653 36.6173L37.7124 31.7904L37.6192 31.5594L33.6678 37.6335L33.6445 37.6681L33.6562 37.7374L33.7145 37.7836H33.7844L33.8194 37.749L38.0854 32.9913L38.0971 33.0491L34.0175 38.5342L33.9942 38.5804L34.0059 38.6497L34.0641 38.6959H34.1341L34.169 38.6728L36.2671 36.2478L34.1457 39.0192L34.1224 39.0654L34.1341 39.1347L34.1924 39.1809H34.2623L34.2973 39.1578L35.2064 38.0492L34.4138 39.1116L34.3905 39.1578L34.4022 39.2271L34.4604 39.2732H34.542L34.577 39.2386L37.3045 36.0976L34.3089 40.2201L34.3789 40.4396L34.4022 40.428L34.4138 40.4165L43.284 30.3123L34.5304 40.7282L34.612 40.9592L48.3426 26.3052L48.5291 25.8087L37.0597 38.0376L49.45 23.3144L49.6714 22.7485Z" fill="white"/>
<path fill-rule="evenodd" clip-rule="evenodd" d="M13.4188 24.8042L11.7637 27.6334L11.8919 27.9798L13.7801 24.8042H13.4188Z" fill="white"/>
<path fill-rule="evenodd" clip-rule="evenodd" d="M15.0032 24.8154L11.9727 28.222L12.0659 28.4645L15.3296 24.8154H15.0032Z" fill="white"/>
<path fill-rule="evenodd" clip-rule="evenodd" d="M16.7303 25.6587L16.6954 25.6818L12.7207 30.2316L12.8023 30.451L15.32 27.5641L12.9422 30.832L13.0238 31.0745L13.2569 30.7743H13.2802L13.3385 30.7512L13.3618 30.7281L14.947 28.9382L13.1053 31.317L13.1869 31.548L17.1383 26.4555L17.1616 26.4208L17.15 26.3516L17.1266 26.3169L17.0917 26.2938H17.0101L16.9868 26.3169L14.912 28.6611L16.7303 26.2361L16.7536 26.2014L16.742 26.1321L16.7187 26.0975L16.6954 26.086H16.6721L16.8702 25.8204L16.8935 25.7857L16.8819 25.7164L16.8236 25.6702H16.7303V25.6587Z" fill="white"/>
<path fill-rule="evenodd" clip-rule="evenodd" d="M17.3141 27.0562L17.2325 27.0677L17.2092 27.0908L13.2578 31.7214L13.3394 31.9408L14.7031 30.3472L13.386 32.0563L13.4676 32.2872L17.384 27.2294L17.4073 27.1947L17.3957 27.1254L17.3724 27.1023L17.3141 27.0562Z" fill="white"/>
<path fill-rule="evenodd" clip-rule="evenodd" d="M17.4282 28.0259L17.3582 28.0374L17.3349 28.0605L13.5234 32.4717L13.605 32.6911L15.773 30.1737L13.7099 32.9914L13.7915 33.2223L17.4865 28.1875L17.5098 28.1529L17.4981 28.0836L17.4748 28.0605L17.4282 28.0259Z" fill="white"/>
<path fill-rule="evenodd" clip-rule="evenodd" d="M17.6399 29.2041H17.5699L17.5466 29.2272L13.875 33.3959L13.9566 33.6153L16.6375 30.5667L14.1664 34.2158L14.2596 34.4929L17.6049 31.0748L14.7842 35.9248L14.8774 36.1789L18.211 30.4513L18.2227 30.4166L18.1994 30.3473L18.176 30.3242L18.1411 30.3011H18.0711L18.0362 30.3242L14.7842 33.6615L17.6981 29.3427L17.7215 29.308L17.7098 29.2387L17.6865 29.2156L17.6399 29.2041Z" fill="white"/>
<path fill-rule="evenodd" clip-rule="evenodd" d="M18.9556 32.4141L18.9206 32.4372L15.0625 36.7214L15.1441 36.9408L16.671 35.2432L15.2024 37.0909L15.2956 37.3334L17.8832 34.5042L15.4471 37.726L15.5287 37.957L19.4335 32.8067L19.4568 32.7605L19.4451 32.6912L19.3868 32.645H19.3169L19.2819 32.6797L17.1256 35.0123L19.0721 32.5757L19.0954 32.5295L19.0838 32.4603L19.0255 32.4141H18.9556Z" fill="white"/>
<path fill-rule="evenodd" clip-rule="evenodd" d="M33.7699 21.3516L33.7349 21.3631L33.7116 21.3862L19.7245 38.8001L19.7012 38.8347V38.904L19.7245 38.9387L21.1232 37.3913L29.7835 26.6288H29.7369L29.702 26.6057L29.6786 26.5711V26.4903L29.702 26.4556L31.1123 24.9891L33.8631 21.5594L33.7699 21.3516Z" fill="white"/>
<path fill-rule="evenodd" clip-rule="evenodd" d="M21.1214 37.3794L19.7227 38.9268V38.9383L19.7343 38.9499L19.7576 38.973H19.7926L19.8392 38.9614L19.8742 38.9268L21.1214 37.3794Z" fill="white"/>
<path fill-rule="evenodd" clip-rule="evenodd" d="M30.3549 13.2798H30.285L30.25 13.3029L27.8838 16.2129L27.674 16.8018L28.6531 15.5893L27.5108 17.2175L27.2078 18.0605L29.5506 15.4854L26.8698 18.9959L26.625 19.6541L31.2874 14.6309L31.2058 14.4115L29.3175 16.4438L31.1475 14.2613L31.0659 14.0419L29.2476 16.2013L31.0076 13.8918L30.9144 13.6493L28.0004 16.8827L30.4132 13.4415L30.4365 13.3953L30.4132 13.326L30.3549 13.2798Z" fill="white"/>
<path fill-rule="evenodd" clip-rule="evenodd" d="M29.2472 13.2568L29.1773 13.2684L29.1423 13.303L28.7926 13.7534L28.711 13.9959V14.0074V14.019L28.7343 14.0305H28.7576L28.5245 14.4693L28 15.9013L29.3171 13.407L29.3404 13.3608L29.3171 13.2915L29.2472 13.2568Z" fill="white"/>
<path fill-rule="evenodd" clip-rule="evenodd" d="M31.2995 14.665L26.5439 19.8615L26.3574 20.3696L31.3811 14.8844L31.2995 14.665Z" fill="white"/>
<path fill-rule="evenodd" clip-rule="evenodd" d="M31.4603 15.1157L27.3807 19.5385L27.3574 19.5731V19.6539L27.3807 19.6886L27.4157 19.7117H27.4856L27.5206 19.6886L31.5302 15.3582L31.4603 15.1157Z" fill="white"/>
<path fill-rule="evenodd" clip-rule="evenodd" d="M31.6477 15.6006L25.2952 23.3029L24.8756 24.4461L30.2723 17.7831L28.2558 20.67L24.829 24.5385L24.6309 25.0697L27.8013 21.6747L28.4074 20.797L32.0324 16.7092L31.9508 16.4898L29.4331 19.342L31.7759 15.9932L31.6477 15.6006Z" fill="white"/>
<path fill-rule="evenodd" clip-rule="evenodd" d="M32.7575 18.6147L29.0509 22.8527L30.3797 20.4739L29.7619 21.1552L28.3982 23.6033L28.3865 23.638L28.3982 23.7073L28.4448 23.7535L28.5147 23.765L28.5497 23.7535L22.3837 31.2017L22.1855 31.7444L22.2089 31.7329L22.2322 31.7098L32.8391 18.8342L32.7575 18.6147Z" fill="white"/>
<path fill-rule="evenodd" clip-rule="evenodd" d="M32.1266 16.917L30.9144 19.088L23.9091 27.0443L23.7227 27.5524L24.2355 26.9865L30.4365 19.9309L30.2033 20.3466L30.8211 19.6538L31.0775 19.1919L32.4063 17.6791L32.3247 17.4597L31.5438 18.3374L32.2082 17.1479L32.1266 16.917Z" fill="white"/>
<path fill-rule="evenodd" clip-rule="evenodd" d="M30.214 20.3584L24.2345 26.9983L23.7217 27.5872L23.5352 28.0838L29.7594 21.1667L30.214 20.3584Z" fill="white"/>
<path fill-rule="evenodd" clip-rule="evenodd" d="M32.4789 17.8413L32.4556 17.8529L30.8354 19.6543L30.3809 20.4626L32.5489 18.0492L32.4789 17.8413Z" fill="white"/>
<path fill-rule="evenodd" clip-rule="evenodd" d="M24.2374 26.9868L23.7245 27.5527L23.7129 27.5758L24.2374 26.9868Z" fill="white"/>
<path fill-rule="evenodd" clip-rule="evenodd" d="M30.8322 19.666L30.2144 20.3589L29.7715 21.1672L30.3892 20.4744L30.8322 19.666Z" fill="white"/>
<path fill-rule="evenodd" clip-rule="evenodd" d="M31.9388 21.7788L30.5984 23.511L30.2604 23.8574L30.6916 23.1299L31.9388 21.7788ZM30.0272 23.8343L29.6659 24.4463L26.344 27.7951L30.0272 23.8343ZM32.8946 19.0767L32.8247 19.0998L32.8014 19.1229L30.5051 22.9913L22.0546 32.1024L21.9147 32.4835H21.938L21.9846 32.4719L22.008 32.4604L28.139 26.2824L21.6699 33.1533L21.3669 33.9962L28.5236 26.4441L21.1104 34.7006L20.9473 35.1625L20.9706 35.151L20.9939 35.1279L29.561 25.7974L28.9782 26.4672L28.9549 26.5134L28.9665 26.5942L29.0248 26.6404H29.1064L29.1414 26.6057L33.7338 21.2823L33.559 20.8319L32.0437 22.4255L33.559 20.8204L33.4891 20.624L33.4657 20.6356L33.4424 20.6587L31.7873 22.3331L33.3608 20.3007L33.2792 20.0582L31.1812 22.31L32.9878 19.2614L32.9296 19.0998L32.8946 19.0767Z" fill="white"/>
<path fill-rule="evenodd" clip-rule="evenodd" d="M33.9909 21.9639L33.9676 21.9754L31.0886 24.9778L29.7715 26.6176L29.7948 26.606L29.8181 26.5829L30.3776 26.0056L29.9463 26.4906L29.923 26.5252V26.5945L29.9463 26.6291L29.4335 27.195L29.4102 27.2296L29.4218 27.2989L29.4801 27.3451H29.55L29.585 27.322L32.6272 24.1348L29.7482 27.7377L29.7249 27.7723V27.8416L29.7482 27.8763H29.7948L29.8298 27.8994L29.8647 27.8878L29.888 27.8647L30.9487 26.6984L29.8647 27.9802L29.8414 28.0264L29.8531 28.0957L29.8997 28.1419H29.9696L30.0046 28.1188L30.5874 27.5183L29.993 28.2573L29.9696 28.292L29.9813 28.3728L30.0046 28.4075L30.0396 28.4306L30.1212 28.419L30.1445 28.3959L32.091 25.994L32.2309 25.7977V25.7515L32.1959 25.7169L32.161 25.6938H32.091L32.056 25.7169L31.9162 25.867L33.2799 24.2503L34.259 22.8184L34.2474 22.7838L31.8579 25.4166L34.1541 22.5413L33.9909 21.9639Z" fill="white"/>
<path fill-rule="evenodd" clip-rule="evenodd" d="M29.7812 27.8872L29.8283 27.9223H29.8754L29.8401 27.8989H29.7812V27.8872Z" fill="white"/>
<path fill-rule="evenodd" clip-rule="evenodd" d="M31.1017 24.9775L29.6913 26.4441L29.668 26.4787V26.5596L29.6913 26.5942L29.7262 26.6173H29.7729L31.1017 24.9775Z" fill="white"/>
<path fill-rule="evenodd" clip-rule="evenodd" d="M34.3879 23.0146L33.3389 24.2502L32.2898 25.7976V25.8207L32.2665 25.8438L32.15 25.9824L30.285 28.7423L30.2617 28.7769L30.285 28.8462L30.3433 28.8924H30.4132L30.4482 28.8693L30.5881 28.7076V28.7423L30.6114 28.8L30.6697 28.8347L30.7396 28.8231L30.7629 28.8L32.6162 26.7676L30.4482 29.4351L30.4249 29.4582V29.516L30.4482 29.5622L30.4948 29.5853H30.5298H30.5764L30.6114 29.5506L34.9474 24.5389L34.8658 24.3195L34.5045 24.7352L34.8541 24.2964L34.7609 24.0655L33.7585 25.1625L34.7376 23.9962L34.656 23.7652L31.3108 27.5413L34.3646 23.0146H34.3879Z" fill="white"/>
<path fill-rule="evenodd" clip-rule="evenodd" d="M34.3053 22.8184L33.3379 24.2503L34.3869 23.0147L34.3053 22.8184Z" fill="white"/>
<path fill-rule="evenodd" clip-rule="evenodd" d="M32.2995 25.7969L32.1602 25.9924L32.2763 25.8544L32.2995 25.8314V25.7969Z" fill="white"/>
<path fill-rule="evenodd" clip-rule="evenodd" d="M35.053 24.8154L31.1483 31.1551L31.125 31.1897L31.1367 31.259L31.16 31.2821L31.1833 31.2937H31.2182L31.2649 31.2821L31.2998 31.259L35.6242 26.3859L35.5426 26.1665L31.9293 30.2313L35.123 25.0464L35.053 24.8154Z" fill="white"/>
<path fill-rule="evenodd" clip-rule="evenodd" d="M35.6696 26.4902L31.6483 32.9569L31.625 32.9916L31.6367 33.0609L31.6716 33.084L31.7066 33.107L31.7765 33.0955L31.7998 33.0724L36.2641 28.0723L36.1825 27.8529L32.4409 32.0447L35.7512 26.7327L35.6696 26.4902Z" fill="white"/>
<path fill-rule="evenodd" clip-rule="evenodd" d="M36.332 28.2109L32.3574 34.9201L32.3457 34.9548L32.3574 35.0241L32.3807 35.0472L32.404 35.0587H32.439H32.4856L32.5205 35.0356L37.043 30.047L36.9615 29.8276L33.0567 34.1349L36.4253 28.4419L36.332 28.2109Z" fill="white"/>
<path fill-rule="evenodd" clip-rule="evenodd" d="M37.1058 30.1973L33.2128 36.2598L33.1895 36.2944L33.2011 36.3637L33.2244 36.3868L33.2477 36.3984H33.2827L33.3293 36.3868L33.3643 36.3637L37.5604 31.3982L37.4788 31.1788L34.2268 35.0357L37.1874 30.4051L37.1058 30.1973Z" fill="white"/>
<path fill-rule="evenodd" clip-rule="evenodd" d="M46.58 31.04L35.6934 43.7771L35.775 43.9965L45.9506 32.7722L46.137 32.2641L40.3674 38.6268L46.3818 31.6059L46.58 31.04Z" fill="white"/>
<path fill-rule="evenodd" clip-rule="evenodd" d="M45.6597 33.5688L36.8828 43.8925H37.1626L45.042 35.2433L45.2285 34.7352L40.8109 39.5852L45.4499 34.1347L45.6597 33.5688Z" fill="white"/>
<path fill-rule="evenodd" clip-rule="evenodd" d="M45.0173 35.3242L38.082 43.8926H38.3967L43.9566 38.2458L44.1314 37.7839L39.4924 42.4953L44.8075 35.9247L45.0173 35.3242Z" fill="white"/>
<path fill-rule="evenodd" clip-rule="evenodd" d="M43.2682 40.0933L40.8438 43.8924H41.0885L42.9418 40.994L43.2682 40.0933Z" fill="white"/>
<path fill-rule="evenodd" clip-rule="evenodd" d="M42.4297 42.3682L41.3457 43.8925H41.5905L42.1616 43.0957L42.4297 42.3682Z" fill="white"/>
<path fill-rule="evenodd" clip-rule="evenodd" d="M51.1022 5.01155L48.841 8.18716L48.8177 8.2218L48.8293 8.29108L48.8876 8.33728H48.9575L48.9925 8.31418L49.4238 7.85227L48.1533 9.35347L48.13 9.39966L48.1416 9.46895L48.1999 9.51514H48.2699L48.3048 9.48049L50.0066 7.66751L47.9901 10.0694L47.9668 10.1041V10.1734L47.9901 10.208L48.0251 10.2311H48.06H48.1067L48.1416 10.208L52.8623 5.0231L52.8739 5.01155V5H52.6059L51.312 6.44346L52.5126 5.01155H52.2329L50.9624 6.35108L52.0464 5.06929L52.0697 5.03464V5H51.8366L49.8551 7.10168L51.347 5H51.1022V5.01155Z" fill="white"/>
<path fill-rule="evenodd" clip-rule="evenodd" d="M53.4898 5.02344L46.9042 13.511L46.8809 13.5456L46.8925 13.6264L46.9158 13.6495L46.9391 13.6726H46.9741L47.0207 13.6611L47.0557 13.638L54.5155 5.03499H54.2474L49.3869 10.6356L53.7112 5.06963L53.7229 5.04653V5.02344H53.4898Z" fill="white"/>
<path fill-rule="evenodd" clip-rule="evenodd" d="M54.8189 5.02295L46.2518 14.9539L46.2285 14.9886L46.2402 15.0694L46.2635 15.0925L46.2985 15.1156H46.38L46.4034 15.0925L47.5456 13.8338L46.5083 15.0348L46.4849 15.081L46.4966 15.1502L46.5549 15.1964H46.6248L46.6598 15.1618L55.6931 5.04604H55.425L55.4017 5.08069L55.4134 5.06914V5.05759H55.1569L53.4202 6.98605L55.0753 5.06914H54.8189V5.02295Z" fill="white"/>
<path fill-rule="evenodd" clip-rule="evenodd" d="M55.7187 5.03499L44.8437 19.1L44.8204 19.1347L44.8321 19.204L44.8903 19.2502H44.9603L44.9952 19.2271L48.5736 15.1854L44.4008 20.0931L44.3775 20.1278L44.3891 20.1971L44.4474 20.2432H44.5174L44.5523 20.2202L46.6737 17.8413L44.7388 20.1162L44.7155 20.1509L44.7272 20.2202L44.7854 20.2663H44.8554L44.8903 20.2317L52.828 11.4555L43.107 23.9154L43.0837 23.95L43.0953 24.0193L43.1536 24.0655H43.2235L43.2585 24.0424L44.7272 22.4027L42.9671 24.435L42.9438 24.4697L42.9555 24.539L43.0137 24.5852H43.0837L43.1186 24.5505L44.6106 22.8877L42.6874 25.0933L42.6641 25.1279V25.2087L42.6874 25.2434L42.7223 25.2665H42.7923L42.8272 25.2434L52.6415 14.4925L52.828 13.9844L48.5386 18.6843L52.9795 13.5803L53.1777 13.026L51.6042 14.8043L53.2243 12.9451L53.4225 12.3908L45.1351 21.6521L54.3899 9.79262L54.6114 9.16905L51.7673 12.3216L54.7046 8.93809L54.9028 8.39535L49.7042 14.1923L55.1009 7.85261L55.2291 7.50618L55.2058 7.49464L55.1359 7.50618L55.1126 7.52928L46.8835 16.7905L55.9751 5.02344H55.7187V5.03499Z" fill="white"/>
<path fill-rule="evenodd" clip-rule="evenodd" d="M52.4784 14.9775L41.5918 28.3035L41.5685 28.3382L41.5802 28.4075L41.6035 28.4421L41.6384 28.4652H41.72L41.7433 28.4421L43.2236 26.7908L41.755 28.4768L41.7317 28.5114L41.7433 28.5807L41.8016 28.6269H41.8716L41.9065 28.6038L48.3756 21.4211L40.5894 30.7516L40.5778 30.7632V30.7747L40.5428 30.8671L40.5311 31.0403L40.5661 31.1327L40.6127 31.1674L40.636 31.1789L40.6943 31.202L40.7876 31.1789L40.9274 31.0981L41.1256 30.9249L41.417 30.6362L42.0231 29.9664L42.6059 29.262L43.5384 28.1419L46.126 25.1395L47.513 23.5575L40.1698 32.4607L40.1465 32.4953L40.1581 32.5762L40.1815 32.6108L40.2164 32.6339H40.263V32.6801L40.3213 32.7494L40.3679 32.7609L40.4146 32.7494L40.4495 32.7263L50.2288 21.2248L50.4387 20.659L45.6481 26.1903L50.6251 20.1509L50.8583 19.4927L49.2964 21.2479L45.5548 25.509L43.2703 28.1765L42.4427 29.1696L42.0347 29.6662L41.4286 30.359L41.0323 30.7632L40.8109 30.9595L40.7526 30.9942L40.7642 30.948L40.7876 30.9018L51.2895 18.3495L51.5226 17.7143L48.8418 20.6821L51.6042 17.5065L51.8024 16.9637L44.669 24.8623L52.257 15.5665L52.4784 14.9775Z" fill="white"/>
<path fill-rule="evenodd" clip-rule="evenodd" d="M11.763 27.6333L11.6465 27.8412L11.7864 28.1761L11.8913 27.9797L11.763 27.6333Z" fill="white"/>
<path fill-rule="evenodd" clip-rule="evenodd" d="M11.9877 28.2227L11.8711 28.3612L11.9294 28.6384L12.0809 28.4652L11.9877 28.2227Z" fill="white"/>
<path fill-rule="evenodd" clip-rule="evenodd" d="M48.0024 27.1602L34.668 41.0866L34.7379 41.3061L45.9043 29.6545L44.5172 31.2827L41.2652 35.1511L38.8758 38.0612L37.4654 39.8164L36.3115 41.2945L35.682 42.1375L35.3906 42.5763L35.2974 42.738L35.4023 43.0036L46.8834 30.2318L47.0699 29.7122L36.1366 41.8719L36.6262 41.2252L37.9083 39.5855L40.3094 36.6408L45.5896 30.3358L47.7809 27.7606L48.0024 27.1602Z" fill="white"/>
<path fill-rule="evenodd" clip-rule="evenodd" d="M31.0424 13.5565L31.0074 13.5796L30.9375 13.6604L31.0191 13.9029L31.1706 13.7066L31.1939 13.6604L31.1823 13.5911L31.124 13.5449H31.0424V13.5565Z" fill="white"/>
<path fill-rule="evenodd" clip-rule="evenodd" d="M32.5116 17.8296L32.4883 17.8411L32.5582 18.0605L32.6165 18.0028L32.6398 17.9682V17.8873L32.6165 17.8642L32.5932 17.8411H32.5116V17.8296Z" fill="white"/>
<path fill-rule="evenodd" clip-rule="evenodd" d="M32.9316 19.0879L32.9898 19.2376V19.2261L33.013 19.1915L32.9898 19.1224L32.9549 19.0994H32.9433H32.9316V19.0879Z" fill="white"/>
</svg>
