<svg xmlns="http://www.w3.org/2000/svg" viewBox="0 0 282 277" width="282" height="277" preserveAspectRatio="xMidYMid meet" style="width: 100%; height: 100%; transform: translate3d(0px, 0px, 0px);"><defs><clipPath id="__lottie_element_235"><rect width="282" height="277" x="0" y="0"></rect></clipPath></defs><g clip-path="url(#__lottie_element_235)"><g transform="matrix(1,0,0,1,22.5,15)" opacity="1" style="display: block;"><g opacity="1" transform="matrix(1,0,0,1,118.72000122070312,163.80999755859375)"><path fill="rgb(57,121,108)" fill-opacity="1" d=" M116.70999908447266,-18.27199935913086 C116.70999908447266,-18.27199935913086 116.70999908447266,2.1500000953674316 116.70999908447266,2.1500000953674316 C116.70999908447266,2.1500000953674316 95.88400268554688,18.27199935913086 95.88400268554688,18.27199935913086 C95.88400268554688,18.27199935913086 -95.88500213623047,18.270999908447266 -95.88500213623047,18.270999908447266 C-95.88500213623047,18.270999908447266 -116.70999908447266,2.1500000953674316 -116.70999908447266,2.1500000953674316 C-116.70999908447266,2.1500000953674316 -116.70999908447266,-18.27199935913086 -116.70999908447266,-18.27199935913086 C-116.70999908447266,-18.27199935913086 116.70999908447266,-18.27199935913086 116.70999908447266,-18.27199935913086z"></path></g></g><g transform="matrix(1,0,0,1,22.49999237060547,15)" opacity="1" style="display: block;"><g opacity="1" transform="matrix(1,0,0,1,118.72100067138672,123.75)"><path fill="rgb(255,255,255)" fill-opacity="1" d=" M-0.0010000000474974513,120.66500091552734 C-2.2330000400543213,120.66500091552734 -4.434999942779541,120.07499694824219 -6.36899995803833,118.95899963378906 C-6.36899995803833,118.95899963378906 -99.83699798583984,64.99500274658203 -99.83699798583984,64.99500274658203 C-103.76499938964844,62.72700119018555 -106.20500183105469,58.5 -106.20500183105469,53.96500015258789 C-106.20500183105469,53.96500015258789 -106.20500183105469,-53.9640007019043 -106.20500183105469,-53.9640007019043 C-106.20500183105469,-58.5 -103.76499938964844,-62.72600173950195 -99.83699798583984,-64.99500274658203 C-99.83699798583984,-64.99500274658203 -6.36899995803833,-118.95800018310547 -6.36899995803833,-118.95800018310547 C-4.434999942779541,-120.07499694824219 -2.2330000400543213,-120.66500091552734 -0.0010000000474974513,-120.66500091552734 C2.2320001125335693,-120.66500091552734 4.434000015258789,-120.07499694824219 6.367000102996826,-118.95899963378906 C6.367000102996826,-118.95899963378906 99.83599853515625,-64.99500274658203 99.83599853515625,-64.99500274658203 C103.76399993896484,-62.72600173950195 106.20500183105469,-58.5 106.20500183105469,-53.9640007019043 C106.20500183105469,-53.9640007019043 106.20500183105469,53.96500015258789 106.20500183105469,53.96500015258789 C106.20500183105469,58.5 103.76399993896484,62.72700119018555 99.83599853515625,64.99500274658203 C99.83599853515625,64.99500274658203 6.367000102996826,118.95899963378906 6.367000102996826,118.95899963378906 C4.434000015258789,120.07499694824219 2.2320001125335693,120.66500091552734 -0.0010000000474974513,120.66500091552734z"></path><path stroke-linecap="butt" stroke-linejoin="miter" fill-opacity="0" stroke-miterlimit="10" stroke="rgb(35,50,62)" stroke-opacity="1" stroke-width="5" d=" M-0.0010000000474974513,120.66500091552734 C-2.2330000400543213,120.66500091552734 -4.434999942779541,120.07499694824219 -6.36899995803833,118.95899963378906 C-6.36899995803833,118.95899963378906 -99.83699798583984,64.99500274658203 -99.83699798583984,64.99500274658203 C-103.76499938964844,62.72700119018555 -106.20500183105469,58.5 -106.20500183105469,53.96500015258789 C-106.20500183105469,53.96500015258789 -106.20500183105469,-53.9640007019043 -106.20500183105469,-53.9640007019043 C-106.20500183105469,-58.5 -103.76499938964844,-62.72600173950195 -99.83699798583984,-64.99500274658203 C-99.83699798583984,-64.99500274658203 -6.36899995803833,-118.95800018310547 -6.36899995803833,-118.95800018310547 C-4.434999942779541,-120.07499694824219 -2.2330000400543213,-120.66500091552734 -0.0010000000474974513,-120.66500091552734 C2.2320001125335693,-120.66500091552734 4.434000015258789,-120.07499694824219 6.367000102996826,-118.95899963378906 C6.367000102996826,-118.95899963378906 99.83599853515625,-64.99500274658203 99.83599853515625,-64.99500274658203 C103.76399993896484,-62.72600173950195 106.20500183105469,-58.5 106.20500183105469,-53.9640007019043 C106.20500183105469,-53.9640007019043 106.20500183105469,53.96500015258789 106.20500183105469,53.96500015258789 C106.20500183105469,58.5 103.76399993896484,62.72700119018555 99.83599853515625,64.99500274658203 C99.83599853515625,64.99500274658203 6.367000102996826,118.95899963378906 6.367000102996826,118.95899963378906 C4.434000015258789,120.07499694824219 2.2320001125335693,120.66500091552734 -0.0010000000474974513,120.66500091552734z"></path></g><g opacity="1" transform="matrix(1,0,0,1,118.72100067138672,123.4739990234375)"><path stroke-linecap="butt" stroke-linejoin="miter" fill-opacity="0" stroke-miterlimit="10" stroke="rgb(35,50,62)" stroke-opacity="1" stroke-width="0.85" d=" M91.41500091552734,-45.292999267578125 C91.41500091552734,-49.92499923706055 88.94200134277344,-54.20500183105469 84.93000030517578,-56.520999908447266 C84.93000030517578,-56.520999908447266 6.48199987411499,-101.81400299072266 6.48199987411499,-101.81400299072266 C4.47599983215332,-102.97200012207031 2.236999988555908,-103.5510025024414 -0.0010000000474974513,-103.5510025024414 C-2.240000009536743,-103.5510025024414 -4.479000091552734,-102.97200012207031 -6.484000205993652,-101.81400299072266 C-6.484000205993652,-101.81400299072266 -84.93299865722656,-56.520999908447266 -84.93299865722656,-56.520999908447266 C-88.94400024414062,-54.20500183105469 -91.41500091552734,-49.92499923706055 -91.41500091552734,-45.292999267578125 C-91.41500091552734,-45.292999267578125 -91.41500091552734,45.29199981689453 -91.41500091552734,45.29199981689453 C-91.41500091552734,49.92399978637695 -88.94400024414062,54.20500183105469 -84.93299865722656,56.520999908447266 C-84.93299865722656,56.520999908447266 -6.484000205993652,101.81199645996094 -6.484000205993652,101.81199645996094 C-4.478000164031982,102.97100067138672 -2.240000009536743,103.5510025024414 -0.0010000000474974513,103.5510025024414 C2.236999988555908,103.5510025024414 4.47599983215332,102.97100067138672 6.48199987411499,101.81199645996094 C6.48199987411499,101.81199645996094 84.93000030517578,56.520999908447266 84.93000030517578,56.520999908447266 C88.94200134277344,54.20500183105469 91.41500091552734,49.92399978637695 91.41500091552734,45.29199981689453 C91.41500091552734,45.29199981689453 91.41500091552734,-45.292999267578125 91.41500091552734,-45.292999267578125z"></path></g><g opacity="1" transform="matrix(1,0,0,1,118.71900177001953,178.3800048828125)"><path fill="rgb(35,50,62)" fill-opacity="1" d=" M-92.09200286865234,-54.63199996948242 C-94.18699645996094,-54.63199996948242 -95.88500213623047,-52.93299865722656 -95.88500213623047,-50.8380012512207 C-95.88500213623047,-50.8380012512207 -95.88500213623047,-6.908999919891357 -95.88500213623047,-6.908999919891357 C-95.88500213623047,-2.183000087738037 -93.36399841308594,2.184999942779541 -89.2699966430664,4.547999858856201 C-89.2699966430664,4.547999858856201 -6.614999771118164,52.26900100708008 -6.614999771118164,52.26900100708008 C-2.5220000743865967,54.63199996948242 2.5220000743865967,54.63199996948242 6.614999771118164,52.26900100708008 C6.614999771118164,52.26900100708008 89.2699966430664,4.548999786376953 89.2699966430664,4.548999786376953 C93.36299896240234,2.184999942779541 95.88500213623047,-2.181999921798706 95.88500213623047,-6.908999919891357 C95.88500213623047,-6.908999919891357 95.88500213623047,-50.8380012512207 95.88500213623047,-50.8380012512207 C95.88500213623047,-52.93299865722656 94.18699645996094,-54.63199996948242 92.09200286865234,-54.63199996948242 C92.09200286865234,-54.63199996948242 -92.09200286865234,-54.63199996948242 -92.09200286865234,-54.63199996948242z"></path></g><g opacity="1" transform="matrix(1,0,0,1,118.72000122070312,177.0279998779297)"><path fill="rgb(118,120,130)" fill-opacity="1" d=" M-7.205999851226807,53.27899932861328 C-7.205999851226807,53.27899932861328 -8.12399959564209,52.74800109863281 -8.12399959564209,52.74800109863281 C-8.12399959564209,52.74800109863281 13.923999786376953,-8.01200008392334 13.923999786376953,-8.01200008392334 C13.923999786376953,-8.01200008392334 -5.854000091552734,-8.01200008392334 -5.854000091552734,-8.01200008392334 C-5.854000091552734,-8.01200008392334 -18.858999252319336,27.827999114990234 -18.858999252319336,27.827999114990234 C-18.858999252319336,27.827999114990234 -19.350000381469727,27.64900016784668 -19.350000381469727,27.64900016784668 C-19.350000381469727,27.64900016784668 -19.402000427246094,27.667999267578125 -19.402000427246094,27.667999267578125 C-19.402000427246094,27.667999267578125 -10.96500015258789,51.10900115966797 -10.96500015258789,51.10900115966797 C-10.96500015258789,51.10900115966797 -11.432000160217285,50.8390007019043 -11.432000160217285,50.8390007019043 C-11.432000160217285,50.8390007019043 -19.729999542236328,27.78499984741211 -19.729999542236328,27.78499984741211 C-19.729999542236328,27.78499984741211 -19.841999053955078,27.826000213623047 -19.841999053955078,27.826000213623047 C-19.841999053955078,27.826000213623047 -19.913000106811523,27.628000259399414 -19.913000106811523,27.628000259399414 C-19.913000106811523,27.628000259399414 -25.423999786376953,42.76100158691406 -25.423999786376953,42.76100158691406 C-25.423999786376953,42.76100158691406 -25.729999542236328,42.58399963378906 -25.729999542236328,42.58399963378906 C-25.729999542236328,42.58399963378906 -20.09600067138672,27.114999771118164 -20.09600067138672,27.114999771118164 C-20.09600067138672,27.114999771118164 -32.68000030517578,-8.01200008392334 -32.68000030517578,-8.01200008392334 C-32.68000030517578,-8.01200008392334 -47.112998962402344,-8.01200008392334 -47.112998962402344,-8.01200008392334 C-47.112998962402344,-8.01200008392334 -50.20199966430664,0.47200000286102295 -50.20199966430664,0.47200000286102295 C-50.20199966430664,0.47200000286102295 -37.48400115966797,35.797000885009766 -37.48400115966797,35.797000885009766 C-37.48400115966797,35.797000885009766 -37.95199966430664,35.52799987792969 -37.95199966430664,35.52799987792969 C-37.95199966430664,35.52799987792969 -50.38800048828125,0.9829999804496765 -50.38800048828125,0.9829999804496765 C-50.38800048828125,0.9829999804496765 -58.62300109863281,23.593000411987305 -58.62300109863281,23.593000411987305 C-58.62300109863281,23.593000411987305 -58.92900085449219,23.41699981689453 -58.92900085449219,23.41699981689453 C-58.92900085449219,23.41699981689453 -50.573001861572266,0.47099998593330383 -50.573001861572266,0.47099998593330383 C-50.573001861572266,0.47099998593330383 -53.62699890136719,-8.01200008392334 -53.62699890136719,-8.01200008392334 C-53.62699890136719,-8.01200008392334 -67.1500015258789,-8.01200008392334 -67.1500015258789,-8.01200008392334 C-67.1500015258789,-8.01200008392334 -75.15499877929688,14.048999786376953 -75.15499877929688,14.048999786376953 C-75.15499877929688,14.048999786376953 -76.13999938964844,13.479999542236328 -76.13999938964844,13.479999542236328 C-76.13999938964844,13.479999542236328 -68.31199645996094,-8.01200008392334 -68.31199645996094,-8.01200008392334 C-68.31199645996094,-8.01200008392334 -92.74299621582031,-8.01200008392334 -92.74299621582031,-8.01200008392334 C-92.74299621582031,-8.01200008392334 -87.36499786376953,6.999000072479248 -87.36499786376953,6.999000072479248 C-87.36499786376953,6.999000072479248 -88.83000183105469,6.1529998779296875 -88.83000183105469,6.1529998779296875 C-88.83000183105469,6.1529998779296875 -93.90699768066406,-8.01200008392334 -93.90699768066406,-8.01200008392334 C-93.90699768066406,-8.01200008392334 -95.88500213623047,-8.01200008392334 -95.88500213623047,-8.01200008392334 C-95.88500213623047,-8.01200008392334 -95.88500213623047,-8.359999656677246 -95.88500213623047,-8.359999656677246 C-95.88500213623047,-8.359999656677246 -94.03199768066406,-8.359999656677246 -94.03199768066406,-8.359999656677246 C-94.03199768066406,-8.359999656677246 -95.88500213623047,-13.531999588012695 -95.88500213623047,-13.531999588012695 C-95.88500213623047,-13.531999588012695 -95.88500213623047,-16.774999618530273 -95.88500213623047,-16.774999618530273 C-95.88500213623047,-16.774999618530273 -92.86799621582031,-8.359999656677246 -92.86799621582031,-8.359999656677246 C-92.86799621582031,-8.359999656677246 -68.18499755859375,-8.359999656677246 -68.18499755859375,-8.359999656677246 C-68.18499755859375,-8.359999656677246 -60.926998138427734,-28.290000915527344 -60.926998138427734,-28.290000915527344 C-60.926998138427734,-28.290000915527344 -67.88300323486328,-47.6150016784668 -67.88300323486328,-47.6150016784668 C-67.88300323486328,-47.6150016784668 -95.88500213623047,-47.6150016784668 -95.88500213623047,-47.6150016784668 C-95.88500213623047,-47.6150016784668 -95.88500213623047,-47.9640007019043 -95.88500213623047,-47.9640007019043 C-95.88500213623047,-47.9640007019043 -68.00800323486328,-47.9640007019043 -68.00800323486328,-47.9640007019043 C-68.00800323486328,-47.9640007019043 -69.9229965209961,-53.27899932861328 -69.9229965209961,-53.27899932861328 C-69.9229965209961,-53.27899932861328 -69.5530014038086,-53.27899932861328 -69.5530014038086,-53.27899932861328 C-69.5530014038086,-53.27899932861328 -67.63899993896484,-47.9640007019043 -67.63899993896484,-47.9640007019043 C-67.63899993896484,-47.9640007019043 -53.763999938964844,-47.9640007019043 -53.763999938964844,-47.9640007019043 C-53.763999938964844,-47.9640007019043 -51.834999084472656,-53.27899932861328 -51.834999084472656,-53.27899932861328 C-51.834999084472656,-53.27899932861328 -50.7239990234375,-53.27899932861328 -50.7239990234375,-53.27899932861328 C-50.7239990234375,-53.27899932861328 -52.65299987792969,-47.9640007019043 -52.65299987792969,-47.9640007019043 C-52.65299987792969,-47.9640007019043 -47,-47.9640007019043 -47,-47.9640007019043 C-47,-47.9640007019043 -48.915000915527344,-53.27899932861328 -48.915000915527344,-53.27899932861328 C-48.915000915527344,-53.27899932861328 -47.78799819946289,-53.27899932861328 -47.78799819946289,-53.27899932861328 C-47.78799819946289,-53.27899932861328 -45.882999420166016,-47.9640007019043 -45.882999420166016,-47.9640007019043 C-45.882999420166016,-47.9640007019043 -32.93299865722656,-47.9640007019043 -32.93299865722656,-47.9640007019043 C-32.93299865722656,-47.9640007019043 -30.9950008392334,-53.27899932861328 -30.9950008392334,-53.27899932861328 C-30.9950008392334,-53.27899932861328 -30.625999450683594,-53.27899932861328 -30.625999450683594,-53.27899932861328 C-30.625999450683594,-53.27899932861328 -32.56100082397461,-47.9640007019043 -32.56100082397461,-47.9640007019043 C-32.56100082397461,-47.9640007019043 7.249000072479248,-47.9640007019043 7.249000072479248,-47.9640007019043 C7.249000072479248,-47.9640007019043 9.184000015258789,-53.27899932861328 9.184000015258789,-53.27899932861328 C9.184000015258789,-53.27899932861328 10.572999954223633,-53.27899932861328 10.572999954223633,-53.27899932861328 C10.572999954223633,-53.27899932861328 8.642999649047852,-47.9640007019043 8.642999649047852,-47.9640007019043 C8.642999649047852,-47.9640007019043 22.128000259399414,-47.9640007019043 22.128000259399414,-47.9640007019043 C22.128000259399414,-47.9640007019043 20.21500015258789,-53.27899932861328 20.21500015258789,-53.27899932861328 C20.21500015258789,-53.27899932861328 20.58300018310547,-53.27899932861328 20.58300018310547,-53.27899932861328 C20.58300018310547,-53.27899932861328 22.496999740600586,-47.9640007019043 22.496999740600586,-47.9640007019043 C22.496999740600586,-47.9640007019043 28.964000701904297,-47.9640007019043 28.964000701904297,-47.9640007019043 C28.964000701904297,-47.9640007019043 30.899999618530273,-53.27899932861328 30.899999618530273,-53.27899932861328 C30.899999618530273,-53.27899932861328 31.270000457763672,-53.27899932861328 31.270000457763672,-53.27899932861328 C31.270000457763672,-53.27899932861328 29.33300018310547,-47.9640007019043 29.33300018310547,-47.9640007019043 C29.33300018310547,-47.9640007019043 43.1349983215332,-47.9640007019043 43.1349983215332,-47.9640007019043 C43.1349983215332,-47.9640007019043 41.222999572753906,-53.27899932861328 41.222999572753906,-53.27899932861328 C41.222999572753906,-53.27899932861328 41.59199905395508,-53.27899932861328 41.59199905395508,-53.27899932861328 C41.59199905395508,-53.27899932861328 43.50600051879883,-47.9640007019043 43.50600051879883,-47.9640007019043 C43.50600051879883,-47.9640007019043 69.31600189208984,-47.9640007019043 69.31600189208984,-47.9640007019043 C69.31600189208984,-47.9640007019043 71.25299835205078,-53.27899932861328 71.25299835205078,-53.27899932861328 C71.25299835205078,-53.27899932861328 71.6240005493164,-53.27899932861328 71.6240005493164,-53.27899932861328 C71.6240005493164,-53.27899932861328 69.68800354003906,-47.9640007019043 69.68800354003906,-47.9640007019043 C69.68800354003906,-47.9640007019043 83.11799621582031,-47.9640007019043 83.11799621582031,-47.9640007019043 C83.11799621582031,-47.9640007019043 81.21399688720703,-53.27899932861328 81.21399688720703,-53.27899932861328 C81.21399688720703,-53.27899932861328 82.3219985961914,-53.27899932861328 82.3219985961914,-53.27899932861328 C82.3219985961914,-53.27899932861328 84.22799682617188,-47.9640007019043 84.22799682617188,-47.9640007019043 C84.22799682617188,-47.9640007019043 89.71700286865234,-47.9640007019043 89.71700286865234,-47.9640007019043 C89.71700286865234,-47.9640007019043 91.64600372314453,-53.27899932861328 91.64600372314453,-53.27899932861328 C91.64600372314453,-53.27899932861328 92.75800323486328,-53.27899932861328 92.75800323486328,-53.27899932861328 C92.75800323486328,-53.27899932861328 90.8290023803711,-47.9640007019043 90.8290023803711,-47.9640007019043 C90.8290023803711,-47.9640007019043 95.88500213623047,-47.9640007019043 95.88500213623047,-47.9640007019043 C95.88500213623047,-47.9640007019043 95.88500213623047,-47.6150016784668 95.88500213623047,-47.6150016784668 C95.88500213623047,-47.6150016784668 90.7020034790039,-47.6150016784668 90.7020034790039,-47.6150016784668 C90.7020034790039,-47.6150016784668 87.50800323486328,-38.8120002746582 87.50800323486328,-38.8120002746582 C87.50800323486328,-38.8120002746582 95.88500213623047,-15.437000274658203 95.88500213623047,-15.437000274658203 C95.88500213623047,-15.437000274658203 95.88500213623047,-12.340999603271484 95.88500213623047,-12.340999603271484 C95.88500213623047,-12.340999603271484 86.9489974975586,-37.27399826049805 86.9489974975586,-37.27399826049805 C86.9489974975586,-37.27399826049805 76.45800018310547,-8.359999656677246 76.45800018310547,-8.359999656677246 C76.45800018310547,-8.359999656677246 95.88500213623047,-8.359999656677246 95.88500213623047,-8.359999656677246 C95.88500213623047,-8.359999656677246 95.88500213623047,-8.01200008392334 95.88500213623047,-8.01200008392334 C95.88500213623047,-8.01200008392334 76.33100128173828,-8.01200008392334 76.33100128173828,-8.01200008392334 C76.33100128173828,-8.01200008392334 67.0719985961914,17.500999450683594 67.0719985961914,17.500999450683594 C67.0719985961914,17.500999450683594 67.43499755859375,18.506000518798828 67.43499755859375,18.506000518798828 C67.43499755859375,18.506000518798828 67.12799835205078,18.683000564575195 67.12799835205078,18.683000564575195 C67.12799835205078,18.683000564575195 66.88700103759766,18.01300048828125 66.88700103759766,18.01300048828125 C66.88700103759766,18.01300048828125 66.51599884033203,19.035999298095703 66.51599884033203,19.035999298095703 C66.51599884033203,19.035999298095703 65.11100006103516,19.847999572753906 65.11100006103516,19.847999572753906 C65.11100006103516,19.847999572753906 66.33300018310547,16.47599983215332 66.33300018310547,16.47599983215332 C66.33300018310547,16.47599983215332 57.51900100708008,-8.01200008392334 57.51900100708008,-8.01200008392334 C57.51900100708008,-8.01200008392334 55.137001037597656,-8.01200008392334 55.137001037597656,-8.01200008392334 C55.137001037597656,-8.01200008392334 46.18199920654297,16.576000213623047 46.18199920654297,16.576000213623047 C46.18199920654297,16.576000213623047 50.395999908447266,28.343000411987305 50.395999908447266,28.343000411987305 C50.395999908447266,28.343000411987305 49.47800064086914,28.87299919128418 49.47800064086914,28.87299919128418 C49.47800064086914,28.87299919128418 45.62200164794922,18.111000061035156 45.62200164794922,18.111000061035156 C45.62200164794922,18.111000061035156 39.632999420166016,34.55699920654297 39.632999420166016,34.55699920654297 C39.632999420166016,34.55699920654297 39.16299819946289,34.827999114990234 39.16299819946289,34.827999114990234 C39.16299819946289,34.827999114990234 45.43899917602539,17.599000930786133 45.43899917602539,17.599000930786133 C45.43899917602539,17.599000930786133 36.263999938964844,-8.01200008392334 36.263999938964844,-8.01200008392334 C36.263999938964844,-8.01200008392334 15.03600025177002,-8.01200008392334 15.03600025177002,-8.01200008392334 C15.03600025177002,-8.01200008392334 -7.205999851226807,53.27899932861328 -7.205999851226807,53.27899932861328z M-15.888999938964844,16.58300018310547 C-15.888999938964844,16.58300018310547 -19.354000091552734,26.091999053955078 -19.354000091552734,26.091999053955078 C-19.354000091552734,26.091999053955078 -19.34600067138672,26.110000610351562 -19.34600067138672,26.110000610351562 C-19.34600067138672,26.110000610351562 -15.888999938964844,16.58300018310547 -15.888999938964844,16.58300018310547z M-31.56999969482422,-8.01200008392334 C-31.56999969482422,-8.01200008392334 -19.535999298095703,25.579999923706055 -19.535999298095703,25.579999923706055 C-19.535999298095703,25.579999923706055 -7.302999973297119,-8.01200008392334 -7.302999973297119,-8.01200008392334 C-7.302999973297119,-8.01200008392334 -31.56999969482422,-8.01200008392334 -31.56999969482422,-8.01200008392334z M37.374000549316406,-8.01200008392334 C37.374000549316406,-8.01200008392334 45.99700164794922,16.062999725341797 45.99700164794922,16.062999725341797 C45.99700164794922,16.062999725341797 54.76599884033203,-8.01200008392334 54.76599884033203,-8.01200008392334 C54.76599884033203,-8.01200008392334 37.374000549316406,-8.01200008392334 37.374000549316406,-8.01200008392334z M57.888999938964844,-8.01200008392334 C57.888999938964844,-8.01200008392334 66.5199966430664,15.96399974822998 66.5199966430664,15.96399974822998 C66.5199966430664,15.96399974822998 75.21900177001953,-8.01200008392334 75.21900177001953,-8.01200008392334 C75.21900177001953,-8.01200008392334 57.888999938964844,-8.01200008392334 57.888999938964844,-8.01200008392334z M-53.25600051879883,-8.01200008392334 C-53.25600051879883,-8.01200008392334 -50.387001037597656,-0.03999999910593033 -50.387001037597656,-0.03999999910593033 C-50.387001037597656,-0.03999999910593033 -47.483001708984375,-8.01200008392334 -47.483001708984375,-8.01200008392334 C-47.483001708984375,-8.01200008392334 -53.25600051879883,-8.01200008392334 -53.25600051879883,-8.01200008392334z M69.56099700927734,-47.6150016784668 C69.56099700927734,-47.6150016784668 56.520999908447266,-11.810999870300293 56.520999908447266,-11.810999870300293 C56.520999908447266,-11.810999870300293 57.762001037597656,-8.359999656677246 57.762001037597656,-8.359999656677246 C57.762001037597656,-8.359999656677246 75.34600067138672,-8.359999656677246 75.34600067138672,-8.359999656677246 C75.34600067138672,-8.359999656677246 86.39800262451172,-38.814998626708984 86.39800262451172,-38.814998626708984 C86.39800262451172,-38.814998626708984 83.24299621582031,-47.6150016784668 83.24299621582031,-47.6150016784668 C83.24299621582031,-47.6150016784668 69.56099700927734,-47.6150016784668 69.56099700927734,-47.6150016784668z M56.334999084472656,-11.300000190734863 C56.334999084472656,-11.300000190734863 55.263999938964844,-8.359999656677246 55.263999938964844,-8.359999656677246 C55.263999938964844,-8.359999656677246 57.393001556396484,-8.359999656677246 57.393001556396484,-8.359999656677246 C57.393001556396484,-8.359999656677246 56.334999084472656,-11.300000190734863 56.334999084472656,-11.300000190734863z M26.21299934387207,-39.165000915527344 C26.21299934387207,-39.165000915527344 37.24700164794922,-8.359999656677246 37.24700164794922,-8.359999656677246 C37.24700164794922,-8.359999656677246 54.89400100708008,-8.359999656677246 54.89400100708008,-8.359999656677246 C54.89400100708008,-8.359999656677246 56.150001525878906,-11.812000274658203 56.150001525878906,-11.812000274658203 C56.150001525878906,-11.812000274658203 43.2599983215332,-47.6150016784668 43.2599983215332,-47.6150016784668 C43.2599983215332,-47.6150016784668 29.20800018310547,-47.6150016784668 29.20800018310547,-47.6150016784668 C29.20800018310547,-47.6150016784668 26.117000579833984,-39.13100051879883 26.117000579833984,-39.13100051879883 C26.117000579833984,-39.13100051879883 26.21299934387207,-39.165000915527344 26.21299934387207,-39.165000915527344z M25.716999053955078,-37.45000076293945 C25.716999053955078,-37.45000076293945 15.16100025177002,-8.359999656677246 15.16100025177002,-8.359999656677246 C15.16100025177002,-8.359999656677246 36.138999938964844,-8.359999656677246 36.138999938964844,-8.359999656677246 C36.138999938964844,-8.359999656677246 25.716999053955078,-37.45000076293945 25.716999053955078,-37.45000076293945z M8.517999649047852,-47.6150016784668 C8.517999649047852,-47.6150016784668 -5.728000164031982,-8.359999656677246 -5.728000164031982,-8.359999656677246 C-5.728000164031982,-8.359999656677246 14.050999641418457,-8.359999656677246 14.050999641418457,-8.359999656677246 C14.050999641418457,-8.359999656677246 25.229999542236328,-39.16699981689453 25.229999542236328,-39.16699981689453 C25.229999542236328,-39.16699981689453 25.30299949645996,-39.14099884033203 25.30299949645996,-39.14099884033203 C25.30299949645996,-39.14099884033203 22.253000259399414,-47.6150016784668 22.253000259399414,-47.6150016784668 C22.253000259399414,-47.6150016784668 8.517999649047852,-47.6150016784668 8.517999649047852,-47.6150016784668z M-32.68899917602539,-47.6150016784668 C-32.68899917602539,-47.6150016784668 -39.277000427246094,-29.52400016784668 -39.277000427246094,-29.52400016784668 C-39.277000427246094,-29.52400016784668 -31.69499969482422,-8.359999656677246 -31.69499969482422,-8.359999656677246 C-31.69499969482422,-8.359999656677246 -7.176000118255615,-8.359999656677246 -7.176000118255615,-8.359999656677246 C-7.176000118255615,-8.359999656677246 7.119999885559082,-47.6150016784668 7.119999885559082,-47.6150016784668 C7.119999885559082,-47.6150016784668 -32.68899917602539,-47.6150016784668 -32.68899917602539,-47.6150016784668z M-39.83700180053711,-27.98900032043457 C-39.83700180053711,-27.98900032043457 -46.986000061035156,-8.359999656677246 -46.986000061035156,-8.359999656677246 C-46.986000061035156,-8.359999656677246 -32.80500030517578,-8.359999656677246 -32.80500030517578,-8.359999656677246 C-32.80500030517578,-8.359999656677246 -39.83700180053711,-27.98900032043457 -39.83700180053711,-27.98900032043457z M-52.77799987792969,-47.6150016784668 C-52.77799987792969,-47.6150016784668 -60.17399978637695,-27.23200035095215 -60.17399978637695,-27.23200035095215 C-60.17399978637695,-27.23200035095215 -53.38100051879883,-8.359999656677246 -53.38100051879883,-8.359999656677246 C-53.38100051879883,-8.359999656677246 -47.35499954223633,-8.359999656677246 -47.35499954223633,-8.359999656677246 C-47.35499954223633,-8.359999656677246 -40.020999908447266,-28.500999450683594 -40.020999908447266,-28.500999450683594 C-40.020999908447266,-28.500999450683594 -45.35900115966797,-43.40399932861328 -45.35900115966797,-43.40399932861328 C-45.35900115966797,-43.40399932861328 -46.875999450683594,-47.6150016784668 -46.875999450683594,-47.6150016784668 C-46.875999450683594,-47.6150016784668 -52.77799987792969,-47.6150016784668 -52.77799987792969,-47.6150016784668z M-60.361000061035156,-26.7189998626709 C-60.361000061035156,-26.7189998626709 -67.02300262451172,-8.359999656677246 -67.02300262451172,-8.359999656677246 C-67.02300262451172,-8.359999656677246 -53.75199890136719,-8.359999656677246 -53.75199890136719,-8.359999656677246 C-53.75199890136719,-8.359999656677246 -60.361000061035156,-26.7189998626709 -60.361000061035156,-26.7189998626709z M43.63100051879883,-47.6150016784668 C43.63100051879883,-47.6150016784668 56.33700180053711,-12.322999954223633 56.33700180053711,-12.322999954223633 C56.33700180053711,-12.322999954223633 69.18900299072266,-47.6150016784668 69.18900299072266,-47.6150016784668 C69.18900299072266,-47.6150016784668 43.63100051879883,-47.6150016784668 43.63100051879883,-47.6150016784668z M-67.51399993896484,-47.6150016784668 C-67.51399993896484,-47.6150016784668 -60.74100112915039,-28.801000595092773 -60.74100112915039,-28.801000595092773 C-60.74100112915039,-28.801000595092773 -54.236000061035156,-46.6619987487793 -54.236000061035156,-46.6619987487793 C-54.236000061035156,-46.6619987487793 -53.88999938964844,-47.6150016784668 -53.88999938964844,-47.6150016784668 C-53.88999938964844,-47.6150016784668 -67.51399993896484,-47.6150016784668 -67.51399993896484,-47.6150016784668z M-45.757999420166016,-47.6150016784668 C-45.757999420166016,-47.6150016784668 -39.46200180053711,-30.03700065612793 -39.46200180053711,-30.03700065612793 C-39.46200180053711,-30.03700065612793 -33.058998107910156,-47.6150016784668 -33.058998107910156,-47.6150016784668 C-33.058998107910156,-47.6150016784668 -45.757999420166016,-47.6150016784668 -45.757999420166016,-47.6150016784668z M22.621999740600586,-47.6150016784668 C22.621999740600586,-47.6150016784668 25.711999893188477,-39.03499984741211 25.711999893188477,-39.03499984741211 C25.711999893188477,-39.03499984741211 28.836999893188477,-47.6150016784668 28.836999893188477,-47.6150016784668 C28.836999893188477,-47.6150016784668 22.621999740600586,-47.6150016784668 22.621999740600586,-47.6150016784668z M84.35299682617188,-47.6150016784668 C84.35299682617188,-47.6150016784668 86.95600128173828,-40.35300064086914 86.95600128173828,-40.35300064086914 C86.95600128173828,-40.35300064086914 89.58999633789062,-47.6150016784668 89.58999633789062,-47.6150016784668 C89.58999633789062,-47.6150016784668 84.35299682617188,-47.6150016784668 84.35299682617188,-47.6150016784668z"></path></g><g opacity="1" transform="matrix(1,0,0,1,118.72000122070312,175.38699340820312)"><path stroke-linecap="butt" stroke-linejoin="miter" fill-opacity="0" stroke-miterlimit="10" stroke="rgb(255,255,255)" stroke-opacity="1" stroke-width="0.85" d=" M-91.41500091552734,-51.63800048828125 C-91.41500091552734,-51.63800048828125 -91.41500091552734,-6.622000217437744 -91.41500091552734,-6.622000217437744 C-91.41500091552734,-1.9889999628067017 -88.94400024414062,2.2920000553131104 -84.93199920654297,4.607999801635742 C-84.93199920654297,4.607999801635742 -6.484000205993652,49.89899826049805 -6.484000205993652,49.89899826049805 C-4.4770002365112305,51.05799865722656 -2.239000082015991,51.63800048828125 -0.0010000000474974513,51.63800048828125 C2.236999988555908,51.63800048828125 4.478000164031982,51.05799865722656 6.482999801635742,49.89899826049805 C6.482999801635742,49.89899826049805 84.93099975585938,4.607999801635742 84.93099975585938,4.607999801635742 C88.94200134277344,2.2920000553131104 91.41400146484375,-1.9889999628067017 91.41400146484375,-6.622000217437744 C91.41400146484375,-6.622000217437744 91.41400146484375,-51.63800048828125 91.41400146484375,-51.63800048828125"></path></g></g><g transform="matrix(1,0,0,1,22.5,15)" opacity="1" style="display: block;"><g opacity="1" transform="matrix(1,0,0,1,118.72000122070312,143.52200317382812)"><path fill="rgb(112,206,178)" fill-opacity="1" d=" M114.90299987792969,23.05699920654297 C114.90299987792969,23.05699920654297 -114.90299987792969,23.05699920654297 -114.90299987792969,23.05699920654297 C-116.52799987792969,23.05699920654297 -117.84500122070312,21.739999771118164 -117.84500122070312,20.115999221801758 C-117.84500122070312,20.115999221801758 -117.84500122070312,-16.482999801635742 -117.84500122070312,-16.482999801635742 C-117.84500122070312,-20.11400032043457 -114.9020004272461,-23.05699920654297 -111.27200317382812,-23.05699920654297 C-111.27200317382812,-23.05699920654297 111.27200317382812,-23.05699920654297 111.27200317382812,-23.05699920654297 C114.9020004272461,-23.05699920654297 117.84500122070312,-20.11400032043457 117.84500122070312,-16.482999801635742 C117.84500122070312,-16.482999801635742 117.84500122070312,20.115999221801758 117.84500122070312,20.115999221801758 C117.84500122070312,21.739999771118164 116.52799987792969,23.05699920654297 114.90299987792969,23.05699920654297z"></path></g><g opacity="1" transform="matrix(1,0,0,1,48.9739990234375,143.74000549316406)"><path fill="rgb(255,255,255)" fill-opacity="1" d=" M1.7890000343322754,-0.2709999978542328 C2.2669999599456787,-0.7870000004768372 2.50600004196167,-1.5429999828338623 2.50600004196167,-2.5380001068115234 C2.50600004196167,-4.425000190734863 1.6519999504089355,-5.369999885559082 -0.057999998331069946,-5.369999885559082 C-0.5040000081062317,-5.369999885559082 -0.8289999961853027,-5.275000095367432 -1.0329999923706055,-5.083000183105469 C-1.2380000352859497,-4.892000198364258 -1.3389999866485596,-4.48199987411499 -1.3389999866485596,-3.8580000400543213 C-1.3389999866485596,-3.8580000400543213 -1.3389999866485596,0.44699999690055847 -1.3389999866485596,0.44699999690055847 C-1.0720000267028809,0.48500001430511475 -0.7850000262260437,0.5040000081062317 -0.4790000021457672,0.5040000081062317 C0.5550000071525574,0.5040000081062317 1.309999942779541,0.2460000067949295 1.7890000343322754,-0.2709999978542328z M-5.4720001220703125,5.460000038146973 C-5.127999782562256,5.447000026702881 -4.866000175476074,5.406000137329102 -4.688000202178955,5.335000038146973 C-4.508999824523926,5.264999866485596 -4.36899995803833,5.113999843597412 -4.267000198364258,4.885000228881836 C-4.164999961853027,4.65500020980835 -4.113999843597412,4.290999889373779 -4.113999843597412,3.7939999103546143 C-4.113999843597412,3.7939999103546143 -4.113999843597412,-3.5339999198913574 -4.113999843597412,-3.5339999198913574 C-4.113999843597412,-4.248000144958496 -4.0879998207092285,-4.822000026702881 -4.0370001792907715,-5.255000114440918 C-4.0370001792907715,-5.255000114440918 -5.4720001220703125,-5.197999954223633 -5.4720001220703125,-5.197999954223633 C-5.4720001220703125,-5.197999954223633 -5.4720001220703125,-6.671999931335449 -5.4720001220703125,-6.671999931335449 C-5.4720001220703125,-6.671999931335449 -0.03799999877810478,-6.708000183105469 -0.03799999877810478,-6.708000183105469 C1.684000015258789,-6.7210001945495605 3.0320000648498535,-6.38100004196167 4.007999897003174,-5.685999870300293 C4.984000205993652,-4.991000175476074 5.4720001220703125,-3.934999942779541 5.4720001220703125,-2.5199999809265137 C5.4720001220703125,-1.7920000553131104 5.267000198364258,-1.0980000495910645 4.859000205993652,-0.4350000023841858 C4.451000213623047,0.2290000021457672 3.8389999866485596,0.7720000147819519 3.0230000019073486,1.1929999589920044 C2.2060000896453857,1.6139999628067017 1.2120000123977661,1.843000054359436 0.03799999877810478,1.8819999694824219 C0.03799999877810478,1.8819999694824219 -0.7080000042915344,1.899999976158142 -0.7080000042915344,1.899999976158142 C-0.7080000042915344,1.899999976158142 -1.3389999866485596,1.8819999694824219 -1.3389999866485596,1.8819999694824219 C-1.3389999866485596,1.8819999694824219 -1.3389999866485596,3.565000057220459 -1.3389999866485596,3.565000057220459 C-1.3389999866485596,4.290999889373779 -1.3650000095367432,4.872000217437744 -1.4160000085830688,5.304999828338623 C-1.0080000162124634,5.267000198364258 -0.4659999907016754,5.249000072479248 0.20999999344348907,5.249000072479248 C0.20999999344348907,5.249000072479248 0.20999999344348907,6.7210001945495605 0.20999999344348907,6.7210001945495605 C0.20999999344348907,6.7210001945495605 -5.4720001220703125,6.7210001945495605 -5.4720001220703125,6.7210001945495605 C-5.4720001220703125,6.7210001945495605 -5.4720001220703125,5.460000038146973 -5.4720001220703125,5.460000038146973z"></path></g><g opacity="1" transform="matrix(1,0,0,1,62.99800109863281,143.74000549316406)"><path fill="rgb(255,255,255)" fill-opacity="1" d=" M1.3680000305175781,-0.5569999814033508 C1.8329999446868896,-1.0230000019073486 2.066999912261963,-1.7549999952316284 2.066999912261963,-2.749000072479248 C2.066999912261963,-3.808000087738037 1.7949999570846558,-4.508999824523926 1.253000020980835,-4.854000091552734 C0.7110000252723694,-5.197999954223633 0.11500000208616257,-5.369999885559082 -0.5360000133514404,-5.369999885559082 C-0.9819999933242798,-5.369999885559082 -1.3070000410079956,-5.275000095367432 -1.5110000371932983,-5.083000183105469 C-1.715999960899353,-4.892000198364258 -1.8170000314712524,-4.48199987411499 -1.8170000314712524,-3.8580000400543213 C-1.8170000314712524,-3.8580000400543213 -1.8170000314712524,0.06400000303983688 -1.8170000314712524,0.06400000303983688 C-1.434999942779541,0.11500000208616257 -1.128999948501587,0.14100000262260437 -0.8989999890327454,0.14100000262260437 C0.1469999998807907,0.14100000262260437 0.9020000100135803,-0.09200000017881393 1.3680000305175781,-0.5569999814033508z M-5.949999809265137,5.460000038146973 C-5.605999946594238,5.447000026702881 -5.343999862670898,5.406000137329102 -5.165999889373779,5.335000038146973 C-4.986999988555908,5.264999866485596 -4.8470001220703125,5.113999843597412 -4.744999885559082,4.885000228881836 C-4.64300012588501,4.65500020980835 -4.5920000076293945,4.290999889373779 -4.5920000076293945,3.7939999103546143 C-4.5920000076293945,3.7939999103546143 -4.5920000076293945,-3.5339999198913574 -4.5920000076293945,-3.5339999198913574 C-4.5920000076293945,-4.248000144958496 -4.565999984741211,-4.822000026702881 -4.514999866485596,-5.255000114440918 C-4.514999866485596,-5.255000114440918 -5.949999809265137,-5.197999954223633 -5.949999809265137,-5.197999954223633 C-5.949999809265137,-5.197999954223633 -5.949999809265137,-6.671999931335449 -5.949999809265137,-6.671999931335449 C-5.949999809265137,-6.671999931335449 -0.515999972820282,-6.708000183105469 -0.515999972820282,-6.708000183105469 C1.2309999465942383,-6.7210001945495605 2.5799999237060547,-6.415999889373779 3.5299999713897705,-5.791999816894531 C4.480000019073486,-5.165999889373779 4.954999923706055,-4.1519999504089355 4.954999923706055,-2.749000072479248 C4.954999923706055,-1.86899995803833 4.671000003814697,-1.0880000591278076 4.104000091552734,-0.4059999883174896 C3.5360000133514404,0.2770000100135803 2.697999954223633,0.7789999842643738 1.5880000591278076,1.0980000495910645 C1.5880000591278076,1.0980000495910645 1.5880000591278076,1.1169999837875366 1.5880000591278076,1.1169999837875366 C1.8179999589920044,1.2059999704360962 2.052999973297119,1.3619999885559082 2.2960000038146973,1.5850000381469727 C2.5380001068115234,1.809000015258789 2.742000102996826,2.053999900817871 2.9079999923706055,2.322000026702881 C2.9079999923706055,2.322000026702881 3.806999921798706,3.6600000858306885 3.806999921798706,3.6600000858306885 C4.241000175476074,4.336999893188477 4.60099983215332,4.802000045776367 4.888000011444092,5.057000160217285 C5.175000190734863,5.311999797821045 5.53000020980835,5.447000026702881 5.949999809265137,5.460000038146973 C5.949999809265137,5.460000038146973 5.949999809265137,6.7210001945495605 5.949999809265137,6.7210001945495605 C5.949999809265137,6.7210001945495605 2.7929999828338623,6.7210001945495605 2.7929999828338623,6.7210001945495605 C2.5759999752044678,6.567999839782715 2.359999895095825,6.3480000495910645 2.1429998874664307,6.060999870300293 C1.9259999990463257,5.77400016784668 1.6770000457763672,5.395999908447266 1.3969999551773071,4.922999858856201 C1.3969999551773071,4.922999858856201 -0.01899999938905239,2.628000020980835 -0.01899999938905239,2.628000020980835 C-0.33799999952316284,2.118000030517578 -0.6060000061988831,1.7480000257492065 -0.8230000138282776,1.5180000066757202 C-0.8230000138282776,1.5180000066757202 -1.8170000314712524,1.5180000066757202 -1.8170000314712524,1.5180000066757202 C-1.8170000314712524,1.5180000066757202 -1.8170000314712524,3.565000057220459 -1.8170000314712524,3.565000057220459 C-1.8170000314712524,4.290999889373779 -1.843000054359436,4.872000217437744 -1.8940000534057617,5.304999828338623 C-1.4859999418258667,5.267000198364258 -0.9440000057220459,5.249000072479248 -0.2680000066757202,5.249000072479248 C-0.2680000066757202,5.249000072479248 -0.2680000066757202,6.7210001945495605 -0.2680000066757202,6.7210001945495605 C-0.2680000066757202,6.7210001945495605 -5.949999809265137,6.7210001945495605 -5.949999809265137,6.7210001945495605 C-5.949999809265137,6.7210001945495605 -5.949999809265137,5.460000038146973 -5.949999809265137,5.460000038146973z"></path></g><g opacity="1" transform="matrix(1,0,0,1,77.91100311279297,143.76499938964844)"><path fill="rgb(255,255,255)" fill-opacity="1" d=" M2.190000057220459,4.821000099182129 C2.7130000591278076,4.297999858856201 3.0899999141693115,3.634999990463257 3.319000005722046,2.8320000171661377 C3.5490000247955322,2.0280001163482666 3.6640000343322754,1.1929999589920044 3.6640000343322754,0.32499998807907104 C3.6640000343322754,-1.4859999418258667 3.3440001010894775,-2.927000045776367 2.7070000171661377,-3.999000072479248 C2.069000005722046,-5.070000171661377 1.125,-5.605999946594238 -0.12399999797344208,-5.605999946594238 C-0.9670000076293945,-5.605999946594238 -1.6549999713897705,-5.3379998207092285 -2.190999984741211,-4.802999973297119 C-2.7269999980926514,-4.267000198364258 -3.1089999675750732,-3.5910000801086426 -3.3380000591278076,-2.7739999294281006 C-3.568000078201294,-1.9579999446868896 -3.683000087738037,-1.1100000143051147 -3.683000087738037,-0.23000000417232513 C-3.683000087738037,0.6629999876022339 -3.555999994277954,1.555999994277954 -3.3010001182556152,2.4489998817443848 C-3.0450000762939453,3.3420000076293945 -2.628000020980835,4.091000080108643 -2.046999931335449,4.697000026702881 C-1.4670000076293945,5.302999973297119 -0.7300000190734863,5.605999946594238 0.16200000047683716,5.605999946594238 C0.9909999966621399,5.605999946594238 1.6670000553131104,5.343999862670898 2.190000057220459,4.821000099182129z M-3.816999912261963,5.988999843597412 C-4.811999797821045,5.311999797821045 -5.539000034332275,4.445000171661377 -5.998000144958496,3.385999917984009 C-6.456999778747559,2.328000068664551 -6.686999797821045,1.1990000009536743 -6.686999797821045,0 C-6.686999797821045,-1.1349999904632568 -6.432000160217285,-2.239000082015991 -5.921000003814697,-3.309999942779541 C-5.4120001792907715,-4.38100004196167 -4.650000095367432,-5.264999866485596 -3.634999990463257,-5.960000038146973 C-2.621000051498413,-6.65500020980835 -1.399999976158142,-7.002999782562256 0.02800000086426735,-7.002999782562256 C1.4950000047683716,-7.002999782562256 2.7290000915527344,-6.65500020980835 3.7300000190734863,-5.960000038146973 C4.73199987411499,-5.264999866485596 5.474999904632568,-4.38100004196167 5.959000110626221,-3.309999942779541 C6.443999767303467,-2.239000082015991 6.686999797821045,-1.1349999904632568 6.686999797821045,0 C6.686999797821045,1.1089999675750732 6.431000232696533,2.203000068664551 5.921000003814697,3.2809998989105225 C5.410999774932861,4.359000205993652 4.64900016784668,5.249000072479248 3.634999990463257,5.949999809265137 C2.621000051498413,6.651000022888184 1.3990000486373901,7.002999782562256 -0.028999999165534973,7.002999782562256 C-1.559000015258789,7.002999782562256 -2.822000026702881,6.664999961853027 -3.816999912261963,5.988999843597412z"></path></g><g opacity="1" transform="matrix(1,0,0,1,92.5,143.76499938964844)"><path fill="rgb(255,255,255)" fill-opacity="1" d=" M-1.5980000495910645,6.754000186920166 C-2.190999984741211,6.5879998207092285 -2.7360000610351562,6.357999801635742 -3.2339999675750732,6.065000057220459 C-3.2339999675750732,6.065000057220459 -3.253000020980835,6.065000057220459 -3.253000020980835,6.065000057220459 C-3.253000020980835,6.065000057220459 -3.194999933242798,6.86899995803833 -3.194999933242798,6.86899995803833 C-3.194999933242798,6.86899995803833 -4.668000221252441,6.86899995803833 -4.668000221252441,6.86899995803833 C-4.668000221252441,6.86899995803833 -4.668000221252441,2.3919999599456787 -4.668000221252441,2.3919999599456787 C-4.668000221252441,2.3919999599456787 -3.4049999713897705,2.3919999599456787 -3.4049999713897705,2.3919999599456787 C-3.240000009536743,3.437000036239624 -2.8380000591278076,4.236999988555908 -2.200000047683716,4.791999816894531 C-1.562000036239624,5.3470001220703125 -0.7850000262260437,5.625 0.1340000033378601,5.625 C0.796999990940094,5.625 1.3459999561309814,5.449999809265137 1.7790000438690186,5.098999977111816 C2.2119998931884766,4.748000144958496 2.428999900817871,4.323999881744385 2.428999900817871,3.8259999752044678 C2.428999900817871,3.4179999828338623 2.2860000133514404,3.068000078201294 1.9989999532699585,2.7739999294281006 C1.7120000123977661,2.4809999465942383 1.3930000066757202,2.252000093460083 1.0429999828338623,2.0859999656677246 C0.6919999718666077,1.9199999570846558 0.1340000033378601,1.6829999685287476 -0.6309999823570251,1.3769999742507935 C-2.0350000858306885,0.8159999847412109 -3.1089999675750732,0.17900000512599945 -3.8550000190734863,-0.5360000133514404 C-4.6020002365112305,-1.25 -4.973999977111816,-2.187999963760376 -4.973999977111816,-3.3480000495910645 C-4.973999977111816,-3.934999942779541 -4.828000068664551,-4.505000114440918 -4.533999919891357,-5.059999942779541 C-4.241000175476074,-5.614999771118164 -3.759000062942505,-6.077000141143799 -3.0899999141693115,-6.447999954223633 C-2.4200000762939453,-6.816999912261963 -1.5570000410079956,-7.002999782562256 -0.4970000088214874,-7.002999782562256 C0.050999999046325684,-7.002999782562256 0.625,-6.922999858856201 1.2239999771118164,-6.763000011444092 C1.8229999542236328,-6.604000091552734 2.321000099182129,-6.376999855041504 2.7170000076293945,-6.084000110626221 C2.7170000076293945,-6.084000110626221 2.7360000610351562,-6.084000110626221 2.7360000610351562,-6.084000110626221 C2.7360000610351562,-6.084000110626221 2.6589999198913574,-6.868000030517578 2.6589999198913574,-6.868000030517578 C2.6589999198913574,-6.868000030517578 4.151000022888184,-6.868000030517578 4.151000022888184,-6.868000030517578 C4.151000022888184,-6.868000030517578 4.151000022888184,-2.4110000133514404 4.151000022888184,-2.4110000133514404 C4.151000022888184,-2.4110000133514404 2.8889999389648438,-2.4110000133514404 2.8889999389648438,-2.4110000133514404 C2.7230000495910645,-3.4570000171661377 2.3559999465942383,-4.254000186920166 1.7890000343322754,-4.802999973297119 C1.2209999561309814,-5.35099983215332 0.49799999594688416,-5.625 -0.382999986410141,-5.625 C-0.9570000171661377,-5.625 -1.4509999752044678,-5.4679999351501465 -1.8650000095367432,-5.1570000648498535 C-2.2799999713897705,-4.8429999351501465 -2.48799991607666,-4.451000213623047 -2.48799991607666,-3.9800000190734863 C-2.48799991607666,-3.4179999828338623 -2.250999927520752,-2.946000099182129 -1.7799999713897705,-2.563999891281128 C-1.3079999685287476,-2.180999994277954 -0.5109999775886536,-1.7599999904632568 0.6119999885559082,-1.3009999990463257 C1.9010000228881836,-0.7910000085830688 2.9489998817443848,-0.20100000500679016 3.759999990463257,0.4690000116825104 C4.568999767303467,1.1380000114440918 4.973999977111816,2.0280001163482666 4.973999977111816,3.13700008392334 C4.973999977111816,3.890000104904175 4.769999980926514,4.559999942779541 4.361999988555908,5.145999908447266 C3.9539999961853027,5.732999801635742 3.380000114440918,6.189000129699707 2.640000104904175,6.513999938964844 C1.9010000228881836,6.840000152587891 1.0460000038146973,7.002999782562256 0.07599999755620956,7.002999782562256 C-0.44699999690055847,7.002999782562256 -1.0049999952316284,6.919000148773193 -1.5980000495910645,6.754000186920166z"></path></g><g opacity="1" transform="matrix(1,0,0,1,106.00700378417969,143.74000549316406)"><path fill="rgb(255,255,255)" fill-opacity="1" d=" M1.7890000343322754,-0.2709999978542328 C2.2669999599456787,-0.7870000004768372 2.506999969482422,-1.5429999828338623 2.506999969482422,-2.5380001068115234 C2.506999969482422,-4.425000190734863 1.6519999504089355,-5.369999885559082 -0.05700000002980232,-5.369999885559082 C-0.5040000081062317,-5.369999885559082 -0.8289999961853027,-5.275000095367432 -1.0329999923706055,-5.083000183105469 C-1.2369999885559082,-4.892000198364258 -1.3389999866485596,-4.48199987411499 -1.3389999866485596,-3.8580000400543213 C-1.3389999866485596,-3.8580000400543213 -1.3389999866485596,0.44699999690055847 -1.3389999866485596,0.44699999690055847 C-1.0709999799728394,0.48500001430511475 -0.7839999794960022,0.5040000081062317 -0.4790000021457672,0.5040000081062317 C0.5550000071525574,0.5040000081062317 1.309999942779541,0.2460000067949295 1.7890000343322754,-0.2709999978542328z M-5.4720001220703125,5.460000038146973 C-5.126999855041504,5.447000026702881 -4.866000175476074,5.406000137329102 -4.686999797821045,5.335000038146973 C-4.508999824523926,5.264999866485596 -4.36899995803833,5.113999843597412 -4.267000198364258,4.885000228881836 C-4.164000034332275,4.65500020980835 -4.11299991607666,4.290999889373779 -4.11299991607666,3.7939999103546143 C-4.11299991607666,3.7939999103546143 -4.11299991607666,-3.5339999198913574 -4.11299991607666,-3.5339999198913574 C-4.11299991607666,-4.248000144958496 -4.0879998207092285,-4.822000026702881 -4.0370001792907715,-5.255000114440918 C-4.0370001792907715,-5.255000114440918 -5.4720001220703125,-5.197999954223633 -5.4720001220703125,-5.197999954223633 C-5.4720001220703125,-5.197999954223633 -5.4720001220703125,-6.671999931335449 -5.4720001220703125,-6.671999931335449 C-5.4720001220703125,-6.671999931335449 -0.039000000804662704,-6.708000183105469 -0.039000000804662704,-6.708000183105469 C1.684000015258789,-6.7210001945495605 3.0329999923706055,-6.38100004196167 4.007999897003174,-5.685999870300293 C4.984000205993652,-4.991000175476074 5.4720001220703125,-3.934999942779541 5.4720001220703125,-2.5199999809265137 C5.4720001220703125,-1.7920000553131104 5.267000198364258,-1.0980000495910645 4.860000133514404,-0.4350000023841858 C4.451000213623047,0.2290000021457672 3.8389999866485596,0.7720000147819519 3.0230000019073486,1.1929999589920044 C2.2070000171661377,1.6139999628067017 1.2120000123977661,1.843000054359436 0.03799999877810478,1.8819999694824219 C0.03799999877810478,1.8819999694824219 -0.7080000042915344,1.899999976158142 -0.7080000042915344,1.899999976158142 C-0.7080000042915344,1.899999976158142 -1.3389999866485596,1.8819999694824219 -1.3389999866485596,1.8819999694824219 C-1.3389999866485596,1.8819999694824219 -1.3389999866485596,3.565000057220459 -1.3389999866485596,3.565000057220459 C-1.3389999866485596,4.290999889373779 -1.3650000095367432,4.872000217437744 -1.4160000085830688,5.304999828338623 C-1.0069999694824219,5.267000198364258 -0.4659999907016754,5.249000072479248 0.20999999344348907,5.249000072479248 C0.20999999344348907,5.249000072479248 0.20999999344348907,6.7210001945495605 0.20999999344348907,6.7210001945495605 C0.20999999344348907,6.7210001945495605 -5.4720001220703125,6.7210001945495605 -5.4720001220703125,6.7210001945495605 C-5.4720001220703125,6.7210001945495605 -5.4720001220703125,5.460000038146973 -5.4720001220703125,5.460000038146973z"></path></g><g opacity="1" transform="matrix(1,0,0,1,119.18000030517578,143.76400756835938)"><path fill="rgb(255,255,255)" fill-opacity="1" d=" M-5.098999977111816,5.434999942779541 C-4.755000114440918,5.421999931335449 -4.49399995803833,5.38100004196167 -4.315000057220459,5.309999942779541 C-4.136000156402588,5.239999771118164 -3.996000051498413,5.090000152587891 -3.8940000534057617,4.861000061035156 C-3.7920000553131104,4.63100004196167 -3.740999937057495,4.267000198364258 -3.740999937057495,3.7699999809265137 C-3.740999937057495,3.7699999809265137 -3.740999937057495,-3.559000015258789 -3.740999937057495,-3.559000015258789 C-3.740999937057495,-4.2729997634887695 -3.7149999141693115,-4.8460001945495605 -3.6640000343322754,-5.2789998054504395 C-3.6640000343322754,-5.2789998054504395 -5.098999977111816,-5.2230000495910645 -5.098999977111816,-5.2230000495910645 C-5.098999977111816,-5.2230000495910645 -5.098999977111816,-6.697000026702881 -5.098999977111816,-6.697000026702881 C-5.098999977111816,-6.697000026702881 4.4670000076293945,-6.697000026702881 4.4670000076293945,-6.697000026702881 C4.4670000076293945,-6.697000026702881 4.583000183105469,-2.9839999675750732 4.583000183105469,-2.9839999675750732 C4.583000183105469,-2.9839999675750732 3.319999933242798,-2.9839999675750732 3.319999933242798,-2.9839999675750732 C3.319999933242798,-3.927000045776367 3.0929999351501465,-4.580999851226807 2.6410000324249268,-4.943999767303467 C2.187999963760376,-5.308000087738037 1.6430000066757202,-5.4770002365112305 1.0049999952316284,-5.452000141143799 C1.0049999952316284,-5.452000141143799 0.3149999976158142,-5.434000015258789 0.3149999976158142,-5.434000015258789 C0.008999999612569809,-5.421000003814697 -0.2329999953508377,-5.380000114440918 -0.41200000047683716,-5.309000015258789 C-0.5910000205039978,-5.238999843597412 -0.7269999980926514,-5.080999851226807 -0.8230000138282776,-4.839000225067139 C-0.9190000295639038,-4.5970001220703125 -0.9660000205039978,-4.239999771118164 -0.9660000205039978,-3.7679998874664307 C-0.9660000205039978,-3.7679998874664307 -0.9660000205039978,-0.8999999761581421 -0.9660000205039978,-0.8999999761581421 C-0.9660000205039978,-0.8999999761581421 1.2719999551773071,-0.8999999761581421 1.2719999551773071,-0.8999999761581421 C1.2589999437332153,-1.1160000562667847 1.2339999675750732,-1.6699999570846558 1.1950000524520874,-2.562999963760376 C1.1950000524520874,-2.562999963760376 2.6689999103546143,-2.562999963760376 2.6689999103546143,-2.562999963760376 C2.6689999103546143,-2.562999963760376 2.6689999103546143,2.0869998931884766 2.6689999103546143,2.0869998931884766 C2.6689999103546143,2.0869998931884766 1.406000018119812,2.0869998931884766 1.406000018119812,2.0869998931884766 C1.406000018119812,1.5759999752044678 1.3259999752044678,1.2000000476837158 1.1670000553131104,0.9580000042915344 C1.0069999694824219,0.7160000205039978 0.8009999990463257,0.5580000281333923 0.5460000038146973,0.4880000054836273 C0.29100000858306885,0.4169999957084656 -0.04899999871850014,0.3889999985694885 -0.4690000116825104,0.4020000100135803 C-0.4690000116825104,0.4020000100135803 -0.9660000205039978,0.421999990940094 -0.9660000205039978,0.421999990940094 C-0.9660000205039978,0.421999990940094 -0.9660000205039978,3.559000015258789 -0.9660000205039978,3.559000015258789 C-0.9660000205039978,4.248000144958496 -0.9919999837875366,4.809999942779541 -1.0429999828338623,5.243000030517578 C-1.0429999828338623,5.243000030517578 1.5199999809265137,5.243000030517578 1.5199999809265137,5.243000030517578 C2.1710000038146973,5.243000030517578 2.7219998836517334,5.0229997634887695 3.1760001182556152,4.583000183105469 C3.628000020980835,4.14300012588501 3.8550000190734863,3.444000005722046 3.8550000190734863,2.48799991607666 C3.8550000190734863,2.48799991607666 5.0980000495910645,2.48799991607666 5.0980000495910645,2.48799991607666 C5.0980000495910645,2.48799991607666 5.002999782562256,6.697000026702881 5.002999782562256,6.697000026702881 C5.002999782562256,6.697000026702881 -5.098999977111816,6.697000026702881 -5.098999977111816,6.697000026702881 C-5.098999977111816,6.697000026702881 -5.098999977111816,5.434999942779541 -5.098999977111816,5.434999942779541z"></path></g><g opacity="1" transform="matrix(1,0,0,1,133.32699584960938,143.76499938964844)"><path fill="rgb(255,255,255)" fill-opacity="1" d=" M-3.0220000743865967,6.103000164031982 C-4.017000198364258,5.502999782562256 -4.789000034332275,4.684000015258789 -5.336999893188477,3.6449999809265137 C-5.886000156402588,2.6050000190734863 -6.159999847412109,1.4539999961853027 -6.159999847412109,0.19200000166893005 C-6.159999847412109,-1.0199999809265137 -5.901000022888184,-2.177999973297119 -5.385000228881836,-3.2809998989105225 C-4.868000030517578,-4.385000228881836 -4.107999801635742,-5.28000020980835 -3.0999999046325684,-5.968999862670898 C-2.0920000076293945,-6.6579999923706055 -0.8790000081062317,-7.002999782562256 0.5360000133514404,-7.002999782562256 C1.0470000505447388,-7.002999782562256 1.597000002861023,-6.920000076293945 2.190999984741211,-6.754000186920166 C2.7829999923706055,-6.5879998207092285 3.3299999237060547,-6.357999801635742 3.8269999027252197,-6.065000057220459 C3.8269999027252197,-6.065000057220459 3.8459999561309814,-6.065000057220459 3.8459999561309814,-6.065000057220459 C3.8459999561309814,-6.065000057220459 3.7699999809265137,-6.868000030517578 3.7699999809265137,-6.868000030517578 C3.7699999809265137,-6.868000030517578 5.243000030517578,-6.868000030517578 5.243000030517578,-6.868000030517578 C5.243000030517578,-6.868000030517578 5.243000030517578,-2.4110000133514404 5.243000030517578,-2.4110000133514404 C5.243000030517578,-2.4110000133514404 3.999000072479248,-2.4110000133514404 3.999000072479248,-2.4110000133514404 C3.6549999713897705,-4.5279998779296875 2.5840001106262207,-5.599999904632568 0.7850000262260437,-5.625 C-0.07000000029802322,-5.625 -0.7940000295639038,-5.373000144958496 -1.3869999647140503,-4.86899995803833 C-1.9800000190734863,-4.364999771118164 -2.4230000972747803,-3.6989998817443848 -2.7160000801086426,-2.869999885559082 C-3.009999990463257,-2.0399999618530273 -3.1559998989105225,-1.1480000019073486 -3.1559998989105225,-0.19099999964237213 C-3.1559998989105225,0.906000018119812 -2.996000051498413,1.88100004196167 -2.677999973297119,2.7360000610351562 C-2.3589999675750732,3.5910000801086426 -1.9010000228881836,4.256999969482422 -1.3009999990463257,4.735000133514404 C-0.7020000219345093,5.214000225067139 0.019999999552965164,5.452000141143799 0.8610000014305115,5.452000141143799 C1.6779999732971191,5.452000141143799 2.4769999980926514,5.242000102996826 3.26200008392334,4.821000099182129 C4.046000003814697,4.400000095367432 4.706999778747559,3.8259999752044678 5.243000030517578,3.0999999046325684 C5.243000030517578,3.0999999046325684 6.160999774932861,3.940999984741211 6.160999774932861,3.940999984741211 C5.320000171661377,5.1020002365112305 4.394999980926514,5.9019999504089355 3.38700008392334,6.3429999351501465 C2.378999948501587,6.7829999923706055 1.3830000162124634,7.002999782562256 0.4020000100135803,7.002999782562256 C-0.8870000243186951,7.002999782562256 -2.0269999504089355,6.703000068664551 -3.0220000743865967,6.103000164031982z"></path></g><g opacity="1" transform="matrix(1,0,0,1,147.30299377441406,143.76400756835938)"><path fill="rgb(255,255,255)" fill-opacity="1" d=" M-2.7639999389648438,5.434999942779541 C-2.4189999103546143,5.421999931335449 -2.1600000858306885,5.38100004196167 -1.9800000190734863,5.309999942779541 C-1.8029999732971191,5.239999771118164 -1.6619999408721924,5.090000152587891 -1.559999942779541,4.861000061035156 C-1.4570000171661377,4.63100004196167 -1.406999945640564,4.267000198364258 -1.406999945640564,3.7699999809265137 C-1.406999945640564,3.7699999809265137 -1.406999945640564,-5.394999980926514 -1.406999945640564,-5.394999980926514 C-1.406999945640564,-5.394999980926514 -2.2860000133514404,-5.394999980926514 -2.2860000133514404,-5.394999980926514 C-3.0390000343322754,-5.381999969482422 -3.61899995803833,-5.126999855041504 -4.0269999504089355,-4.629000186920166 C-4.434999942779541,-4.131999969482422 -4.638999938964844,-3.378999948501587 -4.638999938964844,-2.371999979019165 C-4.638999938964844,-2.371999979019165 -5.9019999504089355,-2.371999979019165 -5.9019999504089355,-2.371999979019165 C-5.9019999504089355,-2.371999979019165 -5.807000160217285,-6.697000026702881 -5.807000160217285,-6.697000026702881 C-5.807000160217285,-6.697000026702881 5.7870001792907715,-6.697000026702881 5.7870001792907715,-6.697000026702881 C5.7870001792907715,-6.697000026702881 5.9019999504089355,-2.371999979019165 5.9019999504089355,-2.371999979019165 C5.9019999504089355,-2.371999979019165 4.638999938964844,-2.371999979019165 4.638999938964844,-2.371999979019165 C4.638999938964844,-3.378999948501587 4.432000160217285,-4.140999794006348 4.01800012588501,-4.6579999923706055 C3.6029999256134033,-5.173999786376953 3.0250000953674316,-5.426000118255615 2.2850000858306885,-5.413000106811523 C2.2850000858306885,-5.413000106811523 1.3680000305175781,-5.413000106811523 1.3680000305175781,-5.413000106811523 C1.3680000305175781,-5.413000106811523 1.3680000305175781,3.559000015258789 1.3680000305175781,3.559000015258789 C1.3680000305175781,4.414000034332275 1.343000054359436,4.98799991607666 1.2920000553131104,5.281000137329102 C1.7130000591278076,5.243000030517578 2.2219998836517334,5.223999977111816 2.822000026702881,5.223999977111816 C2.822000026702881,5.223999977111816 2.822000026702881,6.697000026702881 2.822000026702881,6.697000026702881 C2.822000026702881,6.697000026702881 -2.7639999389648438,6.697000026702881 -2.7639999389648438,6.697000026702881 C-2.7639999389648438,6.697000026702881 -2.7639999389648438,5.434999942779541 -2.7639999389648438,5.434999942779541z"></path></g><g opacity="1" transform="matrix(1,0,0,1,158.66799926757812,143.76400756835938)"><path fill="rgb(255,255,255)" fill-opacity="1" d=" M-2.744999885559082,5.434999942779541 C-2.4010000228881836,5.421999931335449 -2.140000104904175,5.38100004196167 -1.9609999656677246,5.309999942779541 C-1.7829999923706055,5.239999771118164 -1.6419999599456787,5.090000152587891 -1.5399999618530273,4.861000061035156 C-1.437999963760376,4.63100004196167 -1.3869999647140503,4.267000198364258 -1.3869999647140503,3.7699999809265137 C-1.3869999647140503,3.7699999809265137 -1.3869999647140503,-3.559000015258789 -1.3869999647140503,-3.559000015258789 C-1.3869999647140503,-4.2729997634887695 -1.3609999418258667,-4.8460001945495605 -1.309999942779541,-5.2789998054504395 C-1.309999942779541,-5.2789998054504395 -2.744999885559082,-5.2230000495910645 -2.744999885559082,-5.2230000495910645 C-2.744999885559082,-5.2230000495910645 -2.744999885559082,-6.697000026702881 -2.744999885559082,-6.697000026702881 C-2.744999885559082,-6.697000026702881 2.744999885559082,-6.697000026702881 2.744999885559082,-6.697000026702881 C2.744999885559082,-6.697000026702881 2.744999885559082,-5.434000015258789 2.744999885559082,-5.434000015258789 C2.4010000228881836,-5.421000003814697 2.1389999389648438,-5.380000114440918 1.9609999656677246,-5.309000015258789 C1.781999945640564,-5.238999843597412 1.6419999599456787,-5.0879998207092285 1.5399999618530273,-4.859000205993652 C1.437999963760376,-4.629000186920166 1.3869999647140503,-4.265999794006348 1.3869999647140503,-3.7679998874664307 C1.3869999647140503,-3.7679998874664307 1.3869999647140503,3.559000015258789 1.3869999647140503,3.559000015258789 C1.3869999647140503,4.27400016784668 1.3609999418258667,4.8480000495910645 1.309999942779541,5.281000137329102 C1.718999981880188,5.243000030517578 2.197000026702881,5.223999977111816 2.744999885559082,5.223999977111816 C2.744999885559082,5.223999977111816 2.744999885559082,6.697000026702881 2.744999885559082,6.697000026702881 C2.744999885559082,6.697000026702881 -2.744999885559082,6.697000026702881 -2.744999885559082,6.697000026702881 C-2.744999885559082,6.697000026702881 -2.744999885559082,5.434999942779541 -2.744999885559082,5.434999942779541z"></path></g><g opacity="1" transform="matrix(1,0,0,1,171.32400512695312,143.86099243164062)"><path fill="rgb(255,255,255)" fill-opacity="1" d=" M-2.50600004196167,-1.0329999923706055 C-2.8259999752044678,-1.440999984741211 -3.1760001182556152,-1.9190000295639038 -3.559000015258789,-2.4679999351501465 C-3.559000015258789,-2.4679999351501465 -3.578000068664551,-2.4679999351501465 -3.578000068664551,-2.4679999351501465 C-3.578000068664551,-2.4679999351501465 -3.5399999618530273,3.4630000591278076 -3.5399999618530273,3.4630000591278076 C-3.5399999618530273,4.177999973297119 -3.565999984741211,4.751999855041504 -3.615999937057495,5.184999942779541 C-3.2079999446868896,5.145999908447266 -2.7300000190734863,5.126999855041504 -2.180999994277954,5.126999855041504 C-2.180999994277954,5.126999855041504 -2.180999994277954,6.599999904632568 -2.180999994277954,6.599999904632568 C-2.180999994277954,6.599999904632568 -6.543000221252441,6.599999904632568 -6.543000221252441,6.599999904632568 C-6.543000221252441,6.599999904632568 -6.543000221252441,5.3379998207092285 -6.543000221252441,5.3379998207092285 C-6.198999881744385,5.326000213623047 -5.936999797821045,5.283999919891357 -5.758999824523926,5.214000225067139 C-5.579999923706055,5.14300012588501 -5.440000057220459,4.99399995803833 -5.3379998207092285,4.763999938964844 C-5.236000061035156,4.534999847412109 -5.184999942779541,4.171000003814697 -5.184999942779541,3.6740000247955322 C-5.184999942779541,3.6740000247955322 -5.2230000495910645,-3.6540000438690186 -5.2230000495910645,-3.6540000438690186 C-5.2230000495910645,-4.507999897003174 -5.197999954223633,-5.081999778747559 -5.145999908447266,-5.375999927520752 C-5.145999908447266,-5.375999927520752 -6.599999904632568,-5.318999767303467 -6.599999904632568,-5.318999767303467 C-6.599999904632568,-5.318999767303467 -6.599999904632568,-6.791999816894531 -6.599999904632568,-6.791999816894531 C-6.599999904632568,-6.791999816894531 -3.5969998836517334,-6.791999816894531 -3.5969998836517334,-6.791999816894531 C-3.5969998836517334,-6.791999816894531 2.256999969482422,0.5929999947547913 2.256999969482422,0.5929999947547913 C2.7929999828338623,1.2949999570846558 3.240000009536743,1.9010000228881836 3.5969998836517334,2.4110000133514404 C3.5969998836517334,2.4110000133514404 3.615999937057495,2.4110000133514404 3.615999937057495,2.4110000133514404 C3.615999937057495,2.4110000133514404 3.615999937057495,-3.6540000438690186 3.615999937057495,-3.6540000438690186 C3.615999937057495,-4.482999801635742 3.634999990463257,-5.057000160217285 3.6740000247955322,-5.375999927520752 C3.6740000247955322,-5.375999927520752 2.23799991607666,-5.318999767303467 2.23799991607666,-5.318999767303467 C2.23799991607666,-5.318999767303467 2.23799991607666,-6.791999816894531 2.23799991607666,-6.791999816894531 C2.23799991607666,-6.791999816894531 6.599999904632568,-6.791999816894531 6.599999904632568,-6.791999816894531 C6.599999904632568,-6.791999816894531 6.599999904632568,-5.5289998054504395 6.599999904632568,-5.5289998054504395 C6.25600004196167,-5.515999794006348 5.99399995803833,-5.474999904632568 5.815999984741211,-5.40500020980835 C5.63700008392334,-5.334000110626221 5.497000217437744,-5.184999942779541 5.394999980926514,-4.954999923706055 C5.293000221252441,-4.724999904632568 5.243000030517578,-4.361999988555908 5.243000030517578,-3.865000009536743 C5.243000030517578,-3.865000009536743 5.243000030517578,6.791999816894531 5.243000030517578,6.791999816894531 C5.243000030517578,6.791999816894531 3.615999937057495,6.791999816894531 3.615999937057495,6.791999816894531 C3.615999937057495,6.791999816894531 -2.50600004196167,-1.0329999923706055 -2.50600004196167,-1.0329999923706055z"></path></g><g opacity="1" transform="matrix(1,0,0,1,187.23199462890625,143.76499938964844)"><path fill="rgb(255,255,255)" fill-opacity="1" d=" M-3.691999912261963,6.103000164031982 C-4.668000221252441,5.502999782562256 -5.414000034332275,4.690999984741211 -5.931000232696533,3.6640000343322754 C-6.447000026702881,2.63700008392334 -6.705999851226807,1.4800000190734863 -6.705999851226807,0.19200000166893005 C-6.705999851226807,-1.0199999809265137 -6.453999996185303,-2.177999973297119 -5.949999809265137,-3.2809998989105225 C-5.446000099182129,-4.385000228881836 -4.693999767303467,-5.28000020980835 -3.691999912261963,-5.968999862670898 C-2.690999984741211,-6.6579999923706055 -1.4830000400543213,-7.002999782562256 -0.06599999964237213,-7.002999782562256 C0.4819999933242798,-7.002999782562256 1.1030000448226929,-6.920000076293945 1.7990000247955322,-6.754000186920166 C2.49399995803833,-6.5879998207092285 3.0840001106262207,-6.357999801635742 3.568000078201294,-6.065000057220459 C3.568000078201294,-6.065000057220459 3.5880000591278076,-6.065000057220459 3.5880000591278076,-6.065000057220459 C3.5880000591278076,-6.065000057220459 3.510999917984009,-6.868000030517578 3.510999917984009,-6.868000030517578 C3.510999917984009,-6.868000030517578 4.985000133514404,-6.868000030517578 4.985000133514404,-6.868000030517578 C4.985000133514404,-6.868000030517578 4.985000133514404,-2.4110000133514404 4.985000133514404,-2.4110000133514404 C4.985000133514404,-2.4110000133514404 3.740999937057495,-2.4110000133514404 3.740999937057495,-2.4110000133514404 C3.575000047683716,-3.444000005722046 3.1730000972747803,-4.234000205993652 2.5350000858306885,-4.7829999923706055 C1.8969999551773071,-5.330999851226807 1.1130000352859497,-5.611999988555908 0.18199999630451202,-5.625 C-0.6600000262260437,-5.625 -1.3739999532699585,-5.373000144958496 -1.9600000381469727,-4.86899995803833 C-2.546999931335449,-4.364999771118164 -2.98799991607666,-3.6989998817443848 -3.2799999713897705,-2.869999885559082 C-3.575000047683716,-2.0399999618530273 -3.7209999561309814,-1.1480000019073486 -3.7209999561309814,-0.19099999964237213 C-3.7209999561309814,1.5049999952316284 -3.369999885559082,2.875999927520752 -2.6689999103546143,3.921999931335449 C-1.9670000076293945,4.9679999351501465 -0.9850000143051147,5.491000175476074 0.27799999713897705,5.491000175476074 C0.6859999895095825,5.491000175476074 1.1540000438690186,5.446000099182129 1.684000015258789,5.35699987411499 C2.2130000591278076,5.26800012588501 2.6429998874664307,5.139999866485596 2.9749999046325684,4.973999977111816 C2.9749999046325684,4.973999977111816 2.9749999046325684,3.194999933242798 2.9749999046325684,3.194999933242798 C2.9749999046325684,2.4809999465942383 3.000999927520752,1.906999945640564 3.052000045776367,1.4730000495910645 C2.7200000286102295,1.4989999532699585 2.4079999923706055,1.5119999647140503 2.114000082015991,1.5119999647140503 C2.114000082015991,1.5119999647140503 1.6169999837875366,1.531000018119812 1.6169999837875366,1.531000018119812 C1.6169999837875366,1.531000018119812 1.6169999837875366,0.05700000002980232 1.6169999837875366,0.05700000002980232 C1.6169999837875366,0.05700000002980232 6.705999851226807,0.05700000002980232 6.705999851226807,0.05700000002980232 C6.705999851226807,0.05700000002980232 6.705999851226807,1.3200000524520874 6.705999851226807,1.3200000524520874 C6.388000011444092,1.3329999446868896 6.138999938964844,1.3769999742507935 5.960000038146973,1.4539999961853027 C5.7820000648498535,1.531000018119812 5.6479997634887695,1.687000036239624 5.558000087738037,1.9229999780654907 C5.468999862670898,2.1589999198913574 5.425000190734863,2.513000011444092 5.425000190734863,2.984999895095825 C5.425000190734863,2.984999895095825 5.425000190734863,6.046000003814697 5.425000190734863,6.046000003814697 C5.425000190734863,6.046000003814697 4.965000152587891,6.046000003814697 4.965000152587891,6.046000003814697 C4.671000003814697,6.046000003814697 4.381999969482422,6.077000141143799 4.093999862670898,6.140999794006348 C3.808000087738037,6.205999851226807 3.440999984741211,6.307000160217285 2.99399995803833,6.447999954223633 C2.3310000896453857,6.638999938964844 1.7769999504089355,6.7789998054504395 1.3300000429153442,6.86899995803833 C0.8830000162124634,6.956999778747559 0.37400001287460327,7.002999782562256 -0.20100000500679016,7.002999782562256 C-1.5520000457763672,7.002999782562256 -2.7170000076293945,6.703000068664551 -3.691999912261963,6.103000164031982z"></path></g></g><g style="display: none;"><g><path></path></g><g><path></path></g><g><path></path></g><g><path></path></g><g><path></path></g><g><path></path></g><g><path></path></g><g><path></path></g><g><path></path></g><g><path></path></g><g><path></path></g><g><path></path></g><g><path></path></g><g><path></path></g><g><path></path></g><g><path></path></g><g><path></path></g><g><path></path></g><g><path></path></g><g><path></path></g><g><path></path></g><g><path></path></g><g><path></path></g><g><path></path></g><g><path></path></g><g><path></path></g><g><path></path></g><g><path></path></g><g><path></path></g><g><path></path></g><g><path></path></g><g><path></path></g><g><path></path></g><g><path></path></g><g><path></path></g><g><path></path></g><g><path></path></g><g><path></path></g><g><path></path></g><g><path></path></g><g><path></path></g><g><path></path></g><g><path></path></g><g><path></path></g><g><path></path></g><g><path></path></g><g><path></path></g><g><path></path></g><g><path></path></g><g><path></path></g><g><path></path></g><g><path></path></g><g><path></path></g><g><path></path></g><g><path></path></g><g><path></path></g><g><path></path></g><g><path></path></g></g><g transform="matrix(1,0,0,1,22.49999237060547,15)" opacity="1" style="display: block;"><g opacity="1" transform="matrix(1,0,0,1,0,0)"><path stroke-linecap="butt" stroke-linejoin="miter" fill-opacity="0" stroke-miterlimit="10" stroke="rgb(35,50,62)" stroke-opacity="1" stroke-width="0.25" d="M0 0"></path></g><g opacity="1" transform="matrix(1,0,0,1,93.52999877929688,94.48300170898438)"><path stroke-linecap="butt" stroke-linejoin="miter" fill-opacity="0" stroke-miterlimit="10" stroke="rgb(35,50,62)" stroke-opacity="1" stroke-width="0.25" d="M0 0"></path></g><g opacity="1" transform="matrix(1,0,0,1,102.4749984741211,94.73899841308594)"><path stroke-linecap="butt" stroke-linejoin="miter" fill-opacity="0" stroke-miterlimit="10" stroke="rgb(35,50,62)" stroke-opacity="1" stroke-width="0.25" d="M0 0"></path></g><g opacity="1" transform="matrix(1,0,0,1,116.23300170898438,85.2979965209961)"><path stroke-linecap="butt" stroke-linejoin="miter" fill-opacity="0" stroke-miterlimit="10" stroke="rgb(35,50,62)" stroke-opacity="1" stroke-width="0.25" d="M0 0"></path></g><g opacity="1" transform="matrix(1,0,0,1,123.93699645996094,81.80400085449219)"><path stroke-linecap="butt" stroke-linejoin="miter" fill-opacity="0" stroke-miterlimit="10" stroke="rgb(35,50,62)" stroke-opacity="1" stroke-width="0.25" d="M0 0"></path></g><g opacity="1" transform="matrix(1,0,0,1,106.98300170898438,82.59600067138672)"><path stroke-linecap="butt" stroke-linejoin="miter" fill-opacity="0" stroke-miterlimit="10" stroke="rgb(35,50,62)" stroke-opacity="1" stroke-width="0.25" d="M0 0"></path></g><g opacity="1" transform="matrix(1,0,0,1,115.05899810791016,84.87699890136719)"><path stroke-linecap="butt" stroke-linejoin="miter" fill-opacity="0" stroke-miterlimit="10" stroke="rgb(35,50,62)" stroke-opacity="1" stroke-width="0.25" d="M0 0"></path></g><g opacity="1" transform="matrix(1,0,0,1,134.99600219726562,76.65399932861328)"><path stroke-linecap="butt" stroke-linejoin="miter" fill-opacity="0" stroke-miterlimit="10" stroke="rgb(35,50,62)" stroke-opacity="1" stroke-width="0.25" d="M0 0"></path></g><g opacity="1" transform="matrix(1,0,0,1,142.8179931640625,79.81400299072266)"><path stroke-linecap="butt" stroke-linejoin="miter" fill-opacity="0" stroke-miterlimit="10" stroke="rgb(35,50,62)" stroke-opacity="1" stroke-width="0.25" d="M0 0"></path></g><g opacity="1" transform="matrix(1,0,0,1,0,0)"><path stroke-linecap="butt" stroke-linejoin="miter" fill-opacity="0" stroke-miterlimit="10" stroke="rgb(35,50,62)" stroke-opacity="1" stroke-width="0.25" d="M0 0"></path></g><g opacity="1" transform="matrix(1,0,0,1,0,0)"><path stroke-linecap="butt" stroke-linejoin="miter" fill-opacity="0" stroke-miterlimit="10" stroke="rgb(35,50,62)" stroke-opacity="1" stroke-width="0.25" d="M0 0"></path></g><g opacity="1" transform="matrix(1,0,0,1,0,0)"><path stroke-linecap="butt" stroke-linejoin="miter" fill-opacity="0" stroke-miterlimit="10" stroke="rgb(35,50,62)" stroke-opacity="1" stroke-width="0.25" d="M0 0"></path></g></g></g></svg>