<svg xmlns="http://www.w3.org/2000/svg" viewBox="0 0 282 277" width="282" height="277" preserveAspectRatio="xMidYMid meet" style="width: 100%; height: 100%; transform: translate3d(0px, 0px, 0px);"><defs><clipPath id="__lottie_element_107"><rect width="282" height="277" x="0" y="0"></rect></clipPath></defs><g clip-path="url(#__lottie_element_107)"><g transform="matrix(1,0,0,1,22.5,15)" opacity="1" style="display: block;"><g opacity="1" transform="matrix(1,0,0,1,118.72000122070312,163.80999755859375)"><path fill="rgb(89,135,57)" fill-opacity="1" d=" M116.70999908447266,-18.27199935913086 C116.70999908447266,-18.27199935913086 116.70999908447266,2.1500000953674316 116.70999908447266,2.1500000953674316 C116.70999908447266,2.1500000953674316 95.88400268554688,18.27199935913086 95.88400268554688,18.27199935913086 C95.88400268554688,18.27199935913086 -95.88500213623047,18.270999908447266 -95.88500213623047,18.270999908447266 C-95.88500213623047,18.270999908447266 -116.70999908447266,2.1500000953674316 -116.70999908447266,2.1500000953674316 C-116.70999908447266,2.1500000953674316 -116.70999908447266,-18.27199935913086 -116.70999908447266,-18.27199935913086 C-116.70999908447266,-18.27199935913086 116.70999908447266,-18.27199935913086 116.70999908447266,-18.27199935913086z"></path></g></g><g transform="matrix(1,0,0,1,22.49999237060547,15)" opacity="1" style="display: block;"><g opacity="1" transform="matrix(1,0,0,1,118.72100067138672,123.75)"><path fill="rgb(255,255,255)" fill-opacity="1" d=" M-0.0010000000474974513,120.66500091552734 C-2.2330000400543213,120.66500091552734 -4.434999942779541,120.07499694824219 -6.36899995803833,118.95899963378906 C-6.36899995803833,118.95899963378906 -99.83699798583984,64.99500274658203 -99.83699798583984,64.99500274658203 C-103.76499938964844,62.72700119018555 -106.20500183105469,58.5 -106.20500183105469,53.96500015258789 C-106.20500183105469,53.96500015258789 -106.20500183105469,-53.9640007019043 -106.20500183105469,-53.9640007019043 C-106.20500183105469,-58.5 -103.76499938964844,-62.72600173950195 -99.83699798583984,-64.99500274658203 C-99.83699798583984,-64.99500274658203 -6.36899995803833,-118.95800018310547 -6.36899995803833,-118.95800018310547 C-4.434999942779541,-120.07499694824219 -2.2330000400543213,-120.66500091552734 -0.0010000000474974513,-120.66500091552734 C2.2320001125335693,-120.66500091552734 4.434000015258789,-120.07499694824219 6.367000102996826,-118.95899963378906 C6.367000102996826,-118.95899963378906 99.83599853515625,-64.99500274658203 99.83599853515625,-64.99500274658203 C103.76399993896484,-62.72600173950195 106.20500183105469,-58.5 106.20500183105469,-53.9640007019043 C106.20500183105469,-53.9640007019043 106.20500183105469,53.96500015258789 106.20500183105469,53.96500015258789 C106.20500183105469,58.5 103.76399993896484,62.72700119018555 99.83599853515625,64.99500274658203 C99.83599853515625,64.99500274658203 6.367000102996826,118.95899963378906 6.367000102996826,118.95899963378906 C4.434000015258789,120.07499694824219 2.2320001125335693,120.66500091552734 -0.0010000000474974513,120.66500091552734z"></path><path stroke-linecap="butt" stroke-linejoin="miter" fill-opacity="0" stroke-miterlimit="10" stroke="rgb(35,50,62)" stroke-opacity="1" stroke-width="5" d=" M-0.0010000000474974513,120.66500091552734 C-2.2330000400543213,120.66500091552734 -4.434999942779541,120.07499694824219 -6.36899995803833,118.95899963378906 C-6.36899995803833,118.95899963378906 -99.83699798583984,64.99500274658203 -99.83699798583984,64.99500274658203 C-103.76499938964844,62.72700119018555 -106.20500183105469,58.5 -106.20500183105469,53.96500015258789 C-106.20500183105469,53.96500015258789 -106.20500183105469,-53.9640007019043 -106.20500183105469,-53.9640007019043 C-106.20500183105469,-58.5 -103.76499938964844,-62.72600173950195 -99.83699798583984,-64.99500274658203 C-99.83699798583984,-64.99500274658203 -6.36899995803833,-118.95800018310547 -6.36899995803833,-118.95800018310547 C-4.434999942779541,-120.07499694824219 -2.2330000400543213,-120.66500091552734 -0.0010000000474974513,-120.66500091552734 C2.2320001125335693,-120.66500091552734 4.434000015258789,-120.07499694824219 6.367000102996826,-118.95899963378906 C6.367000102996826,-118.95899963378906 99.83599853515625,-64.99500274658203 99.83599853515625,-64.99500274658203 C103.76399993896484,-62.72600173950195 106.20500183105469,-58.5 106.20500183105469,-53.9640007019043 C106.20500183105469,-53.9640007019043 106.20500183105469,53.96500015258789 106.20500183105469,53.96500015258789 C106.20500183105469,58.5 103.76399993896484,62.72700119018555 99.83599853515625,64.99500274658203 C99.83599853515625,64.99500274658203 6.367000102996826,118.95899963378906 6.367000102996826,118.95899963378906 C4.434000015258789,120.07499694824219 2.2320001125335693,120.66500091552734 -0.0010000000474974513,120.66500091552734z"></path></g><g opacity="1" transform="matrix(1,0,0,1,118.72100067138672,123.4739990234375)"><path stroke-linecap="butt" stroke-linejoin="miter" fill-opacity="0" stroke-miterlimit="10" stroke="rgb(35,50,62)" stroke-opacity="1" stroke-width="0.85" d=" M91.41500091552734,-45.292999267578125 C91.41500091552734,-49.92499923706055 88.94200134277344,-54.20500183105469 84.93000030517578,-56.520999908447266 C84.93000030517578,-56.520999908447266 6.48199987411499,-101.81400299072266 6.48199987411499,-101.81400299072266 C4.47599983215332,-102.97200012207031 2.236999988555908,-103.5510025024414 -0.0010000000474974513,-103.5510025024414 C-2.240000009536743,-103.5510025024414 -4.479000091552734,-102.97200012207031 -6.484000205993652,-101.81400299072266 C-6.484000205993652,-101.81400299072266 -84.93299865722656,-56.520999908447266 -84.93299865722656,-56.520999908447266 C-88.94400024414062,-54.20500183105469 -91.41500091552734,-49.92499923706055 -91.41500091552734,-45.292999267578125 C-91.41500091552734,-45.292999267578125 -91.41500091552734,45.29199981689453 -91.41500091552734,45.29199981689453 C-91.41500091552734,49.92399978637695 -88.94400024414062,54.20500183105469 -84.93299865722656,56.520999908447266 C-84.93299865722656,56.520999908447266 -6.484000205993652,101.81199645996094 -6.484000205993652,101.81199645996094 C-4.478000164031982,102.97100067138672 -2.240000009536743,103.5510025024414 -0.0010000000474974513,103.5510025024414 C2.236999988555908,103.5510025024414 4.47599983215332,102.97100067138672 6.48199987411499,101.81199645996094 C6.48199987411499,101.81199645996094 84.93000030517578,56.520999908447266 84.93000030517578,56.520999908447266 C88.94200134277344,54.20500183105469 91.41500091552734,49.92399978637695 91.41500091552734,45.29199981689453 C91.41500091552734,45.29199981689453 91.41500091552734,-45.292999267578125 91.41500091552734,-45.292999267578125z"></path></g><g opacity="1" transform="matrix(1,0,0,1,118.71900177001953,178.3800048828125)"><path fill="rgb(35,50,62)" fill-opacity="1" d=" M-92.09200286865234,-54.63199996948242 C-94.18699645996094,-54.63199996948242 -95.88500213623047,-52.93299865722656 -95.88500213623047,-50.8380012512207 C-95.88500213623047,-50.8380012512207 -95.88500213623047,-6.908999919891357 -95.88500213623047,-6.908999919891357 C-95.88500213623047,-2.183000087738037 -93.36399841308594,2.184999942779541 -89.2699966430664,4.547999858856201 C-89.2699966430664,4.547999858856201 -6.614999771118164,52.26900100708008 -6.614999771118164,52.26900100708008 C-2.5220000743865967,54.63199996948242 2.5220000743865967,54.63199996948242 6.614999771118164,52.26900100708008 C6.614999771118164,52.26900100708008 89.2699966430664,4.548999786376953 89.2699966430664,4.548999786376953 C93.36299896240234,2.184999942779541 95.88500213623047,-2.181999921798706 95.88500213623047,-6.908999919891357 C95.88500213623047,-6.908999919891357 95.88500213623047,-50.8380012512207 95.88500213623047,-50.8380012512207 C95.88500213623047,-52.93299865722656 94.18699645996094,-54.63199996948242 92.09200286865234,-54.63199996948242 C92.09200286865234,-54.63199996948242 -92.09200286865234,-54.63199996948242 -92.09200286865234,-54.63199996948242z"></path></g><g opacity="1" transform="matrix(1,0,0,1,118.72000122070312,177.0279998779297)"><path fill="rgb(118,120,130)" fill-opacity="1" d=" M-7.205999851226807,53.27899932861328 C-7.205999851226807,53.27899932861328 -8.12399959564209,52.74800109863281 -8.12399959564209,52.74800109863281 C-8.12399959564209,52.74800109863281 13.923999786376953,-8.01200008392334 13.923999786376953,-8.01200008392334 C13.923999786376953,-8.01200008392334 -5.854000091552734,-8.01200008392334 -5.854000091552734,-8.01200008392334 C-5.854000091552734,-8.01200008392334 -18.858999252319336,27.827999114990234 -18.858999252319336,27.827999114990234 C-18.858999252319336,27.827999114990234 -19.350000381469727,27.64900016784668 -19.350000381469727,27.64900016784668 C-19.350000381469727,27.64900016784668 -19.402000427246094,27.667999267578125 -19.402000427246094,27.667999267578125 C-19.402000427246094,27.667999267578125 -10.96500015258789,51.10900115966797 -10.96500015258789,51.10900115966797 C-10.96500015258789,51.10900115966797 -11.432000160217285,50.8390007019043 -11.432000160217285,50.8390007019043 C-11.432000160217285,50.8390007019043 -19.729999542236328,27.78499984741211 -19.729999542236328,27.78499984741211 C-19.729999542236328,27.78499984741211 -19.841999053955078,27.826000213623047 -19.841999053955078,27.826000213623047 C-19.841999053955078,27.826000213623047 -19.913000106811523,27.628000259399414 -19.913000106811523,27.628000259399414 C-19.913000106811523,27.628000259399414 -25.423999786376953,42.76100158691406 -25.423999786376953,42.76100158691406 C-25.423999786376953,42.76100158691406 -25.729999542236328,42.58399963378906 -25.729999542236328,42.58399963378906 C-25.729999542236328,42.58399963378906 -20.09600067138672,27.114999771118164 -20.09600067138672,27.114999771118164 C-20.09600067138672,27.114999771118164 -32.68000030517578,-8.01200008392334 -32.68000030517578,-8.01200008392334 C-32.68000030517578,-8.01200008392334 -47.112998962402344,-8.01200008392334 -47.112998962402344,-8.01200008392334 C-47.112998962402344,-8.01200008392334 -50.20199966430664,0.47200000286102295 -50.20199966430664,0.47200000286102295 C-50.20199966430664,0.47200000286102295 -37.48400115966797,35.797000885009766 -37.48400115966797,35.797000885009766 C-37.48400115966797,35.797000885009766 -37.95199966430664,35.52799987792969 -37.95199966430664,35.52799987792969 C-37.95199966430664,35.52799987792969 -50.38800048828125,0.9829999804496765 -50.38800048828125,0.9829999804496765 C-50.38800048828125,0.9829999804496765 -58.62300109863281,23.593000411987305 -58.62300109863281,23.593000411987305 C-58.62300109863281,23.593000411987305 -58.92900085449219,23.41699981689453 -58.92900085449219,23.41699981689453 C-58.92900085449219,23.41699981689453 -50.573001861572266,0.47099998593330383 -50.573001861572266,0.47099998593330383 C-50.573001861572266,0.47099998593330383 -53.62699890136719,-8.01200008392334 -53.62699890136719,-8.01200008392334 C-53.62699890136719,-8.01200008392334 -67.1500015258789,-8.01200008392334 -67.1500015258789,-8.01200008392334 C-67.1500015258789,-8.01200008392334 -75.15499877929688,14.048999786376953 -75.15499877929688,14.048999786376953 C-75.15499877929688,14.048999786376953 -76.13999938964844,13.479999542236328 -76.13999938964844,13.479999542236328 C-76.13999938964844,13.479999542236328 -68.31199645996094,-8.01200008392334 -68.31199645996094,-8.01200008392334 C-68.31199645996094,-8.01200008392334 -92.74299621582031,-8.01200008392334 -92.74299621582031,-8.01200008392334 C-92.74299621582031,-8.01200008392334 -87.36499786376953,6.999000072479248 -87.36499786376953,6.999000072479248 C-87.36499786376953,6.999000072479248 -88.83000183105469,6.1529998779296875 -88.83000183105469,6.1529998779296875 C-88.83000183105469,6.1529998779296875 -93.90699768066406,-8.01200008392334 -93.90699768066406,-8.01200008392334 C-93.90699768066406,-8.01200008392334 -95.88500213623047,-8.01200008392334 -95.88500213623047,-8.01200008392334 C-95.88500213623047,-8.01200008392334 -95.88500213623047,-8.359999656677246 -95.88500213623047,-8.359999656677246 C-95.88500213623047,-8.359999656677246 -94.03199768066406,-8.359999656677246 -94.03199768066406,-8.359999656677246 C-94.03199768066406,-8.359999656677246 -95.88500213623047,-13.531999588012695 -95.88500213623047,-13.531999588012695 C-95.88500213623047,-13.531999588012695 -95.88500213623047,-16.774999618530273 -95.88500213623047,-16.774999618530273 C-95.88500213623047,-16.774999618530273 -92.86799621582031,-8.359999656677246 -92.86799621582031,-8.359999656677246 C-92.86799621582031,-8.359999656677246 -68.18499755859375,-8.359999656677246 -68.18499755859375,-8.359999656677246 C-68.18499755859375,-8.359999656677246 -60.926998138427734,-28.290000915527344 -60.926998138427734,-28.290000915527344 C-60.926998138427734,-28.290000915527344 -67.88300323486328,-47.6150016784668 -67.88300323486328,-47.6150016784668 C-67.88300323486328,-47.6150016784668 -95.88500213623047,-47.6150016784668 -95.88500213623047,-47.6150016784668 C-95.88500213623047,-47.6150016784668 -95.88500213623047,-47.9640007019043 -95.88500213623047,-47.9640007019043 C-95.88500213623047,-47.9640007019043 -68.00800323486328,-47.9640007019043 -68.00800323486328,-47.9640007019043 C-68.00800323486328,-47.9640007019043 -69.9229965209961,-53.27899932861328 -69.9229965209961,-53.27899932861328 C-69.9229965209961,-53.27899932861328 -69.5530014038086,-53.27899932861328 -69.5530014038086,-53.27899932861328 C-69.5530014038086,-53.27899932861328 -67.63899993896484,-47.9640007019043 -67.63899993896484,-47.9640007019043 C-67.63899993896484,-47.9640007019043 -53.763999938964844,-47.9640007019043 -53.763999938964844,-47.9640007019043 C-53.763999938964844,-47.9640007019043 -51.834999084472656,-53.27899932861328 -51.834999084472656,-53.27899932861328 C-51.834999084472656,-53.27899932861328 -50.7239990234375,-53.27899932861328 -50.7239990234375,-53.27899932861328 C-50.7239990234375,-53.27899932861328 -52.65299987792969,-47.9640007019043 -52.65299987792969,-47.9640007019043 C-52.65299987792969,-47.9640007019043 -47,-47.9640007019043 -47,-47.9640007019043 C-47,-47.9640007019043 -48.915000915527344,-53.27899932861328 -48.915000915527344,-53.27899932861328 C-48.915000915527344,-53.27899932861328 -47.78799819946289,-53.27899932861328 -47.78799819946289,-53.27899932861328 C-47.78799819946289,-53.27899932861328 -45.882999420166016,-47.9640007019043 -45.882999420166016,-47.9640007019043 C-45.882999420166016,-47.9640007019043 -32.93299865722656,-47.9640007019043 -32.93299865722656,-47.9640007019043 C-32.93299865722656,-47.9640007019043 -30.9950008392334,-53.27899932861328 -30.9950008392334,-53.27899932861328 C-30.9950008392334,-53.27899932861328 -30.625999450683594,-53.27899932861328 -30.625999450683594,-53.27899932861328 C-30.625999450683594,-53.27899932861328 -32.56100082397461,-47.9640007019043 -32.56100082397461,-47.9640007019043 C-32.56100082397461,-47.9640007019043 7.249000072479248,-47.9640007019043 7.249000072479248,-47.9640007019043 C7.249000072479248,-47.9640007019043 9.184000015258789,-53.27899932861328 9.184000015258789,-53.27899932861328 C9.184000015258789,-53.27899932861328 10.572999954223633,-53.27899932861328 10.572999954223633,-53.27899932861328 C10.572999954223633,-53.27899932861328 8.642999649047852,-47.9640007019043 8.642999649047852,-47.9640007019043 C8.642999649047852,-47.9640007019043 22.128000259399414,-47.9640007019043 22.128000259399414,-47.9640007019043 C22.128000259399414,-47.9640007019043 20.21500015258789,-53.27899932861328 20.21500015258789,-53.27899932861328 C20.21500015258789,-53.27899932861328 20.58300018310547,-53.27899932861328 20.58300018310547,-53.27899932861328 C20.58300018310547,-53.27899932861328 22.496999740600586,-47.9640007019043 22.496999740600586,-47.9640007019043 C22.496999740600586,-47.9640007019043 28.964000701904297,-47.9640007019043 28.964000701904297,-47.9640007019043 C28.964000701904297,-47.9640007019043 30.899999618530273,-53.27899932861328 30.899999618530273,-53.27899932861328 C30.899999618530273,-53.27899932861328 31.270000457763672,-53.27899932861328 31.270000457763672,-53.27899932861328 C31.270000457763672,-53.27899932861328 29.33300018310547,-47.9640007019043 29.33300018310547,-47.9640007019043 C29.33300018310547,-47.9640007019043 43.1349983215332,-47.9640007019043 43.1349983215332,-47.9640007019043 C43.1349983215332,-47.9640007019043 41.222999572753906,-53.27899932861328 41.222999572753906,-53.27899932861328 C41.222999572753906,-53.27899932861328 41.59199905395508,-53.27899932861328 41.59199905395508,-53.27899932861328 C41.59199905395508,-53.27899932861328 43.50600051879883,-47.9640007019043 43.50600051879883,-47.9640007019043 C43.50600051879883,-47.9640007019043 69.31600189208984,-47.9640007019043 69.31600189208984,-47.9640007019043 C69.31600189208984,-47.9640007019043 71.25299835205078,-53.27899932861328 71.25299835205078,-53.27899932861328 C71.25299835205078,-53.27899932861328 71.6240005493164,-53.27899932861328 71.6240005493164,-53.27899932861328 C71.6240005493164,-53.27899932861328 69.68800354003906,-47.9640007019043 69.68800354003906,-47.9640007019043 C69.68800354003906,-47.9640007019043 83.11799621582031,-47.9640007019043 83.11799621582031,-47.9640007019043 C83.11799621582031,-47.9640007019043 81.21399688720703,-53.27899932861328 81.21399688720703,-53.27899932861328 C81.21399688720703,-53.27899932861328 82.3219985961914,-53.27899932861328 82.3219985961914,-53.27899932861328 C82.3219985961914,-53.27899932861328 84.22799682617188,-47.9640007019043 84.22799682617188,-47.9640007019043 C84.22799682617188,-47.9640007019043 89.71700286865234,-47.9640007019043 89.71700286865234,-47.9640007019043 C89.71700286865234,-47.9640007019043 91.64600372314453,-53.27899932861328 91.64600372314453,-53.27899932861328 C91.64600372314453,-53.27899932861328 92.75800323486328,-53.27899932861328 92.75800323486328,-53.27899932861328 C92.75800323486328,-53.27899932861328 90.8290023803711,-47.9640007019043 90.8290023803711,-47.9640007019043 C90.8290023803711,-47.9640007019043 95.88500213623047,-47.9640007019043 95.88500213623047,-47.9640007019043 C95.88500213623047,-47.9640007019043 95.88500213623047,-47.6150016784668 95.88500213623047,-47.6150016784668 C95.88500213623047,-47.6150016784668 90.7020034790039,-47.6150016784668 90.7020034790039,-47.6150016784668 C90.7020034790039,-47.6150016784668 87.50800323486328,-38.8120002746582 87.50800323486328,-38.8120002746582 C87.50800323486328,-38.8120002746582 95.88500213623047,-15.437000274658203 95.88500213623047,-15.437000274658203 C95.88500213623047,-15.437000274658203 95.88500213623047,-12.340999603271484 95.88500213623047,-12.340999603271484 C95.88500213623047,-12.340999603271484 86.9489974975586,-37.27399826049805 86.9489974975586,-37.27399826049805 C86.9489974975586,-37.27399826049805 76.45800018310547,-8.359999656677246 76.45800018310547,-8.359999656677246 C76.45800018310547,-8.359999656677246 95.88500213623047,-8.359999656677246 95.88500213623047,-8.359999656677246 C95.88500213623047,-8.359999656677246 95.88500213623047,-8.01200008392334 95.88500213623047,-8.01200008392334 C95.88500213623047,-8.01200008392334 76.33100128173828,-8.01200008392334 76.33100128173828,-8.01200008392334 C76.33100128173828,-8.01200008392334 67.0719985961914,17.500999450683594 67.0719985961914,17.500999450683594 C67.0719985961914,17.500999450683594 67.43499755859375,18.506000518798828 67.43499755859375,18.506000518798828 C67.43499755859375,18.506000518798828 67.12799835205078,18.683000564575195 67.12799835205078,18.683000564575195 C67.12799835205078,18.683000564575195 66.88700103759766,18.01300048828125 66.88700103759766,18.01300048828125 C66.88700103759766,18.01300048828125 66.51599884033203,19.035999298095703 66.51599884033203,19.035999298095703 C66.51599884033203,19.035999298095703 65.11100006103516,19.847999572753906 65.11100006103516,19.847999572753906 C65.11100006103516,19.847999572753906 66.33300018310547,16.47599983215332 66.33300018310547,16.47599983215332 C66.33300018310547,16.47599983215332 57.51900100708008,-8.01200008392334 57.51900100708008,-8.01200008392334 C57.51900100708008,-8.01200008392334 55.137001037597656,-8.01200008392334 55.137001037597656,-8.01200008392334 C55.137001037597656,-8.01200008392334 46.18199920654297,16.576000213623047 46.18199920654297,16.576000213623047 C46.18199920654297,16.576000213623047 50.395999908447266,28.343000411987305 50.395999908447266,28.343000411987305 C50.395999908447266,28.343000411987305 49.47800064086914,28.87299919128418 49.47800064086914,28.87299919128418 C49.47800064086914,28.87299919128418 45.62200164794922,18.111000061035156 45.62200164794922,18.111000061035156 C45.62200164794922,18.111000061035156 39.632999420166016,34.55699920654297 39.632999420166016,34.55699920654297 C39.632999420166016,34.55699920654297 39.16299819946289,34.827999114990234 39.16299819946289,34.827999114990234 C39.16299819946289,34.827999114990234 45.43899917602539,17.599000930786133 45.43899917602539,17.599000930786133 C45.43899917602539,17.599000930786133 36.263999938964844,-8.01200008392334 36.263999938964844,-8.01200008392334 C36.263999938964844,-8.01200008392334 15.03600025177002,-8.01200008392334 15.03600025177002,-8.01200008392334 C15.03600025177002,-8.01200008392334 -7.205999851226807,53.27899932861328 -7.205999851226807,53.27899932861328z M-15.888999938964844,16.58300018310547 C-15.888999938964844,16.58300018310547 -19.354000091552734,26.091999053955078 -19.354000091552734,26.091999053955078 C-19.354000091552734,26.091999053955078 -19.34600067138672,26.110000610351562 -19.34600067138672,26.110000610351562 C-19.34600067138672,26.110000610351562 -15.888999938964844,16.58300018310547 -15.888999938964844,16.58300018310547z M-31.56999969482422,-8.01200008392334 C-31.56999969482422,-8.01200008392334 -19.535999298095703,25.579999923706055 -19.535999298095703,25.579999923706055 C-19.535999298095703,25.579999923706055 -7.302999973297119,-8.01200008392334 -7.302999973297119,-8.01200008392334 C-7.302999973297119,-8.01200008392334 -31.56999969482422,-8.01200008392334 -31.56999969482422,-8.01200008392334z M37.374000549316406,-8.01200008392334 C37.374000549316406,-8.01200008392334 45.99700164794922,16.062999725341797 45.99700164794922,16.062999725341797 C45.99700164794922,16.062999725341797 54.76599884033203,-8.01200008392334 54.76599884033203,-8.01200008392334 C54.76599884033203,-8.01200008392334 37.374000549316406,-8.01200008392334 37.374000549316406,-8.01200008392334z M57.888999938964844,-8.01200008392334 C57.888999938964844,-8.01200008392334 66.5199966430664,15.96399974822998 66.5199966430664,15.96399974822998 C66.5199966430664,15.96399974822998 75.21900177001953,-8.01200008392334 75.21900177001953,-8.01200008392334 C75.21900177001953,-8.01200008392334 57.888999938964844,-8.01200008392334 57.888999938964844,-8.01200008392334z M-53.25600051879883,-8.01200008392334 C-53.25600051879883,-8.01200008392334 -50.387001037597656,-0.03999999910593033 -50.387001037597656,-0.03999999910593033 C-50.387001037597656,-0.03999999910593033 -47.483001708984375,-8.01200008392334 -47.483001708984375,-8.01200008392334 C-47.483001708984375,-8.01200008392334 -53.25600051879883,-8.01200008392334 -53.25600051879883,-8.01200008392334z M69.56099700927734,-47.6150016784668 C69.56099700927734,-47.6150016784668 56.520999908447266,-11.810999870300293 56.520999908447266,-11.810999870300293 C56.520999908447266,-11.810999870300293 57.762001037597656,-8.359999656677246 57.762001037597656,-8.359999656677246 C57.762001037597656,-8.359999656677246 75.34600067138672,-8.359999656677246 75.34600067138672,-8.359999656677246 C75.34600067138672,-8.359999656677246 86.39800262451172,-38.814998626708984 86.39800262451172,-38.814998626708984 C86.39800262451172,-38.814998626708984 83.24299621582031,-47.6150016784668 83.24299621582031,-47.6150016784668 C83.24299621582031,-47.6150016784668 69.56099700927734,-47.6150016784668 69.56099700927734,-47.6150016784668z M56.334999084472656,-11.300000190734863 C56.334999084472656,-11.300000190734863 55.263999938964844,-8.359999656677246 55.263999938964844,-8.359999656677246 C55.263999938964844,-8.359999656677246 57.393001556396484,-8.359999656677246 57.393001556396484,-8.359999656677246 C57.393001556396484,-8.359999656677246 56.334999084472656,-11.300000190734863 56.334999084472656,-11.300000190734863z M26.21299934387207,-39.165000915527344 C26.21299934387207,-39.165000915527344 37.24700164794922,-8.359999656677246 37.24700164794922,-8.359999656677246 C37.24700164794922,-8.359999656677246 54.89400100708008,-8.359999656677246 54.89400100708008,-8.359999656677246 C54.89400100708008,-8.359999656677246 56.150001525878906,-11.812000274658203 56.150001525878906,-11.812000274658203 C56.150001525878906,-11.812000274658203 43.2599983215332,-47.6150016784668 43.2599983215332,-47.6150016784668 C43.2599983215332,-47.6150016784668 29.20800018310547,-47.6150016784668 29.20800018310547,-47.6150016784668 C29.20800018310547,-47.6150016784668 26.117000579833984,-39.13100051879883 26.117000579833984,-39.13100051879883 C26.117000579833984,-39.13100051879883 26.21299934387207,-39.165000915527344 26.21299934387207,-39.165000915527344z M25.716999053955078,-37.45000076293945 C25.716999053955078,-37.45000076293945 15.16100025177002,-8.359999656677246 15.16100025177002,-8.359999656677246 C15.16100025177002,-8.359999656677246 36.138999938964844,-8.359999656677246 36.138999938964844,-8.359999656677246 C36.138999938964844,-8.359999656677246 25.716999053955078,-37.45000076293945 25.716999053955078,-37.45000076293945z M8.517999649047852,-47.6150016784668 C8.517999649047852,-47.6150016784668 -5.728000164031982,-8.359999656677246 -5.728000164031982,-8.359999656677246 C-5.728000164031982,-8.359999656677246 14.050999641418457,-8.359999656677246 14.050999641418457,-8.359999656677246 C14.050999641418457,-8.359999656677246 25.229999542236328,-39.16699981689453 25.229999542236328,-39.16699981689453 C25.229999542236328,-39.16699981689453 25.30299949645996,-39.14099884033203 25.30299949645996,-39.14099884033203 C25.30299949645996,-39.14099884033203 22.253000259399414,-47.6150016784668 22.253000259399414,-47.6150016784668 C22.253000259399414,-47.6150016784668 8.517999649047852,-47.6150016784668 8.517999649047852,-47.6150016784668z M-32.68899917602539,-47.6150016784668 C-32.68899917602539,-47.6150016784668 -39.277000427246094,-29.52400016784668 -39.277000427246094,-29.52400016784668 C-39.277000427246094,-29.52400016784668 -31.69499969482422,-8.359999656677246 -31.69499969482422,-8.359999656677246 C-31.69499969482422,-8.359999656677246 -7.176000118255615,-8.359999656677246 -7.176000118255615,-8.359999656677246 C-7.176000118255615,-8.359999656677246 7.119999885559082,-47.6150016784668 7.119999885559082,-47.6150016784668 C7.119999885559082,-47.6150016784668 -32.68899917602539,-47.6150016784668 -32.68899917602539,-47.6150016784668z M-39.83700180053711,-27.98900032043457 C-39.83700180053711,-27.98900032043457 -46.986000061035156,-8.359999656677246 -46.986000061035156,-8.359999656677246 C-46.986000061035156,-8.359999656677246 -32.80500030517578,-8.359999656677246 -32.80500030517578,-8.359999656677246 C-32.80500030517578,-8.359999656677246 -39.83700180053711,-27.98900032043457 -39.83700180053711,-27.98900032043457z M-52.77799987792969,-47.6150016784668 C-52.77799987792969,-47.6150016784668 -60.17399978637695,-27.23200035095215 -60.17399978637695,-27.23200035095215 C-60.17399978637695,-27.23200035095215 -53.38100051879883,-8.359999656677246 -53.38100051879883,-8.359999656677246 C-53.38100051879883,-8.359999656677246 -47.35499954223633,-8.359999656677246 -47.35499954223633,-8.359999656677246 C-47.35499954223633,-8.359999656677246 -40.020999908447266,-28.500999450683594 -40.020999908447266,-28.500999450683594 C-40.020999908447266,-28.500999450683594 -45.35900115966797,-43.40399932861328 -45.35900115966797,-43.40399932861328 C-45.35900115966797,-43.40399932861328 -46.875999450683594,-47.6150016784668 -46.875999450683594,-47.6150016784668 C-46.875999450683594,-47.6150016784668 -52.77799987792969,-47.6150016784668 -52.77799987792969,-47.6150016784668z M-60.361000061035156,-26.7189998626709 C-60.361000061035156,-26.7189998626709 -67.02300262451172,-8.359999656677246 -67.02300262451172,-8.359999656677246 C-67.02300262451172,-8.359999656677246 -53.75199890136719,-8.359999656677246 -53.75199890136719,-8.359999656677246 C-53.75199890136719,-8.359999656677246 -60.361000061035156,-26.7189998626709 -60.361000061035156,-26.7189998626709z M43.63100051879883,-47.6150016784668 C43.63100051879883,-47.6150016784668 56.33700180053711,-12.322999954223633 56.33700180053711,-12.322999954223633 C56.33700180053711,-12.322999954223633 69.18900299072266,-47.6150016784668 69.18900299072266,-47.6150016784668 C69.18900299072266,-47.6150016784668 43.63100051879883,-47.6150016784668 43.63100051879883,-47.6150016784668z M-67.51399993896484,-47.6150016784668 C-67.51399993896484,-47.6150016784668 -60.74100112915039,-28.801000595092773 -60.74100112915039,-28.801000595092773 C-60.74100112915039,-28.801000595092773 -54.236000061035156,-46.6619987487793 -54.236000061035156,-46.6619987487793 C-54.236000061035156,-46.6619987487793 -53.88999938964844,-47.6150016784668 -53.88999938964844,-47.6150016784668 C-53.88999938964844,-47.6150016784668 -67.51399993896484,-47.6150016784668 -67.51399993896484,-47.6150016784668z M-45.757999420166016,-47.6150016784668 C-45.757999420166016,-47.6150016784668 -39.46200180053711,-30.03700065612793 -39.46200180053711,-30.03700065612793 C-39.46200180053711,-30.03700065612793 -33.058998107910156,-47.6150016784668 -33.058998107910156,-47.6150016784668 C-33.058998107910156,-47.6150016784668 -45.757999420166016,-47.6150016784668 -45.757999420166016,-47.6150016784668z M22.621999740600586,-47.6150016784668 C22.621999740600586,-47.6150016784668 25.711999893188477,-39.03499984741211 25.711999893188477,-39.03499984741211 C25.711999893188477,-39.03499984741211 28.836999893188477,-47.6150016784668 28.836999893188477,-47.6150016784668 C28.836999893188477,-47.6150016784668 22.621999740600586,-47.6150016784668 22.621999740600586,-47.6150016784668z M84.35299682617188,-47.6150016784668 C84.35299682617188,-47.6150016784668 86.95600128173828,-40.35300064086914 86.95600128173828,-40.35300064086914 C86.95600128173828,-40.35300064086914 89.58999633789062,-47.6150016784668 89.58999633789062,-47.6150016784668 C89.58999633789062,-47.6150016784668 84.35299682617188,-47.6150016784668 84.35299682617188,-47.6150016784668z"></path></g><g opacity="1" transform="matrix(1,0,0,1,118.72000122070312,175.38699340820312)"><path stroke-linecap="butt" stroke-linejoin="miter" fill-opacity="0" stroke-miterlimit="10" stroke="rgb(255,255,255)" stroke-opacity="1" stroke-width="0.85" d=" M-91.41500091552734,-51.63800048828125 C-91.41500091552734,-51.63800048828125 -91.41500091552734,-6.622000217437744 -91.41500091552734,-6.622000217437744 C-91.41500091552734,-1.9889999628067017 -88.94400024414062,2.2920000553131104 -84.93199920654297,4.607999801635742 C-84.93199920654297,4.607999801635742 -6.484000205993652,49.89899826049805 -6.484000205993652,49.89899826049805 C-4.4770002365112305,51.05799865722656 -2.239000082015991,51.63800048828125 -0.0010000000474974513,51.63800048828125 C2.236999988555908,51.63800048828125 4.478000164031982,51.05799865722656 6.482999801635742,49.89899826049805 C6.482999801635742,49.89899826049805 84.93099975585938,4.607999801635742 84.93099975585938,4.607999801635742 C88.94200134277344,2.2920000553131104 91.41400146484375,-1.9889999628067017 91.41400146484375,-6.622000217437744 C91.41400146484375,-6.622000217437744 91.41400146484375,-51.63800048828125 91.41400146484375,-51.63800048828125"></path></g></g><g transform="matrix(1,0,0,1,22.5,15)" opacity="1" style="display: block;"><g opacity="1" transform="matrix(1,0,0,1,118.72000122070312,143.52200317382812)"><path fill="rgb(161,218,106)" fill-opacity="1" d=" M114.90299987792969,23.05699920654297 C114.90299987792969,23.05699920654297 -114.90299987792969,23.05699920654297 -114.90299987792969,23.05699920654297 C-116.52799987792969,23.05699920654297 -117.84500122070312,21.739999771118164 -117.84500122070312,20.115999221801758 C-117.84500122070312,20.115999221801758 -117.84500122070312,-16.482999801635742 -117.84500122070312,-16.482999801635742 C-117.84500122070312,-20.11400032043457 -114.9020004272461,-23.05699920654297 -111.27200317382812,-23.05699920654297 C-111.27200317382812,-23.05699920654297 111.27200317382812,-23.05699920654297 111.27200317382812,-23.05699920654297 C114.9020004272461,-23.05699920654297 117.84500122070312,-20.11400032043457 117.84500122070312,-16.482999801635742 C117.84500122070312,-16.482999801635742 117.84500122070312,20.115999221801758 117.84500122070312,20.115999221801758 C117.84500122070312,21.739999771118164 116.52799987792969,23.05699920654297 114.90299987792969,23.05699920654297z"></path></g><g opacity="1" transform="matrix(1,0,0,1,25.59000015258789,143.65199279785156)"><path fill="rgb(255,255,255)" fill-opacity="1" d=" M-2.686000108718872,5.423999786376953 C-3.569999933242798,4.890999794006348 -4.25600004196167,4.163000106811523 -4.743000030517578,3.239000082015991 C-5.230000019073486,2.315000057220459 -5.473999977111816,1.2920000553131104 -5.473999977111816,0.17000000178813934 C-5.473999977111816,-0.906000018119812 -5.244999885559082,-1.934999942779541 -4.785999774932861,-2.9149999618530273 C-4.326000213623047,-3.8949999809265137 -3.6500000953674316,-4.690999984741211 -2.753999948501587,-5.302999973297119 C-1.8589999675750732,-5.915999889373779 -0.7820000052452087,-6.2220001220703125 0.47600001096725464,-6.2220001220703125 C0.9290000200271606,-6.2220001220703125 1.4190000295639038,-6.1479997634887695 1.9459999799728394,-6 C2.4730000495910645,-5.853000164031982 2.9579999446868896,-5.64900016784668 3.4000000953674316,-5.388000011444092 C3.4000000953674316,-5.388000011444092 3.4170000553131104,-5.388000011444092 3.4170000553131104,-5.388000011444092 C3.4170000553131104,-5.388000011444092 3.3489999771118164,-6.1020002365112305 3.3489999771118164,-6.1020002365112305 C3.3489999771118164,-6.1020002365112305 4.6579999923706055,-6.1020002365112305 4.6579999923706055,-6.1020002365112305 C4.6579999923706055,-6.1020002365112305 4.6579999923706055,-2.1419999599456787 4.6579999923706055,-2.1419999599456787 C4.6579999923706055,-2.1419999599456787 3.552999973297119,-2.1419999599456787 3.552999973297119,-2.1419999599456787 C3.246999979019165,-4.021999835968018 2.2950000762939453,-4.973999977111816 0.6970000267028809,-4.997000217437744 C-0.06300000101327896,-4.997000217437744 -0.7059999704360962,-4.7729997634887695 -1.2330000400543213,-4.326000213623047 C-1.7599999904632568,-3.878000020980835 -2.1530001163482666,-3.2860000133514404 -2.4140000343322754,-2.549999952316284 C-2.674999952316284,-1.812999963760376 -2.805000066757202,-1.0190000534057617 -2.805000066757202,-0.17000000178813934 C-2.805000066757202,0.8050000071525574 -2.6640000343322754,1.6720000505447388 -2.380000114440918,2.430999994277954 C-2.0969998836517334,3.190999984741211 -1.6890000104904175,3.7829999923706055 -1.156000018119812,4.208000183105469 C-0.6240000128746033,4.631999969482422 0.017000000923871994,4.84499979019165 0.7649999856948853,4.84499979019165 C1.4900000095367432,4.84499979019165 2.2009999752044678,4.6579999923706055 2.8980000019073486,4.283999919891357 C3.5950000286102295,3.9100000858306885 4.182000160217285,3.4010000228881836 4.6579999923706055,2.755000114440918 C4.6579999923706055,2.755000114440918 5.473999977111816,3.502000093460083 5.473999977111816,3.502000093460083 C4.72599983215332,4.533999919891357 3.9040000438690186,5.244999885559082 3.009000062942505,5.635000228881836 C2.11299991607666,6.026000022888184 1.2289999723434448,6.2220001220703125 0.3569999933242798,6.2220001220703125 C-0.7879999876022339,6.2220001220703125 -1.8020000457763672,5.955999851226807 -2.686000108718872,5.423999786376953z"></path></g><g opacity="1" transform="matrix(1,0,0,1,38.96799850463867,143.78900146484375)"><path fill="rgb(255,255,255)" fill-opacity="1" d=" M-3.7139999866485596,4.665999889373779 C-4.455999851226807,3.7200000286102295 -4.827000141143799,2.436000108718872 -4.827000141143799,0.8149999976158142 C-4.827000141143799,0.8149999976158142 -4.827000141143799,-3.2990000247955322 -4.827000141143799,-3.2990000247955322 C-4.827000141143799,-3.933000087738037 -4.806000232696533,-4.442999839782715 -4.760000228881836,-4.828000068664551 C-4.760000228881836,-4.828000068664551 -6.034999847412109,-4.7769999504089355 -6.034999847412109,-4.7769999504089355 C-6.034999847412109,-4.7769999504089355 -6.034999847412109,-6.085999965667725 -6.034999847412109,-6.085999965667725 C-6.034999847412109,-6.085999965667725 -1.156000018119812,-6.085999965667725 -1.156000018119812,-6.085999965667725 C-1.156000018119812,-6.085999965667725 -1.156000018119812,-4.965000152587891 -1.156000018119812,-4.965000152587891 C-1.4509999752044678,-4.953000068664551 -1.6799999475479126,-4.915999889373779 -1.843999981880188,-4.854000091552734 C-2.007999897003174,-4.790999889373779 -2.13700008392334,-4.658999919891357 -2.2269999980926514,-4.453999996185303 C-2.318000078201294,-4.25 -2.36299991607666,-3.9260001182556152 -2.36299991607666,-3.4839999675750732 C-2.36299991607666,-3.4839999675750732 -2.36299991607666,1.190000057220459 -2.36299991607666,1.190000057220459 C-2.36299991607666,3.5920000076293945 -1.4110000133514404,4.793000221252441 0.49300000071525574,4.793000221252441 C1.3880000114440918,4.793000221252441 2.0829999446868896,4.486999988555908 2.5759999752044678,3.875 C3.069000005722046,3.2639999389648438 3.313999891281128,2.3570001125335693 3.313999891281128,1.1549999713897705 C3.313999891281128,1.1549999713897705 3.313999891281128,-3.2990000247955322 3.313999891281128,-3.2990000247955322 C3.313999891281128,-4.058000087738037 3.3380000591278076,-4.566999912261963 3.382999897003174,-4.828000068664551 C3.382999897003174,-4.828000068664551 2.0899999141693115,-4.7769999504089355 2.0899999141693115,-4.7769999504089355 C2.0899999141693115,-4.7769999504089355 2.0899999141693115,-6.085999965667725 2.0899999141693115,-6.085999965667725 C2.0899999141693115,-6.085999965667725 6.034999847412109,-6.085999965667725 6.034999847412109,-6.085999965667725 C6.034999847412109,-6.085999965667725 6.034999847412109,-4.965000152587891 6.034999847412109,-4.965000152587891 C5.729000091552734,-4.953000068664551 5.497000217437744,-4.915999889373779 5.3379998207092285,-4.854000091552734 C5.178999900817871,-4.790999889373779 5.054999828338623,-4.658999919891357 4.964000225067139,-4.453999996185303 C4.873000144958496,-4.25 4.827000141143799,-3.9260001182556152 4.827000141143799,-3.4839999675750732 C4.827000141143799,-3.4839999675750732 4.827000141143799,0.7639999985694885 4.827000141143799,0.7639999985694885 C4.827000141143799,2.622999906539917 4.400000095367432,3.9749999046325684 3.5450000762939453,4.817999839782715 C2.688999891281128,5.663000106811523 1.5299999713897705,6.085000038146973 0.06800000369548798,6.085000038146973 C-1.7109999656677246,6.085000038146973 -2.9719998836517334,5.611999988555908 -3.7139999866485596,4.665999889373779z"></path></g><g opacity="1" transform="matrix(1,0,0,1,51.83700180053711,143.65199279785156)"><path fill="rgb(255,255,255)" fill-opacity="1" d=" M-1.4190000295639038,6.000999927520752 C-1.9459999799728394,5.854000091552734 -2.430000066757202,5.650000095367432 -2.871999979019165,5.388999938964844 C-2.871999979019165,5.388999938964844 -2.8889999389648438,5.388999938964844 -2.8889999389648438,5.388999938964844 C-2.8889999389648438,5.388999938964844 -2.8399999141693115,6.104000091552734 -2.8399999141693115,6.104000091552734 C-2.8399999141693115,6.104000091552734 -4.1479997634887695,6.104000091552734 -4.1479997634887695,6.104000091552734 C-4.1479997634887695,6.104000091552734 -4.1479997634887695,2.125 -4.1479997634887695,2.125 C-4.1479997634887695,2.125 -3.0250000953674316,2.125 -3.0250000953674316,2.125 C-2.878000020980835,3.055000066757202 -2.5220000743865967,3.7660000324249268 -1.9559999704360962,4.258999824523926 C-1.3890000581741333,4.751999855041504 -0.6980000138282776,4.998000144958496 0.11800000071525574,4.998000144958496 C0.7080000042915344,4.998000144958496 1.1959999799728394,4.8429999351501465 1.5809999704360962,4.531000137329102 C1.965999960899353,4.218999862670898 2.1589999198913574,3.8420000076293945 2.1589999198913574,3.4010000228881836 C2.1589999198913574,3.0380001068115234 2.0320000648498535,2.7260000705718994 1.7769999504089355,2.4649999141693115 C1.5219999551773071,2.2049999237060547 1.2380000352859497,2.000999927520752 0.9259999990463257,1.8530000448226929 C0.6140000224113464,1.7059999704360962 0.11800000071525574,1.496000051498413 -0.5609999895095825,1.2239999771118164 C-1.8079999685287476,0.7260000109672546 -2.763000011444092,0.1589999943971634 -3.4260001182556152,-0.47600001096725464 C-4.089000225067139,-1.1109999418258667 -4.419000148773193,-1.9429999589920044 -4.419000148773193,-2.9739999771118164 C-4.419000148773193,-3.496000051498413 -4.289999961853027,-4.002999782562256 -4.0289998054504395,-4.495999813079834 C-3.7690000534057617,-4.988999843597412 -3.3399999141693115,-5.39900016784668 -2.744999885559082,-5.728000164031982 C-2.1500000953674316,-6.057000160217285 -1.3830000162124634,-6.2220001220703125 -0.4429999887943268,-6.2220001220703125 C0.04500000178813934,-6.2220001220703125 0.5559999942779541,-6.150000095367432 1.0880000591278076,-6.008999824523926 C1.621000051498413,-5.867000102996826 2.062000036239624,-5.665999889373779 2.4130001068115234,-5.40500020980835 C2.4130001068115234,-5.40500020980835 2.430000066757202,-5.40500020980835 2.430000066757202,-5.40500020980835 C2.430000066757202,-5.40500020980835 2.36299991607666,-6.1020002365112305 2.36299991607666,-6.1020002365112305 C2.36299991607666,-6.1020002365112305 3.688999891281128,-6.1020002365112305 3.688999891281128,-6.1020002365112305 C3.688999891281128,-6.1020002365112305 3.688999891281128,-2.1419999599456787 3.688999891281128,-2.1419999599456787 C3.688999891281128,-2.1419999599456787 2.565999984741211,-2.1419999599456787 2.565999984741211,-2.1419999599456787 C2.4189999103546143,-3.071000099182129 2.0940001010894775,-3.7790000438690186 1.590000033378601,-4.267000198364258 C1.0859999656677246,-4.752999782562256 0.44200000166893005,-4.997000217437744 -0.3400000035762787,-4.997000217437744 C-0.8489999771118164,-4.997000217437744 -1.2899999618530273,-4.859000205993652 -1.6579999923706055,-4.580999851226807 C-2.0260000228881836,-4.302999973297119 -2.2100000381469727,-3.9549999237060547 -2.2100000381469727,-3.5360000133514404 C-2.2100000381469727,-3.0360000133514404 -2.000999927520752,-2.617000102996826 -1.5809999704360962,-2.2769999504089355 C-1.1619999408721924,-1.937000036239624 -0.453000009059906,-1.5640000104904175 0.5440000295639038,-1.156000018119812 C1.6890000104904175,-0.7020000219345093 2.619999885559082,-0.17800000309944153 3.3399999141693115,0.4169999957084656 C4.059000015258789,1.0119999647140503 4.419000148773193,1.8020000457763672 4.419000148773193,2.7880001068115234 C4.419000148773193,3.4570000171661377 4.238999843597412,4.052000045776367 3.875999927520752,4.572999954223633 C3.513000011444092,5.09499979019165 3.003000020980835,5.5 2.3459999561309814,5.789000034332275 C1.6890000104904175,6.078000068664551 0.9290000200271606,6.2220001220703125 0.06800000369548798,6.2220001220703125 C-0.3970000147819519,6.2220001220703125 -0.8920000195503235,6.14900016784668 -1.4190000295639038,6.000999927520752z"></path></g><g opacity="1" transform="matrix(1,0,0,1,63.643001556396484,143.6529998779297)"><path fill="rgb(255,255,255)" fill-opacity="1" d=" M-2.4560000896453857,4.827000141143799 C-2.1500000953674316,4.815999984741211 -1.9190000295639038,4.7789998054504395 -1.7599999904632568,4.7170000076293945 C-1.6009999513626099,4.65500020980835 -1.4759999513626099,4.520999908447266 -1.3849999904632568,4.317999839782715 C-1.2949999570846558,4.11299991607666 -1.25,3.7899999618530273 -1.25,3.3489999771118164 C-1.25,3.3489999771118164 -1.25,-4.794000148773193 -1.25,-4.794000148773193 C-1.25,-4.794000148773193 -2.0320000648498535,-4.794000148773193 -2.0320000648498535,-4.794000148773193 C-2.7009999752044678,-4.7829999923706055 -3.2160000801086426,-4.556000232696533 -3.5789999961853027,-4.113999843597412 C-3.941999912261963,-3.671999931335449 -4.122000217437744,-3.003000020980835 -4.122000217437744,-2.1080000400543213 C-4.122000217437744,-2.1080000400543213 -5.244999885559082,-2.1080000400543213 -5.244999885559082,-2.1080000400543213 C-5.244999885559082,-2.1080000400543213 -5.159999847412109,-5.949999809265137 -5.159999847412109,-5.949999809265137 C-5.159999847412109,-5.949999809265137 5.140999794006348,-5.949999809265137 5.140999794006348,-5.949999809265137 C5.140999794006348,-5.949999809265137 5.244999885559082,-2.1080000400543213 5.244999885559082,-2.1080000400543213 C5.244999885559082,-2.1080000400543213 4.122000217437744,-2.1080000400543213 4.122000217437744,-2.1080000400543213 C4.122000217437744,-3.003000020980835 3.937000036239624,-3.680999994277954 3.569999933242798,-4.138999938964844 C3.2009999752044678,-4.598999977111816 2.687999963760376,-4.822000026702881 2.0309998989105225,-4.810999870300293 C2.0309998989105225,-4.810999870300293 1.215000033378601,-4.810999870300293 1.215000033378601,-4.810999870300293 C1.215000033378601,-4.810999870300293 1.215000033378601,3.1610000133514404 1.215000033378601,3.1610000133514404 C1.215000033378601,3.9210000038146973 1.1929999589920044,4.431000232696533 1.1480000019073486,4.691999912261963 C1.5219999551773071,4.6579999923706055 1.9739999771118164,4.640999794006348 2.506999969482422,4.640999794006348 C2.506999969482422,4.640999794006348 2.506999969482422,5.949999809265137 2.506999969482422,5.949999809265137 C2.506999969482422,5.949999809265137 -2.4560000896453857,5.949999809265137 -2.4560000896453857,5.949999809265137 C-2.4560000896453857,5.949999809265137 -2.4560000896453857,4.827000141143799 -2.4560000896453857,4.827000141143799z"></path></g><g opacity="1" transform="matrix(1,0,0,1,76.98799896240234,143.65199279785156)"><path fill="rgb(255,255,255)" fill-opacity="1" d=" M1.9470000267028809,4.283999919891357 C2.4110000133514404,3.819999933242798 2.744999885559082,3.2300000190734863 2.9489998817443848,2.5160000324249268 C3.1519999504089355,1.8020000457763672 3.255000114440918,1.0609999895095825 3.255000114440918,0.289000004529953 C3.255000114440918,-1.319000005722046 2.9719998836517334,-2.5999999046325684 2.4059998989105225,-3.552999973297119 C1.8389999866485596,-4.505000114440918 0.9990000128746033,-4.980000019073486 -0.11100000143051147,-4.980000019073486 C-0.859000027179718,-4.980000019073486 -1.4709999561309814,-4.742000102996826 -1.9470000267028809,-4.267000198364258 C-2.4230000972747803,-3.7899999618530273 -2.763000011444092,-3.190000057220459 -2.9670000076293945,-2.4649999141693115 C-3.1710000038146973,-1.7389999628067017 -3.2730000019073486,-0.9850000143051147 -3.2730000019073486,-0.20399999618530273 C-3.2730000019073486,0.5889999866485596 -3.1600000858306885,1.3839999437332153 -2.933000087738037,2.1760001182556152 C-2.7070000171661377,2.9690001010894775 -2.3359999656677246,3.634999990463257 -1.819000005722046,4.173999786376953 C-1.3040000200271606,4.711999893188477 -0.6489999890327454,4.980999946594238 0.14499999582767487,4.980999946594238 C0.8820000290870667,4.980999946594238 1.4819999933242798,4.749000072479248 1.9470000267028809,4.283999919891357z M-3.3919999599456787,5.321000099182129 C-4.276000022888184,4.7210001945495605 -4.921999931335449,3.950000047683716 -5.329999923706055,3.009000062942505 C-5.73799991607666,2.069000005722046 -5.941999912261963,1.065999984741211 -5.941999912261963,0.0010000000474974513 C-5.941999912261963,-1.0080000162124634 -5.716000080108643,-1.9880000352859497 -5.26200008392334,-2.940999984741211 C-4.809000015258789,-3.8929998874664307 -4.13100004196167,-4.677000045776367 -3.2309999465942383,-5.295000076293945 C-2.3299999237060547,-5.913000106811523 -1.2450000047683716,-6.2220001220703125 0.02500000037252903,-6.2220001220703125 C1.3279999494552612,-6.2220001220703125 2.4240000247955322,-5.913000106811523 3.313999891281128,-5.295000076293945 C4.203999996185303,-4.677000045776367 4.863999843597412,-3.8929998874664307 5.296000003814697,-2.940999984741211 C5.72599983215332,-1.9880000352859497 5.940999984741211,-1.0080000162124634 5.940999984741211,0.0010000000474974513 C5.940999984741211,0.9869999885559082 5.715000152587891,1.9579999446868896 5.26200008392334,2.9159998893737793 C4.808000087738037,3.874000072479248 4.130000114440918,4.664000034332275 3.2290000915527344,5.2870001792907715 C2.328000068664551,5.910999774932861 1.2430000305175781,6.2220001220703125 -0.026000000536441803,6.2220001220703125 C-1.3860000371932983,6.2220001220703125 -2.507999897003174,5.921999931335449 -3.3919999599456787,5.321000099182129z"></path></g><g opacity="1" transform="matrix(1,0,0,1,92.89900207519531,143.73800659179688)"><path fill="rgb(255,255,255)" fill-opacity="1" d=" M-3.6640000343322754,0.44200000166893005 C-3.8340001106262207,0.04600000008940697 -4.034999847412109,-0.5099999904632568 -4.267000198364258,-1.2239999771118164 C-4.499000072479248,-1.937999963760376 -4.695000171661377,-2.6630001068115234 -4.854000091552734,-3.4000000953674316 C-4.854000091552734,-3.4000000953674316 -4.870999813079834,-3.4000000953674316 -4.870999813079834,-3.4000000953674316 C-4.836999893188477,-2.368000030517578 -4.820000171661377,-1.4279999732971191 -4.820000171661377,-0.578000009059906 C-4.820000171661377,-0.578000009059906 -4.820000171661377,0 -4.820000171661377,0 C-4.820000171661377,0 -4.836999893188477,3.0769999027252197 -4.836999893188477,3.0769999027252197 C-4.836999893188477,3.7799999713897705 -4.864999771118164,4.289999961853027 -4.921999931335449,4.60699987411499 C-4.547999858856201,4.572999954223633 -4.117000102996826,4.556000232696533 -3.630000114440918,4.556000232696533 C-3.630000114440918,4.556000232696533 -3.630000114440918,5.864999771118164 -3.630000114440918,5.864999771118164 C-3.630000114440918,5.864999771118164 -7.505000114440918,5.864999771118164 -7.505000114440918,5.864999771118164 C-7.505000114440918,5.864999771118164 -7.505000114440918,4.743000030517578 -7.505000114440918,4.743000030517578 C-7.198999881744385,4.73199987411499 -6.9679999351501465,4.693999767303467 -6.808000087738037,4.631999969482422 C-6.650000095367432,4.570000171661377 -6.525000095367432,4.436999797821045 -6.434000015258789,4.232999801635742 C-6.343999862670898,4.0289998054504395 -6.298999786376953,3.7060000896453857 -6.298999786376953,3.2639999389648438 C-6.298999786376953,3.2639999389648438 -6.197000026702881,-3.246999979019165 -6.197000026702881,-3.246999979019165 C-6.173999786376953,-4.073999881744385 -6.151000022888184,-4.584000110626221 -6.127999782562256,-4.7769999504089355 C-6.127999782562256,-4.7769999504089355 -7.4039998054504395,-4.724999904632568 -7.4039998054504395,-4.724999904632568 C-7.4039998054504395,-4.724999904632568 -7.4039998054504395,-6.033999919891357 -7.4039998054504395,-6.033999919891357 C-7.4039998054504395,-6.033999919891357 -3.6470000743865967,-6.033999919891357 -3.6470000743865967,-6.033999919891357 C-3.6470000743865967,-6.033999919891357 -1.0800000429153442,0.5440000295639038 -1.0800000429153442,0.5440000295639038 C-0.9100000262260437,0.9860000014305115 -0.7279999852180481,1.4739999771118164 -0.5360000133514404,2.00600004196167 C-0.34299999475479126,2.5390000343322754 -0.20800000429153442,2.947000026702881 -0.12800000607967377,3.2300000190734863 C-0.12800000607967377,3.2300000190734863 -0.11100000143051147,3.2300000190734863 -0.11100000143051147,3.2300000190734863 C-0.06499999761581421,3.117000102996826 0.05900000035762787,2.7660000324249268 0.2630000114440918,2.1760001182556152 C0.421999990940094,1.7120000123977661 0.5630000233650208,1.3140000104904175 0.6880000233650208,0.9860000014305115 C0.6880000233650208,0.9860000014305115 3.322999954223633,-6.033999919891357 3.322999954223633,-6.033999919891357 C3.322999954223633,-6.033999919891357 7.25,-6.033999919891357 7.25,-6.033999919891357 C7.25,-6.033999919891357 7.25,-4.913000106811523 7.25,-4.913000106811523 C6.943999767303467,-4.901000022888184 6.705999851226807,-4.864999771118164 6.535999774932861,-4.802000045776367 C6.366000175476074,-4.739999771118164 6.235000133514404,-4.60699987411499 6.144999980926514,-4.4019999504089355 C6.053999900817871,-4.198999881744385 6.013999938964844,-3.875999927520752 6.026000022888184,-3.434000015258789 C6.026000022888184,-3.434000015258789 6.281000137329102,3.0769999027252197 6.281000137329102,3.0769999027252197 C6.315000057220459,3.6549999713897705 6.291999816894531,4.164999961853027 6.2129998207092285,4.60699987411499 C6.586999893188477,4.572999954223633 7.017000198364258,4.556000232696533 7.505000114440918,4.556000232696533 C7.505000114440918,4.556000232696533 7.505000114440918,5.864999771118164 7.505000114440918,5.864999771118164 C7.505000114440918,5.864999771118164 2.7790000438690186,5.864999771118164 2.7790000438690186,5.864999771118164 C2.7790000438690186,5.864999771118164 2.7790000438690186,4.743000030517578 2.7790000438690186,4.743000030517578 C3.0850000381469727,4.73199987411499 3.319999933242798,4.693999767303467 3.4839999675750732,4.631999969482422 C3.6480000019073486,4.570000171661377 3.7760000228881836,4.436999797821045 3.867000102996826,4.232999801635742 C3.9570000171661377,4.0289998054504395 3.996999979019165,3.7060000896453857 3.9860000610351562,3.2639999389648438 C3.9860000610351562,3.2639999389648438 3.8499999046325684,-0.3400000035762787 3.8499999046325684,-0.3400000035762787 C3.8499999046325684,-0.3400000035762787 3.815999984741211,-0.9860000014305115 3.815999984741211,-0.9860000014305115 C3.759000062942505,-2.0850000381469727 3.7249999046325684,-2.8499999046325684 3.7139999866485596,-3.2809998989105225 C3.7139999866485596,-3.2809998989105225 3.697000026702881,-3.2809998989105225 3.697000026702881,-3.2809998989105225 C3.697000026702881,-3.2809998989105225 0.21199999749660492,6.033999919891357 0.21199999749660492,6.033999919891357 C0.21199999749660492,6.033999919891357 -1.36899995803833,6.033999919891357 -1.36899995803833,6.033999919891357 C-1.36899995803833,6.033999919891357 -3.6640000343322754,0.44200000166893005 -3.6640000343322754,0.44200000166893005z"></path></g><g opacity="1" transform="matrix(1,0,0,1,107.77200317382812,143.6529998779297)"><path fill="rgb(255,255,255)" fill-opacity="1" d=" M-4.531000137329102,4.827000141143799 C-4.224999904632568,4.815999984741211 -3.990999937057495,4.7789998054504395 -3.8329999446868896,4.7170000076293945 C-3.6740000247955322,4.65500020980835 -3.5510001182556152,4.520999908447266 -3.4600000381469727,4.317999839782715 C-3.36899995803833,4.11299991607666 -3.322999954223633,3.7899999618530273 -3.322999954223633,3.3489999771118164 C-3.322999954223633,3.3489999771118164 -3.322999954223633,-3.1619999408721924 -3.322999954223633,-3.1619999408721924 C-3.322999954223633,-3.7960000038146973 -3.3010001182556152,-4.307000160217285 -3.25600004196167,-4.691999912261963 C-3.25600004196167,-4.691999912261963 -4.531000137329102,-4.640999794006348 -4.531000137329102,-4.640999794006348 C-4.531000137329102,-4.640999794006348 -4.531000137329102,-5.949999809265137 -4.531000137329102,-5.949999809265137 C-4.531000137329102,-5.949999809265137 3.9700000286102295,-5.949999809265137 3.9700000286102295,-5.949999809265137 C3.9700000286102295,-5.949999809265137 4.072000026702881,-2.6519999504089355 4.072000026702881,-2.6519999504089355 C4.072000026702881,-2.6519999504089355 2.950000047683716,-2.6519999504089355 2.950000047683716,-2.6519999504089355 C2.950000047683716,-3.490000009536743 2.749000072479248,-4.072000026702881 2.3459999561309814,-4.394999980926514 C1.944000005722046,-4.7179999351501465 1.4600000381469727,-4.867000102996826 0.8930000066757202,-4.84499979019165 C0.8930000066757202,-4.84499979019165 0.2809999883174896,-4.828000068664551 0.2809999883174896,-4.828000068664551 C0.008999999612569809,-4.815999984741211 -0.2070000022649765,-4.78000020980835 -0.3659999966621399,-4.7179999351501465 C-0.5249999761581421,-4.65500020980835 -0.6460000276565552,-4.515999794006348 -0.7319999933242798,-4.301000118255615 C-0.8159999847412109,-4.085999965667725 -0.859000027179718,-3.7679998874664307 -0.859000027179718,-3.3489999771118164 C-0.859000027179718,-3.3489999771118164 -0.859000027179718,-0.7990000247955322 -0.859000027179718,-0.7990000247955322 C-0.859000027179718,-0.7990000247955322 1.1299999952316284,-0.7990000247955322 1.1299999952316284,-0.7990000247955322 C1.11899995803833,-0.9919999837875366 1.0959999561309814,-1.4839999675750732 1.062000036239624,-2.2780001163482666 C1.062000036239624,-2.2780001163482666 2.371999979019165,-2.2780001163482666 2.371999979019165,-2.2780001163482666 C2.371999979019165,-2.2780001163482666 2.371999979019165,1.8530000448226929 2.371999979019165,1.8530000448226929 C2.371999979019165,1.8530000448226929 1.25,1.8530000448226929 1.25,1.8530000448226929 C1.25,1.3990000486373901 1.1790000200271606,1.065000057220459 1.0379999876022339,0.8500000238418579 C0.8960000276565552,0.6349999904632568 0.7120000123977661,0.4959999918937683 0.48500001430511475,0.43299999833106995 C0.257999986410141,0.3709999918937683 -0.0430000014603138,0.34599998593330383 -0.4169999957084656,0.3569999933242798 C-0.4169999957084656,0.3569999933242798 -0.859000027179718,0.37400001287460327 -0.859000027179718,0.37400001287460327 C-0.859000027179718,0.37400001287460327 -0.859000027179718,3.1610000133514404 -0.859000027179718,3.1610000133514404 C-0.859000027179718,3.7730000019073486 -0.8809999823570251,4.2729997634887695 -0.9259999990463257,4.6579999923706055 C-0.9259999990463257,4.6579999923706055 1.3519999980926514,4.6579999923706055 1.3519999980926514,4.6579999923706055 C1.9299999475479126,4.6579999923706055 2.4200000762939453,4.461999893188477 2.822999954223633,4.071000099182129 C3.2249999046325684,3.680000066757202 3.4260001182556152,3.059999942779541 3.4260001182556152,2.2100000381469727 C3.4260001182556152,2.2100000381469727 4.531000137329102,2.2100000381469727 4.531000137329102,2.2100000381469727 C4.531000137329102,2.2100000381469727 4.446000099182129,5.949999809265137 4.446000099182129,5.949999809265137 C4.446000099182129,5.949999809265137 -4.531000137329102,5.949999809265137 -4.531000137329102,5.949999809265137 C-4.531000137329102,5.949999809265137 -4.531000137329102,4.827000141143799 -4.531000137329102,4.827000141143799z"></path></g><g opacity="1" transform="matrix(1,0,0,1,120.41100311279297,143.6300048828125)"><path fill="rgb(255,255,255)" fill-opacity="1" d=" M1.215000033378601,-0.4959999918937683 C1.628999948501587,-0.9100000262260437 1.8350000381469727,-1.5579999685287476 1.8350000381469727,-2.441999912261963 C1.8350000381469727,-3.382999897003174 1.593999981880188,-4.00600004196167 1.1130000352859497,-4.311999797821045 C0.6309999823570251,-4.618000030517578 0.10100000351667404,-4.770999908447266 -0.47699999809265137,-4.770999908447266 C-0.8730000257492065,-4.770999908447266 -1.1629999876022339,-4.685999870300293 -1.343000054359436,-4.515999794006348 C-1.524999976158142,-4.3460001945495605 -1.6150000095367432,-3.9830000400543213 -1.6150000095367432,-3.427999973297119 C-1.6150000095367432,-3.427999973297119 -1.6150000095367432,0.05700000002980232 -1.6150000095367432,0.05700000002980232 C-1.274999976158142,0.10199999809265137 -1.0019999742507935,0.12399999797344208 -0.7990000247955322,0.12399999797344208 C0.12999999523162842,0.12399999797344208 0.8009999990463257,-0.0820000022649765 1.215000033378601,-0.4959999918937683z M-5.285999774932861,4.849999904632568 C-4.980000019073486,4.839000225067139 -4.749000072479248,4.802000045776367 -4.590000152587891,4.739999771118164 C-4.431000232696533,4.677999973297119 -4.307000160217285,4.544000148773193 -4.2170000076293945,4.341000080108643 C-4.125999927520752,4.136000156402588 -4.079999923706055,3.812999963760376 -4.079999923706055,3.371999979019165 C-4.079999923706055,3.371999979019165 -4.079999923706055,-3.1389999389648438 -4.079999923706055,-3.1389999389648438 C-4.079999923706055,-3.7730000019073486 -4.057000160217285,-4.283999919891357 -4.01200008392334,-4.669000148773193 C-4.01200008392334,-4.669000148773193 -5.285999774932861,-4.618000030517578 -5.285999774932861,-4.618000030517578 C-5.285999774932861,-4.618000030517578 -5.285999774932861,-5.927000045776367 -5.285999774932861,-5.927000045776367 C-5.285999774932861,-5.927000045776367 -0.46000000834465027,-5.960999965667725 -0.46000000834465027,-5.960999965667725 C1.093000054359436,-5.9720001220703125 2.2920000553131104,-5.699999809265137 3.13700008392334,-5.144999980926514 C3.9809999465942383,-4.590000152587891 4.4039998054504395,-3.688999891281128 4.4039998054504395,-2.441999912261963 C4.4039998054504395,-1.659999966621399 4.150000095367432,-0.9660000205039978 3.6459999084472656,-0.36000001430511475 C3.1410000324249268,0.24699999392032623 2.3970000743865967,0.6919999718666077 1.4110000133514404,0.9750000238418579 C1.4110000133514404,0.9750000238418579 1.4110000133514404,0.9919999837875366 1.4110000133514404,0.9919999837875366 C1.6139999628067017,1.0709999799728394 1.8240000009536743,1.2100000381469727 2.0399999618530273,1.4079999923706055 C2.253999948501587,1.6069999933242798 2.436000108718872,1.8240000009536743 2.5829999446868896,2.062999963760376 C2.5829999446868896,2.062999963760376 3.382999897003174,3.253000020980835 3.382999897003174,3.253000020980835 C3.7679998874664307,3.8529999256134033 4.089000225067139,4.267000198364258 4.343999862670898,4.493000030517578 C4.598999977111816,4.7210001945495605 4.9120001792907715,4.839000225067139 5.285999774932861,4.849999904632568 C5.285999774932861,4.849999904632568 5.285999774932861,5.9730000495910645 5.285999774932861,5.9730000495910645 C5.285999774932861,5.9730000495910645 2.4820001125335693,5.9730000495910645 2.4820001125335693,5.9730000495910645 C2.2899999618530273,5.835999965667725 2.0969998836517334,5.640999794006348 1.9040000438690186,5.386000156402588 C1.7120000123977661,5.13100004196167 1.4889999628067017,4.794000148773193 1.2400000095367432,4.375 C1.2400000095367432,4.375 -0.017000000923871994,2.3350000381469727 -0.017000000923871994,2.3350000381469727 C-0.3009999990463257,1.88100004196167 -0.5379999876022339,1.5529999732971191 -0.7300000190734863,1.3489999771118164 C-0.7300000190734863,1.3489999771118164 -1.6150000095367432,1.3489999771118164 -1.6150000095367432,1.3489999771118164 C-1.6150000095367432,1.3489999771118164 -1.6150000095367432,3.1670000553131104 -1.6150000095367432,3.1670000553131104 C-1.6150000095367432,3.812999963760376 -1.6380000114440918,4.329999923706055 -1.6829999685287476,4.715000152587891 C-1.3209999799728394,4.681000232696533 -0.8399999737739563,4.664000034332275 -0.23800000548362732,4.664000034332275 C-0.23800000548362732,4.664000034332275 -0.23800000548362732,5.9730000495910645 -0.23800000548362732,5.9730000495910645 C-0.23800000548362732,5.9730000495910645 -5.285999774932861,5.9730000495910645 -5.285999774932861,5.9730000495910645 C-5.285999774932861,5.9730000495910645 -5.285999774932861,4.849999904632568 -5.285999774932861,4.849999904632568z"></path></g><g opacity="1" transform="matrix(1,0,0,1,138.10800170898438,143.65199279785156)"><path fill="rgb(255,255,255)" fill-opacity="1" d=" M-1.4199999570846558,6.000999927520752 C-1.9459999799728394,5.854000091552734 -2.430999994277954,5.650000095367432 -2.872999906539917,5.388999938964844 C-2.872999906539917,5.388999938964844 -2.890000104904175,5.388999938964844 -2.890000104904175,5.388999938964844 C-2.890000104904175,5.388999938964844 -2.8389999866485596,6.104000091552734 -2.8389999866485596,6.104000091552734 C-2.8389999866485596,6.104000091552734 -4.1479997634887695,6.104000091552734 -4.1479997634887695,6.104000091552734 C-4.1479997634887695,6.104000091552734 -4.1479997634887695,2.125 -4.1479997634887695,2.125 C-4.1479997634887695,2.125 -3.0260000228881836,2.125 -3.0260000228881836,2.125 C-2.878999948501587,3.055000066757202 -2.5220000743865967,3.7660000324249268 -1.9550000429153442,4.258999824523926 C-1.3880000114440918,4.751999855041504 -0.6970000267028809,4.998000144958496 0.11900000274181366,4.998000144958496 C0.7080000042915344,4.998000144958496 1.1950000524520874,4.8429999351501465 1.5809999704360962,4.531000137329102 C1.965999960899353,4.218999862670898 2.1589999198913574,3.8420000076293945 2.1589999198913574,3.4010000228881836 C2.1589999198913574,3.0380001068115234 2.0320000648498535,2.7260000705718994 1.7769999504089355,2.4649999141693115 C1.5210000276565552,2.2049999237060547 1.2380000352859497,2.000999927520752 0.9259999990463257,1.8530000448226929 C0.6150000095367432,1.7059999704360962 0.11900000274181366,1.496000051498413 -0.5609999895095825,1.2239999771118164 C-1.8079999685287476,0.7260000109672546 -2.76200008392334,0.1589999943971634 -3.424999952316284,-0.47600001096725464 C-4.0879998207092285,-1.1109999418258667 -4.420000076293945,-1.9429999589920044 -4.420000076293945,-2.9739999771118164 C-4.420000076293945,-3.496000051498413 -4.289999961853027,-4.002999782562256 -4.0289998054504395,-4.495999813079834 C-3.7679998874664307,-4.988999843597412 -3.3399999141693115,-5.39900016784668 -2.744999885559082,-5.728000164031982 C-2.1510000228881836,-6.057000160217285 -1.3830000162124634,-6.2220001220703125 -0.44200000166893005,-6.2220001220703125 C0.04500000178813934,-6.2220001220703125 0.5550000071525574,-6.150000095367432 1.0880000591278076,-6.008999824523926 C1.6200000047683716,-5.867000102996826 2.062999963760376,-5.665999889373779 2.4140000343322754,-5.40500020980835 C2.4140000343322754,-5.40500020980835 2.430999994277954,-5.40500020980835 2.430999994277954,-5.40500020980835 C2.430999994277954,-5.40500020980835 2.36299991607666,-6.1020002365112305 2.36299991607666,-6.1020002365112305 C2.36299991607666,-6.1020002365112305 3.688999891281128,-6.1020002365112305 3.688999891281128,-6.1020002365112305 C3.688999891281128,-6.1020002365112305 3.688999891281128,-2.1419999599456787 3.688999891281128,-2.1419999599456787 C3.688999891281128,-2.1419999599456787 2.566999912261963,-2.1419999599456787 2.566999912261963,-2.1419999599456787 C2.4200000762939453,-3.071000099182129 2.0940001010894775,-3.7790000438690186 1.5889999866485596,-4.267000198364258 C1.0850000381469727,-4.752999782562256 0.44200000166893005,-4.997000217437744 -0.3400000035762787,-4.997000217437744 C-0.8500000238418579,-4.997000217437744 -1.2890000343322754,-4.859000205993652 -1.656999945640564,-4.580999851226807 C-2.0250000953674316,-4.302999973297119 -2.2100000381469727,-3.9549999237060547 -2.2100000381469727,-3.5360000133514404 C-2.2100000381469727,-3.0360000133514404 -2,-2.617000102996826 -1.5809999704360962,-2.2769999504089355 C-1.1619999408721924,-1.937000036239624 -0.45399999618530273,-1.5640000104904175 0.5440000295639038,-1.156000018119812 C1.6890000104904175,-0.7020000219345093 2.619999885559082,-0.17800000309944153 3.3399999141693115,0.4169999957084656 C4.059999942779541,1.0119999647140503 4.420000076293945,1.8020000457763672 4.420000076293945,2.7880001068115234 C4.420000076293945,3.4570000171661377 4.23799991607666,4.052000045776367 3.875999927520752,4.572999954223633 C3.513000011444092,5.09499979019165 3.003000020980835,5.5 2.3459999561309814,5.789000034332275 C1.6890000104904175,6.078000068664551 0.9290000200271606,6.2220001220703125 0.06800000369548798,6.2220001220703125 C-0.3970000147819519,6.2220001220703125 -0.8920000195503235,6.14900016784668 -1.4199999570846558,6.000999927520752z"></path></g><g opacity="1" transform="matrix(1,0,0,1,150.8730010986328,143.78900146484375)"><path fill="rgb(255,255,255)" fill-opacity="1" d=" M-3.7130000591278076,4.665999889373779 C-4.455999851226807,3.7200000286102295 -4.827000141143799,2.436000108718872 -4.827000141143799,0.8149999976158142 C-4.827000141143799,0.8149999976158142 -4.827000141143799,-3.2990000247955322 -4.827000141143799,-3.2990000247955322 C-4.827000141143799,-3.933000087738037 -4.804999828338623,-4.442999839782715 -4.758999824523926,-4.828000068664551 C-4.758999824523926,-4.828000068664551 -6.034999847412109,-4.7769999504089355 -6.034999847412109,-4.7769999504089355 C-6.034999847412109,-4.7769999504089355 -6.034999847412109,-6.085999965667725 -6.034999847412109,-6.085999965667725 C-6.034999847412109,-6.085999965667725 -1.1549999713897705,-6.085999965667725 -1.1549999713897705,-6.085999965667725 C-1.1549999713897705,-6.085999965667725 -1.1549999713897705,-4.965000152587891 -1.1549999713897705,-4.965000152587891 C-1.4500000476837158,-4.953000068664551 -1.6790000200271606,-4.915999889373779 -1.843999981880188,-4.854000091552734 C-2.007999897003174,-4.790999889373779 -2.135999917984009,-4.658999919891357 -2.2260000705718994,-4.453999996185303 C-2.316999912261963,-4.25 -2.361999988555908,-3.9260001182556152 -2.361999988555908,-3.4839999675750732 C-2.361999988555908,-3.4839999675750732 -2.361999988555908,1.190000057220459 -2.361999988555908,1.190000057220459 C-2.361999988555908,3.5920000076293945 -1.4110000133514404,4.793000221252441 0.49300000071525574,4.793000221252441 C1.3880000114440918,4.793000221252441 2.0829999446868896,4.486999988555908 2.5759999752044678,3.875 C3.069999933242798,3.2639999389648438 3.315000057220459,2.3570001125335693 3.315000057220459,1.1549999713897705 C3.315000057220459,1.1549999713897705 3.315000057220459,-3.2990000247955322 3.315000057220459,-3.2990000247955322 C3.315000057220459,-4.058000087738037 3.3380000591278076,-4.566999912261963 3.384000062942505,-4.828000068664551 C3.384000062942505,-4.828000068664551 2.0920000076293945,-4.7769999504089355 2.0920000076293945,-4.7769999504089355 C2.0920000076293945,-4.7769999504089355 2.0920000076293945,-6.085999965667725 2.0920000076293945,-6.085999965667725 C2.0920000076293945,-6.085999965667725 6.034999847412109,-6.085999965667725 6.034999847412109,-6.085999965667725 C6.034999847412109,-6.085999965667725 6.034999847412109,-4.965000152587891 6.034999847412109,-4.965000152587891 C5.729000091552734,-4.953000068664551 5.497000217437744,-4.915999889373779 5.3379998207092285,-4.854000091552734 C5.179999828338623,-4.790999889373779 5.054999828338623,-4.658999919891357 4.964000225067139,-4.453999996185303 C4.874000072479248,-4.25 4.828999996185303,-3.9260001182556152 4.828999996185303,-3.4839999675750732 C4.828999996185303,-3.4839999675750732 4.828999996185303,0.7639999985694885 4.828999996185303,0.7639999985694885 C4.828999996185303,2.622999906539917 4.401000022888184,3.9749999046325684 3.5450000762939453,4.817999839782715 C2.690000057220459,5.663000106811523 1.531000018119812,6.085000038146973 0.0689999982714653,6.085000038146973 C-1.7100000381469727,6.085000038146973 -2.9709999561309814,5.611999988555908 -3.7130000591278076,4.665999889373779z"></path></g><g opacity="1" transform="matrix(1,0,0,1,164.55799865722656,143.65199279785156)"><path fill="rgb(255,255,255)" fill-opacity="1" d=" M-2.686000108718872,5.423999786376953 C-3.569000005722046,4.890999794006348 -4.255000114440918,4.163000106811523 -4.743000030517578,3.239000082015991 C-5.229000091552734,2.315000057220459 -5.4730000495910645,1.2920000553131104 -5.4730000495910645,0.17000000178813934 C-5.4730000495910645,-0.906000018119812 -5.244999885559082,-1.934999942779541 -4.785999774932861,-2.9149999618530273 C-4.327000141143799,-3.8949999809265137 -3.6489999294281006,-4.690999984741211 -2.753000020980835,-5.302999973297119 C-1.8580000400543213,-5.915999889373779 -0.781000018119812,-6.2220001220703125 0.47699999809265137,-6.2220001220703125 C0.9300000071525574,-6.2220001220703125 1.4199999570846558,-6.1479997634887695 1.9470000267028809,-6 C2.4739999771118164,-5.853000164031982 2.9590001106262207,-5.64900016784668 3.4000000953674316,-5.388000011444092 C3.4000000953674316,-5.388000011444092 3.4170000553131104,-5.388000011444092 3.4170000553131104,-5.388000011444092 C3.4170000553131104,-5.388000011444092 3.3480000495910645,-6.1020002365112305 3.3480000495910645,-6.1020002365112305 C3.3480000495910645,-6.1020002365112305 4.6579999923706055,-6.1020002365112305 4.6579999923706055,-6.1020002365112305 C4.6579999923706055,-6.1020002365112305 4.6579999923706055,-2.1419999599456787 4.6579999923706055,-2.1419999599456787 C4.6579999923706055,-2.1419999599456787 3.552999973297119,-2.1419999599456787 3.552999973297119,-2.1419999599456787 C3.246999979019165,-4.021999835968018 2.2960000038146973,-4.973999977111816 0.6970000267028809,-4.997000217437744 C-0.06199999898672104,-4.997000217437744 -0.7049999833106995,-4.7729997634887695 -1.2319999933242798,-4.326000213623047 C-1.7589999437332153,-3.878000020980835 -2.1530001163482666,-3.2860000133514404 -2.4130001068115234,-2.549999952316284 C-2.674999952316284,-1.812999963760376 -2.805000066757202,-1.0190000534057617 -2.805000066757202,-0.17000000178813934 C-2.805000066757202,0.8050000071525574 -2.6630001068115234,1.6720000505447388 -2.380000114440918,2.430999994277954 C-2.0959999561309814,3.190999984741211 -1.690000057220459,3.7829999923706055 -1.156000018119812,4.208000183105469 C-0.6240000128746033,4.631999969482422 0.01600000075995922,4.84499979019165 0.7639999985694885,4.84499979019165 C1.4900000095367432,4.84499979019165 2.2009999752044678,4.6579999923706055 2.8980000019073486,4.283999919891357 C3.5950000286102295,3.9100000858306885 4.182000160217285,3.4010000228881836 4.6579999923706055,2.755000114440918 C4.6579999923706055,2.755000114440918 5.4730000495910645,3.502000093460083 5.4730000495910645,3.502000093460083 C4.724999904632568,4.533999919891357 3.9040000438690186,5.244999885559082 3.007999897003174,5.635000228881836 C2.11299991607666,6.026000022888184 1.2300000190734863,6.2220001220703125 0.3569999933242798,6.2220001220703125 C-0.7870000004768372,6.2220001220703125 -1.8009999990463257,5.955999851226807 -2.686000108718872,5.423999786376953z"></path></g><g opacity="1" transform="matrix(1,0,0,1,177.5279998779297,143.65199279785156)"><path fill="rgb(255,255,255)" fill-opacity="1" d=" M-2.686000108718872,5.423999786376953 C-3.569999933242798,4.890999794006348 -4.25600004196167,4.163000106811523 -4.743000030517578,3.239000082015991 C-5.230000019073486,2.315000057220459 -5.4730000495910645,1.2920000553131104 -5.4730000495910645,0.17000000178813934 C-5.4730000495910645,-0.906000018119812 -5.244999885559082,-1.934999942779541 -4.785999774932861,-2.9149999618530273 C-4.327000141143799,-3.8949999809265137 -3.6500000953674316,-4.690999984741211 -2.755000114440918,-5.302999973297119 C-1.8600000143051147,-5.915999889373779 -0.7829999923706055,-6.2220001220703125 0.4749999940395355,-6.2220001220703125 C0.9290000200271606,-6.2220001220703125 1.4199999570846558,-6.1479997634887695 1.9470000267028809,-6 C2.4730000495910645,-5.853000164031982 2.9579999446868896,-5.64900016784668 3.4000000953674316,-5.388000011444092 C3.4000000953674316,-5.388000011444092 3.4170000553131104,-5.388000011444092 3.4170000553131104,-5.388000011444092 C3.4170000553131104,-5.388000011444092 3.3480000495910645,-6.1020002365112305 3.3480000495910645,-6.1020002365112305 C3.3480000495910645,-6.1020002365112305 4.6579999923706055,-6.1020002365112305 4.6579999923706055,-6.1020002365112305 C4.6579999923706055,-6.1020002365112305 4.6579999923706055,-2.1419999599456787 4.6579999923706055,-2.1419999599456787 C4.6579999923706055,-2.1419999599456787 3.552999973297119,-2.1419999599456787 3.552999973297119,-2.1419999599456787 C3.246999979019165,-4.021999835968018 2.2960000038146973,-4.973999977111816 0.6970000267028809,-4.997000217437744 C-0.06199999898672104,-4.997000217437744 -0.7059999704360962,-4.7729997634887695 -1.2339999675750732,-4.326000213623047 C-1.7599999904632568,-3.878000020980835 -2.1530001163482666,-3.2860000133514404 -2.4130001068115234,-2.549999952316284 C-2.674999952316284,-1.812999963760376 -2.805000066757202,-1.0190000534057617 -2.805000066757202,-0.17000000178813934 C-2.805000066757202,0.8050000071525574 -2.6630001068115234,1.6720000505447388 -2.380000114440918,2.430999994277954 C-2.0959999561309814,3.190999984741211 -1.6890000104904175,3.7829999923706055 -1.156000018119812,4.208000183105469 C-0.6230000257492065,4.631999969482422 0.01600000075995922,4.84499979019165 0.7639999985694885,4.84499979019165 C1.4889999628067017,4.84499979019165 2.2009999752044678,4.6579999923706055 2.8980000019073486,4.283999919891357 C3.5959999561309814,3.9100000858306885 4.182000160217285,3.4010000228881836 4.6579999923706055,2.755000114440918 C4.6579999923706055,2.755000114440918 5.4730000495910645,3.502000093460083 5.4730000495910645,3.502000093460083 C4.724999904632568,4.533999919891357 3.9030001163482666,5.244999885559082 3.007999897003174,5.635000228881836 C2.11299991607666,6.026000022888184 1.2300000190734863,6.2220001220703125 0.3569999933242798,6.2220001220703125 C-0.7870000004768372,6.2220001220703125 -1.8009999990463257,5.955999851226807 -2.686000108718872,5.423999786376953z"></path></g><g opacity="1" transform="matrix(1,0,0,1,189.80999755859375,143.6529998779297)"><path fill="rgb(255,255,255)" fill-opacity="1" d=" M-4.53000020980835,4.827000141143799 C-4.223999977111816,4.815999984741211 -3.992000102996826,4.7789998054504395 -3.8329999446868896,4.7170000076293945 C-3.6740000247955322,4.65500020980835 -3.549999952316284,4.520999908447266 -3.4590001106262207,4.317999839782715 C-3.368000030517578,4.11299991607666 -3.3239998817443848,3.7899999618530273 -3.3239998817443848,3.3489999771118164 C-3.3239998817443848,3.3489999771118164 -3.3239998817443848,-3.1619999408721924 -3.3239998817443848,-3.1619999408721924 C-3.3239998817443848,-3.7960000038146973 -3.299999952316284,-4.307000160217285 -3.255000114440918,-4.691999912261963 C-3.255000114440918,-4.691999912261963 -4.53000020980835,-4.640999794006348 -4.53000020980835,-4.640999794006348 C-4.53000020980835,-4.640999794006348 -4.53000020980835,-5.949999809265137 -4.53000020980835,-5.949999809265137 C-4.53000020980835,-5.949999809265137 3.9700000286102295,-5.949999809265137 3.9700000286102295,-5.949999809265137 C3.9700000286102295,-5.949999809265137 4.072000026702881,-2.6519999504089355 4.072000026702881,-2.6519999504089355 C4.072000026702881,-2.6519999504089355 2.950000047683716,-2.6519999504089355 2.950000047683716,-2.6519999504089355 C2.950000047683716,-3.490000009536743 2.749000072479248,-4.072000026702881 2.3469998836517334,-4.394999980926514 C1.944000005722046,-4.7179999351501465 1.4600000381469727,-4.867000102996826 0.8930000066757202,-4.84499979019165 C0.8930000066757202,-4.84499979019165 0.2809999883174896,-4.828000068664551 0.2809999883174896,-4.828000068664551 C0.008999999612569809,-4.815999984741211 -0.20600000023841858,-4.78000020980835 -0.36500000953674316,-4.7179999351501465 C-0.5239999890327454,-4.65500020980835 -0.6449999809265137,-4.515999794006348 -0.7300000190734863,-4.301000118255615 C-0.8159999847412109,-4.085999965667725 -0.8579999804496765,-3.7679998874664307 -0.8579999804496765,-3.3489999771118164 C-0.8579999804496765,-3.3489999771118164 -0.8579999804496765,-0.7990000247955322 -0.8579999804496765,-0.7990000247955322 C-0.8579999804496765,-0.7990000247955322 1.13100004196167,-0.7990000247955322 1.13100004196167,-0.7990000247955322 C1.1200000047683716,-0.9919999837875366 1.0959999561309814,-1.4839999675750732 1.062000036239624,-2.2780001163482666 C1.062000036239624,-2.2780001163482666 2.371999979019165,-2.2780001163482666 2.371999979019165,-2.2780001163482666 C2.371999979019165,-2.2780001163482666 2.371999979019165,1.8530000448226929 2.371999979019165,1.8530000448226929 C2.371999979019165,1.8530000448226929 1.25,1.8530000448226929 1.25,1.8530000448226929 C1.25,1.3990000486373901 1.1790000200271606,1.065000057220459 1.0379999876022339,0.8500000238418579 C0.8949999809265137,0.6349999904632568 0.7120000123977661,0.4959999918937683 0.48500001430511475,0.43299999833106995 C0.257999986410141,0.3709999918937683 -0.041999999433755875,0.34599998593330383 -0.41600000858306885,0.3569999933242798 C-0.41600000858306885,0.3569999933242798 -0.8579999804496765,0.37400001287460327 -0.8579999804496765,0.37400001287460327 C-0.8579999804496765,0.37400001287460327 -0.8579999804496765,3.1610000133514404 -0.8579999804496765,3.1610000133514404 C-0.8579999804496765,3.7730000019073486 -0.8809999823570251,4.2729997634887695 -0.9259999990463257,4.6579999923706055 C-0.9259999990463257,4.6579999923706055 1.3519999980926514,4.6579999923706055 1.3519999980926514,4.6579999923706055 C1.9299999475479126,4.6579999923706055 2.4200000762939453,4.461999893188477 2.822000026702881,4.071000099182129 C3.2239999771118164,3.680000066757202 3.4260001182556152,3.059999942779541 3.4260001182556152,2.2100000381469727 C3.4260001182556152,2.2100000381469727 4.531000137329102,2.2100000381469727 4.531000137329102,2.2100000381469727 C4.531000137329102,2.2100000381469727 4.446000099182129,5.949999809265137 4.446000099182129,5.949999809265137 C4.446000099182129,5.949999809265137 -4.53000020980835,5.949999809265137 -4.53000020980835,5.949999809265137 C-4.53000020980835,5.949999809265137 -4.53000020980835,4.827000141143799 -4.53000020980835,4.827000141143799z"></path></g><g opacity="1" transform="matrix(1,0,0,1,201.46400451660156,143.65199279785156)"><path fill="rgb(255,255,255)" fill-opacity="1" d=" M-1.4190000295639038,6.000999927520752 C-1.9459999799728394,5.854000091552734 -2.430000066757202,5.650000095367432 -2.871999979019165,5.388999938964844 C-2.871999979019165,5.388999938964844 -2.8889999389648438,5.388999938964844 -2.8889999389648438,5.388999938964844 C-2.8889999389648438,5.388999938964844 -2.8389999866485596,6.104000091552734 -2.8389999866485596,6.104000091552734 C-2.8389999866485596,6.104000091552734 -4.1479997634887695,6.104000091552734 -4.1479997634887695,6.104000091552734 C-4.1479997634887695,6.104000091552734 -4.1479997634887695,2.125 -4.1479997634887695,2.125 C-4.1479997634887695,2.125 -3.0250000953674316,2.125 -3.0250000953674316,2.125 C-2.878000020980835,3.055000066757202 -2.5220000743865967,3.7660000324249268 -1.9559999704360962,4.258999824523926 C-1.3890000581741333,4.751999855041504 -0.6970000267028809,4.998000144958496 0.11800000071525574,4.998000144958496 C0.7070000171661377,4.998000144958496 1.1950000524520874,4.8429999351501465 1.5809999704360962,4.531000137329102 C1.965999960899353,4.218999862670898 2.1579999923706055,3.8420000076293945 2.1579999923706055,3.4010000228881836 C2.1579999923706055,3.0380001068115234 2.0320000648498535,2.7260000705718994 1.7769999504089355,2.4649999141693115 C1.5219999551773071,2.2049999237060547 1.2380000352859497,2.000999927520752 0.9259999990463257,1.8530000448226929 C0.6140000224113464,1.7059999704360962 0.11800000071525574,1.496000051498413 -0.5619999766349792,1.2239999771118164 C-1.8079999685287476,0.7260000109672546 -2.763000011444092,0.1589999943971634 -3.4260001182556152,-0.47600001096725464 C-4.089000225067139,-1.1109999418258667 -4.419000148773193,-1.9429999589920044 -4.419000148773193,-2.9739999771118164 C-4.419000148773193,-3.496000051498413 -4.289999961853027,-4.002999782562256 -4.0289998054504395,-4.495999813079834 C-3.7690000534057617,-4.988999843597412 -3.3399999141693115,-5.39900016784668 -2.744999885559082,-5.728000164031982 C-2.1500000953674316,-6.057000160217285 -1.3819999694824219,-6.2220001220703125 -0.4410000145435333,-6.2220001220703125 C0.04500000178813934,-6.2220001220703125 0.5550000071525574,-6.150000095367432 1.0870000123977661,-6.008999824523926 C1.6200000047683716,-5.867000102996826 2.062000036239624,-5.665999889373779 2.4130001068115234,-5.40500020980835 C2.4130001068115234,-5.40500020980835 2.430000066757202,-5.40500020980835 2.430000066757202,-5.40500020980835 C2.430000066757202,-5.40500020980835 2.36299991607666,-6.1020002365112305 2.36299991607666,-6.1020002365112305 C2.36299991607666,-6.1020002365112305 3.688999891281128,-6.1020002365112305 3.688999891281128,-6.1020002365112305 C3.688999891281128,-6.1020002365112305 3.688999891281128,-2.1419999599456787 3.688999891281128,-2.1419999599456787 C3.688999891281128,-2.1419999599456787 2.568000078201294,-2.1419999599456787 2.568000078201294,-2.1419999599456787 C2.4200000762939453,-3.071000099182129 2.0929999351501465,-3.7790000438690186 1.5889999866485596,-4.267000198364258 C1.0839999914169312,-4.752999782562256 0.4410000145435333,-4.997000217437744 -0.3400000035762787,-4.997000217437744 C-0.8500000238418579,-4.997000217437744 -1.2899999618530273,-4.859000205993652 -1.6579999923706055,-4.580999851226807 C-2.0260000228881836,-4.302999973297119 -2.2100000381469727,-3.9549999237060547 -2.2100000381469727,-3.5360000133514404 C-2.2100000381469727,-3.0360000133514404 -2,-2.617000102996826 -1.5809999704360962,-2.2769999504089355 C-1.1610000133514404,-1.937000036239624 -0.45399999618530273,-1.5640000104904175 0.5440000295639038,-1.156000018119812 C1.687999963760376,-0.7020000219345093 2.619999885559082,-0.17800000309944153 3.3399999141693115,0.4169999957084656 C4.059000015258789,1.0119999647140503 4.419000148773193,1.8020000457763672 4.419000148773193,2.7880001068115234 C4.419000148773193,3.4570000171661377 4.238999843597412,4.052000045776367 3.875999927520752,4.572999954223633 C3.513000011444092,5.09499979019165 3.003000020980835,5.5 2.3459999561309814,5.789000034332275 C1.687999963760376,6.078000068664551 0.9300000071525574,6.2220001220703125 0.06800000369548798,6.2220001220703125 C-0.3959999978542328,6.2220001220703125 -0.8920000195503235,6.14900016784668 -1.4190000295639038,6.000999927520752z"></path></g><g opacity="1" transform="matrix(1,0,0,1,212.9029998779297,143.65199279785156)"><path fill="rgb(255,255,255)" fill-opacity="1" d=" M-1.4190000295639038,6.000999927520752 C-1.9459999799728394,5.854000091552734 -2.430000066757202,5.650000095367432 -2.871999979019165,5.388999938964844 C-2.871999979019165,5.388999938964844 -2.8889999389648438,5.388999938964844 -2.8889999389648438,5.388999938964844 C-2.8889999389648438,5.388999938964844 -2.8380000591278076,6.104000091552734 -2.8380000591278076,6.104000091552734 C-2.8380000591278076,6.104000091552734 -4.146999835968018,6.104000091552734 -4.146999835968018,6.104000091552734 C-4.146999835968018,6.104000091552734 -4.146999835968018,2.125 -4.146999835968018,2.125 C-4.146999835968018,2.125 -3.0260000228881836,2.125 -3.0260000228881836,2.125 C-2.878000020980835,3.055000066757202 -2.5209999084472656,3.7660000324249268 -1.9539999961853027,4.258999824523926 C-1.3880000114440918,4.751999855041504 -0.6970000267028809,4.998000144958496 0.11999999731779099,4.998000144958496 C0.7089999914169312,4.998000144958496 1.1959999799728394,4.8429999351501465 1.5809999704360962,4.531000137329102 C1.965999960899353,4.218999862670898 2.1600000858306885,3.8420000076293945 2.1600000858306885,3.4010000228881836 C2.1600000858306885,3.0380001068115234 2.0320000648498535,2.7260000705718994 1.7769999504089355,2.4649999141693115 C1.5219999551773071,2.2049999237060547 1.2389999628067017,2.000999927520752 0.9269999861717224,1.8530000448226929 C0.6150000095367432,1.7059999704360962 0.11999999731779099,1.496000051498413 -0.5600000023841858,1.2239999771118164 C-1.8070000410079956,0.7260000109672546 -2.76200008392334,0.1589999943971634 -3.424999952316284,-0.47600001096725464 C-4.0879998207092285,-1.1109999418258667 -4.420000076293945,-1.9429999589920044 -4.420000076293945,-2.9739999771118164 C-4.420000076293945,-3.496000051498413 -4.289000034332275,-4.002999782562256 -4.0279998779296875,-4.495999813079834 C-3.7679998874664307,-4.988999843597412 -3.3399999141693115,-5.39900016784668 -2.744999885559082,-5.728000164031982 C-2.1500000953674316,-6.057000160217285 -1.3830000162124634,-6.2220001220703125 -0.4410000145435333,-6.2220001220703125 C0.04600000008940697,-6.2220001220703125 0.5559999942779541,-6.150000095367432 1.0889999866485596,-6.008999824523926 C1.621000051498413,-5.867000102996826 2.062999963760376,-5.665999889373779 2.4140000343322754,-5.40500020980835 C2.4140000343322754,-5.40500020980835 2.430999994277954,-5.40500020980835 2.430999994277954,-5.40500020980835 C2.430999994277954,-5.40500020980835 2.36299991607666,-6.1020002365112305 2.36299991607666,-6.1020002365112305 C2.36299991607666,-6.1020002365112305 3.688999891281128,-6.1020002365112305 3.688999891281128,-6.1020002365112305 C3.688999891281128,-6.1020002365112305 3.688999891281128,-2.1419999599456787 3.688999891281128,-2.1419999599456787 C3.688999891281128,-2.1419999599456787 2.568000078201294,-2.1419999599456787 2.568000078201294,-2.1419999599456787 C2.4200000762939453,-3.071000099182129 2.0940001010894775,-3.7790000438690186 1.590000033378601,-4.267000198364258 C1.0859999656677246,-4.752999782562256 0.4429999887943268,-4.997000217437744 -0.3400000035762787,-4.997000217437744 C-0.8489999771118164,-4.997000217437744 -1.2890000343322754,-4.859000205993652 -1.656999945640564,-4.580999851226807 C-2.0260000228881836,-4.302999973297119 -2.2090001106262207,-3.9549999237060547 -2.2090001106262207,-3.5360000133514404 C-2.2090001106262207,-3.0360000133514404 -2,-2.617000102996826 -1.5800000429153442,-2.2769999504089355 C-1.1610000133514404,-1.937000036239624 -0.453000009059906,-1.5640000104904175 0.5450000166893005,-1.156000018119812 C1.6890000104904175,-0.7020000219345093 2.621000051498413,-0.17800000309944153 3.3410000801086426,0.4169999957084656 C4.059999942779541,1.0119999647140503 4.420000076293945,1.8020000457763672 4.420000076293945,2.7880001068115234 C4.420000076293945,3.4570000171661377 4.238999843597412,4.052000045776367 3.877000093460083,4.572999954223633 C3.5139999389648438,5.09499979019165 3.003000020980835,5.5 2.3459999561309814,5.789000034332275 C1.6890000104904175,6.078000068664551 0.9300000071525574,6.2220001220703125 0.0689999982714653,6.2220001220703125 C-0.3959999978542328,6.2220001220703125 -0.8920000195503235,6.14900016784668 -1.4190000295639038,6.000999927520752z"></path></g></g><g style="display: none;"><g><path></path></g><g><path></path></g><g><path></path></g><g><path></path></g><g><path></path></g><g><path></path></g><g><path></path></g><g><path></path></g><g><path></path></g><g><path></path></g><g><path></path></g><g><path></path></g><g><path></path></g><g><path></path></g><g><path></path></g><g><path></path></g><g><path></path></g><g><path></path></g><g><path></path></g><g><path></path></g><g><path></path></g><g><path></path></g><g><path></path></g><g><path></path></g><g><path></path></g><g><path></path></g><g><path></path></g><g><path></path></g><g><path></path></g><g><path></path></g><g><path></path></g><g><path></path></g><g><path></path></g><g><path></path></g><g><path></path></g><g><path></path></g><g><path></path></g><g><path></path></g><g><path></path></g><g><path></path></g><g><path></path></g><g><path></path></g><g><path></path></g><g><path></path></g><g><path></path></g><g><path></path></g><g><path></path></g><g><path></path></g><g><path></path></g><g><path></path></g><g><path></path></g><g><path></path></g><g><path></path></g><g><path></path></g><g><path></path></g><g><path></path></g><g><path></path></g><g><path></path></g></g><g transform="matrix(1,0,0,1,22.49999237060547,15)" opacity="1" style="display: block;"><g opacity="1" transform="matrix(1,0,0,1,0,0)"><path stroke-linecap="butt" stroke-linejoin="miter" fill-opacity="0" stroke-miterlimit="10" stroke="rgb(35,50,62)" stroke-opacity="1" stroke-width="0.25" d="M0 0"></path></g><g opacity="1" transform="matrix(1,0,0,1,93.52999877929688,94.48300170898438)"><path stroke-linecap="butt" stroke-linejoin="miter" fill-opacity="0" stroke-miterlimit="10" stroke="rgb(35,50,62)" stroke-opacity="1" stroke-width="0.25" d="M0 0"></path></g><g opacity="1" transform="matrix(1,0,0,1,102.4749984741211,94.73899841308594)"><path stroke-linecap="butt" stroke-linejoin="miter" fill-opacity="0" stroke-miterlimit="10" stroke="rgb(35,50,62)" stroke-opacity="1" stroke-width="0.25" d="M0 0"></path></g><g opacity="1" transform="matrix(1,0,0,1,116.23300170898438,85.2979965209961)"><path stroke-linecap="butt" stroke-linejoin="miter" fill-opacity="0" stroke-miterlimit="10" stroke="rgb(35,50,62)" stroke-opacity="1" stroke-width="0.25" d="M0 0"></path></g><g opacity="1" transform="matrix(1,0,0,1,123.93699645996094,81.80400085449219)"><path stroke-linecap="butt" stroke-linejoin="miter" fill-opacity="0" stroke-miterlimit="10" stroke="rgb(35,50,62)" stroke-opacity="1" stroke-width="0.25" d="M0 0"></path></g><g opacity="1" transform="matrix(1,0,0,1,106.98300170898438,82.59600067138672)"><path stroke-linecap="butt" stroke-linejoin="miter" fill-opacity="0" stroke-miterlimit="10" stroke="rgb(35,50,62)" stroke-opacity="1" stroke-width="0.25" d="M0 0"></path></g><g opacity="1" transform="matrix(1,0,0,1,115.05899810791016,84.87699890136719)"><path stroke-linecap="butt" stroke-linejoin="miter" fill-opacity="0" stroke-miterlimit="10" stroke="rgb(35,50,62)" stroke-opacity="1" stroke-width="0.25" d="M0 0"></path></g><g opacity="1" transform="matrix(1,0,0,1,134.99600219726562,76.65399932861328)"><path stroke-linecap="butt" stroke-linejoin="miter" fill-opacity="0" stroke-miterlimit="10" stroke="rgb(35,50,62)" stroke-opacity="1" stroke-width="0.25" d="M0 0"></path></g><g opacity="1" transform="matrix(1,0,0,1,142.8179931640625,79.81400299072266)"><path stroke-linecap="butt" stroke-linejoin="miter" fill-opacity="0" stroke-miterlimit="10" stroke="rgb(35,50,62)" stroke-opacity="1" stroke-width="0.25" d="M0 0"></path></g><g opacity="1" transform="matrix(1,0,0,1,0,0)"><path stroke-linecap="butt" stroke-linejoin="miter" fill-opacity="0" stroke-miterlimit="10" stroke="rgb(35,50,62)" stroke-opacity="1" stroke-width="0.25" d="M0 0"></path></g><g opacity="1" transform="matrix(1,0,0,1,0,0)"><path stroke-linecap="butt" stroke-linejoin="miter" fill-opacity="0" stroke-miterlimit="10" stroke="rgb(35,50,62)" stroke-opacity="1" stroke-width="0.25" d="M0 0"></path></g><g opacity="1" transform="matrix(1,0,0,1,0,0)"><path stroke-linecap="butt" stroke-linejoin="miter" fill-opacity="0" stroke-miterlimit="10" stroke="rgb(35,50,62)" stroke-opacity="1" stroke-width="0.25" d="M0 0"></path></g></g></g></svg>