<svg xmlns="http://www.w3.org/2000/svg" viewBox="0 0 282 277" width="282" height="277" preserveAspectRatio="xMidYMid meet" style="width: 100%; height: 100%; transform: translate3d(0px, 0px, 0px);"><defs><clipPath id="__lottie_element_75"><rect width="282" height="277" x="0" y="0"></rect></clipPath></defs><g clip-path="url(#__lottie_element_75)"><g transform="matrix(1,0,0,1,22.5,15)" opacity="1" style="display: block;"><g opacity="1" transform="matrix(1,0,0,1,118.72000122070312,163.80999755859375)"><path fill="rgb(50,94,144)" fill-opacity="1" d=" M116.70999908447266,-18.27199935913086 C116.70999908447266,-18.27199935913086 116.70999908447266,2.1500000953674316 116.70999908447266,2.1500000953674316 C116.70999908447266,2.1500000953674316 95.88400268554688,18.27199935913086 95.88400268554688,18.27199935913086 C95.88400268554688,18.27199935913086 -95.88500213623047,18.270999908447266 -95.88500213623047,18.270999908447266 C-95.88500213623047,18.270999908447266 -116.70999908447266,2.1500000953674316 -116.70999908447266,2.1500000953674316 C-116.70999908447266,2.1500000953674316 -116.70999908447266,-18.27199935913086 -116.70999908447266,-18.27199935913086 C-116.70999908447266,-18.27199935913086 116.70999908447266,-18.27199935913086 116.70999908447266,-18.27199935913086z"></path></g></g><g transform="matrix(1,0,0,1,22.49999237060547,15)" opacity="1" style="display: block;"><g opacity="1" transform="matrix(1,0,0,1,118.72100067138672,123.75)"><path fill="rgb(255,255,255)" fill-opacity="1" d=" M-0.0010000000474974513,120.66500091552734 C-2.2330000400543213,120.66500091552734 -4.434999942779541,120.07499694824219 -6.36899995803833,118.95899963378906 C-6.36899995803833,118.95899963378906 -99.83699798583984,64.99500274658203 -99.83699798583984,64.99500274658203 C-103.76499938964844,62.72700119018555 -106.20500183105469,58.5 -106.20500183105469,53.96500015258789 C-106.20500183105469,53.96500015258789 -106.20500183105469,-53.9640007019043 -106.20500183105469,-53.9640007019043 C-106.20500183105469,-58.5 -103.76499938964844,-62.72600173950195 -99.83699798583984,-64.99500274658203 C-99.83699798583984,-64.99500274658203 -6.36899995803833,-118.95800018310547 -6.36899995803833,-118.95800018310547 C-4.434999942779541,-120.07499694824219 -2.2330000400543213,-120.66500091552734 -0.0010000000474974513,-120.66500091552734 C2.2320001125335693,-120.66500091552734 4.434000015258789,-120.07499694824219 6.367000102996826,-118.95899963378906 C6.367000102996826,-118.95899963378906 99.83599853515625,-64.99500274658203 99.83599853515625,-64.99500274658203 C103.76399993896484,-62.72600173950195 106.20500183105469,-58.5 106.20500183105469,-53.9640007019043 C106.20500183105469,-53.9640007019043 106.20500183105469,53.96500015258789 106.20500183105469,53.96500015258789 C106.20500183105469,58.5 103.76399993896484,62.72700119018555 99.83599853515625,64.99500274658203 C99.83599853515625,64.99500274658203 6.367000102996826,118.95899963378906 6.367000102996826,118.95899963378906 C4.434000015258789,120.07499694824219 2.2320001125335693,120.66500091552734 -0.0010000000474974513,120.66500091552734z"></path><path stroke-linecap="butt" stroke-linejoin="miter" fill-opacity="0" stroke-miterlimit="10" stroke="rgb(35,50,62)" stroke-opacity="1" stroke-width="5" d=" M-0.0010000000474974513,120.66500091552734 C-2.2330000400543213,120.66500091552734 -4.434999942779541,120.07499694824219 -6.36899995803833,118.95899963378906 C-6.36899995803833,118.95899963378906 -99.83699798583984,64.99500274658203 -99.83699798583984,64.99500274658203 C-103.76499938964844,62.72700119018555 -106.20500183105469,58.5 -106.20500183105469,53.96500015258789 C-106.20500183105469,53.96500015258789 -106.20500183105469,-53.9640007019043 -106.20500183105469,-53.9640007019043 C-106.20500183105469,-58.5 -103.76499938964844,-62.72600173950195 -99.83699798583984,-64.99500274658203 C-99.83699798583984,-64.99500274658203 -6.36899995803833,-118.95800018310547 -6.36899995803833,-118.95800018310547 C-4.434999942779541,-120.07499694824219 -2.2330000400543213,-120.66500091552734 -0.0010000000474974513,-120.66500091552734 C2.2320001125335693,-120.66500091552734 4.434000015258789,-120.07499694824219 6.367000102996826,-118.95899963378906 C6.367000102996826,-118.95899963378906 99.83599853515625,-64.99500274658203 99.83599853515625,-64.99500274658203 C103.76399993896484,-62.72600173950195 106.20500183105469,-58.5 106.20500183105469,-53.9640007019043 C106.20500183105469,-53.9640007019043 106.20500183105469,53.96500015258789 106.20500183105469,53.96500015258789 C106.20500183105469,58.5 103.76399993896484,62.72700119018555 99.83599853515625,64.99500274658203 C99.83599853515625,64.99500274658203 6.367000102996826,118.95899963378906 6.367000102996826,118.95899963378906 C4.434000015258789,120.07499694824219 2.2320001125335693,120.66500091552734 -0.0010000000474974513,120.66500091552734z"></path></g><g opacity="1" transform="matrix(1,0,0,1,118.72100067138672,123.4739990234375)"><path stroke-linecap="butt" stroke-linejoin="miter" fill-opacity="0" stroke-miterlimit="10" stroke="rgb(35,50,62)" stroke-opacity="1" stroke-width="0.85" d=" M91.41500091552734,-45.292999267578125 C91.41500091552734,-49.92499923706055 88.94200134277344,-54.20500183105469 84.93000030517578,-56.520999908447266 C84.93000030517578,-56.520999908447266 6.48199987411499,-101.81400299072266 6.48199987411499,-101.81400299072266 C4.47599983215332,-102.97200012207031 2.236999988555908,-103.5510025024414 -0.0010000000474974513,-103.5510025024414 C-2.240000009536743,-103.5510025024414 -4.479000091552734,-102.97200012207031 -6.484000205993652,-101.81400299072266 C-6.484000205993652,-101.81400299072266 -84.93299865722656,-56.520999908447266 -84.93299865722656,-56.520999908447266 C-88.94400024414062,-54.20500183105469 -91.41500091552734,-49.92499923706055 -91.41500091552734,-45.292999267578125 C-91.41500091552734,-45.292999267578125 -91.41500091552734,45.29199981689453 -91.41500091552734,45.29199981689453 C-91.41500091552734,49.92399978637695 -88.94400024414062,54.20500183105469 -84.93299865722656,56.520999908447266 C-84.93299865722656,56.520999908447266 -6.484000205993652,101.81199645996094 -6.484000205993652,101.81199645996094 C-4.478000164031982,102.97100067138672 -2.240000009536743,103.5510025024414 -0.0010000000474974513,103.5510025024414 C2.236999988555908,103.5510025024414 4.47599983215332,102.97100067138672 6.48199987411499,101.81199645996094 C6.48199987411499,101.81199645996094 84.93000030517578,56.520999908447266 84.93000030517578,56.520999908447266 C88.94200134277344,54.20500183105469 91.41500091552734,49.92399978637695 91.41500091552734,45.29199981689453 C91.41500091552734,45.29199981689453 91.41500091552734,-45.292999267578125 91.41500091552734,-45.292999267578125z"></path></g><g opacity="1" transform="matrix(1,0,0,1,118.71900177001953,178.3800048828125)"><path fill="rgb(35,50,62)" fill-opacity="1" d=" M-92.09200286865234,-54.63199996948242 C-94.18699645996094,-54.63199996948242 -95.88500213623047,-52.93299865722656 -95.88500213623047,-50.8380012512207 C-95.88500213623047,-50.8380012512207 -95.88500213623047,-6.908999919891357 -95.88500213623047,-6.908999919891357 C-95.88500213623047,-2.183000087738037 -93.36399841308594,2.184999942779541 -89.2699966430664,4.547999858856201 C-89.2699966430664,4.547999858856201 -6.614999771118164,52.26900100708008 -6.614999771118164,52.26900100708008 C-2.5220000743865967,54.63199996948242 2.5220000743865967,54.63199996948242 6.614999771118164,52.26900100708008 C6.614999771118164,52.26900100708008 89.2699966430664,4.548999786376953 89.2699966430664,4.548999786376953 C93.36299896240234,2.184999942779541 95.88500213623047,-2.181999921798706 95.88500213623047,-6.908999919891357 C95.88500213623047,-6.908999919891357 95.88500213623047,-50.8380012512207 95.88500213623047,-50.8380012512207 C95.88500213623047,-52.93299865722656 94.18699645996094,-54.63199996948242 92.09200286865234,-54.63199996948242 C92.09200286865234,-54.63199996948242 -92.09200286865234,-54.63199996948242 -92.09200286865234,-54.63199996948242z"></path></g><g opacity="1" transform="matrix(1,0,0,1,118.72000122070312,177.0279998779297)"><path fill="rgb(118,120,130)" fill-opacity="1" d=" M-7.205999851226807,53.27899932861328 C-7.205999851226807,53.27899932861328 -8.12399959564209,52.74800109863281 -8.12399959564209,52.74800109863281 C-8.12399959564209,52.74800109863281 13.923999786376953,-8.01200008392334 13.923999786376953,-8.01200008392334 C13.923999786376953,-8.01200008392334 -5.854000091552734,-8.01200008392334 -5.854000091552734,-8.01200008392334 C-5.854000091552734,-8.01200008392334 -18.858999252319336,27.827999114990234 -18.858999252319336,27.827999114990234 C-18.858999252319336,27.827999114990234 -19.350000381469727,27.64900016784668 -19.350000381469727,27.64900016784668 C-19.350000381469727,27.64900016784668 -19.402000427246094,27.667999267578125 -19.402000427246094,27.667999267578125 C-19.402000427246094,27.667999267578125 -10.96500015258789,51.10900115966797 -10.96500015258789,51.10900115966797 C-10.96500015258789,51.10900115966797 -11.432000160217285,50.8390007019043 -11.432000160217285,50.8390007019043 C-11.432000160217285,50.8390007019043 -19.729999542236328,27.78499984741211 -19.729999542236328,27.78499984741211 C-19.729999542236328,27.78499984741211 -19.841999053955078,27.826000213623047 -19.841999053955078,27.826000213623047 C-19.841999053955078,27.826000213623047 -19.913000106811523,27.628000259399414 -19.913000106811523,27.628000259399414 C-19.913000106811523,27.628000259399414 -25.423999786376953,42.76100158691406 -25.423999786376953,42.76100158691406 C-25.423999786376953,42.76100158691406 -25.729999542236328,42.58399963378906 -25.729999542236328,42.58399963378906 C-25.729999542236328,42.58399963378906 -20.09600067138672,27.114999771118164 -20.09600067138672,27.114999771118164 C-20.09600067138672,27.114999771118164 -32.68000030517578,-8.01200008392334 -32.68000030517578,-8.01200008392334 C-32.68000030517578,-8.01200008392334 -47.112998962402344,-8.01200008392334 -47.112998962402344,-8.01200008392334 C-47.112998962402344,-8.01200008392334 -50.20199966430664,0.47200000286102295 -50.20199966430664,0.47200000286102295 C-50.20199966430664,0.47200000286102295 -37.48400115966797,35.797000885009766 -37.48400115966797,35.797000885009766 C-37.48400115966797,35.797000885009766 -37.95199966430664,35.52799987792969 -37.95199966430664,35.52799987792969 C-37.95199966430664,35.52799987792969 -50.38800048828125,0.9829999804496765 -50.38800048828125,0.9829999804496765 C-50.38800048828125,0.9829999804496765 -58.62300109863281,23.593000411987305 -58.62300109863281,23.593000411987305 C-58.62300109863281,23.593000411987305 -58.92900085449219,23.41699981689453 -58.92900085449219,23.41699981689453 C-58.92900085449219,23.41699981689453 -50.573001861572266,0.47099998593330383 -50.573001861572266,0.47099998593330383 C-50.573001861572266,0.47099998593330383 -53.62699890136719,-8.01200008392334 -53.62699890136719,-8.01200008392334 C-53.62699890136719,-8.01200008392334 -67.1500015258789,-8.01200008392334 -67.1500015258789,-8.01200008392334 C-67.1500015258789,-8.01200008392334 -75.15499877929688,14.048999786376953 -75.15499877929688,14.048999786376953 C-75.15499877929688,14.048999786376953 -76.13999938964844,13.479999542236328 -76.13999938964844,13.479999542236328 C-76.13999938964844,13.479999542236328 -68.31199645996094,-8.01200008392334 -68.31199645996094,-8.01200008392334 C-68.31199645996094,-8.01200008392334 -92.74299621582031,-8.01200008392334 -92.74299621582031,-8.01200008392334 C-92.74299621582031,-8.01200008392334 -87.36499786376953,6.999000072479248 -87.36499786376953,6.999000072479248 C-87.36499786376953,6.999000072479248 -88.83000183105469,6.1529998779296875 -88.83000183105469,6.1529998779296875 C-88.83000183105469,6.1529998779296875 -93.90699768066406,-8.01200008392334 -93.90699768066406,-8.01200008392334 C-93.90699768066406,-8.01200008392334 -95.88500213623047,-8.01200008392334 -95.88500213623047,-8.01200008392334 C-95.88500213623047,-8.01200008392334 -95.88500213623047,-8.359999656677246 -95.88500213623047,-8.359999656677246 C-95.88500213623047,-8.359999656677246 -94.03199768066406,-8.359999656677246 -94.03199768066406,-8.359999656677246 C-94.03199768066406,-8.359999656677246 -95.88500213623047,-13.531999588012695 -95.88500213623047,-13.531999588012695 C-95.88500213623047,-13.531999588012695 -95.88500213623047,-16.774999618530273 -95.88500213623047,-16.774999618530273 C-95.88500213623047,-16.774999618530273 -92.86799621582031,-8.359999656677246 -92.86799621582031,-8.359999656677246 C-92.86799621582031,-8.359999656677246 -68.18499755859375,-8.359999656677246 -68.18499755859375,-8.359999656677246 C-68.18499755859375,-8.359999656677246 -60.926998138427734,-28.290000915527344 -60.926998138427734,-28.290000915527344 C-60.926998138427734,-28.290000915527344 -67.88300323486328,-47.6150016784668 -67.88300323486328,-47.6150016784668 C-67.88300323486328,-47.6150016784668 -95.88500213623047,-47.6150016784668 -95.88500213623047,-47.6150016784668 C-95.88500213623047,-47.6150016784668 -95.88500213623047,-47.9640007019043 -95.88500213623047,-47.9640007019043 C-95.88500213623047,-47.9640007019043 -68.00800323486328,-47.9640007019043 -68.00800323486328,-47.9640007019043 C-68.00800323486328,-47.9640007019043 -69.9229965209961,-53.27899932861328 -69.9229965209961,-53.27899932861328 C-69.9229965209961,-53.27899932861328 -69.5530014038086,-53.27899932861328 -69.5530014038086,-53.27899932861328 C-69.5530014038086,-53.27899932861328 -67.63899993896484,-47.9640007019043 -67.63899993896484,-47.9640007019043 C-67.63899993896484,-47.9640007019043 -53.763999938964844,-47.9640007019043 -53.763999938964844,-47.9640007019043 C-53.763999938964844,-47.9640007019043 -51.834999084472656,-53.27899932861328 -51.834999084472656,-53.27899932861328 C-51.834999084472656,-53.27899932861328 -50.7239990234375,-53.27899932861328 -50.7239990234375,-53.27899932861328 C-50.7239990234375,-53.27899932861328 -52.65299987792969,-47.9640007019043 -52.65299987792969,-47.9640007019043 C-52.65299987792969,-47.9640007019043 -47,-47.9640007019043 -47,-47.9640007019043 C-47,-47.9640007019043 -48.915000915527344,-53.27899932861328 -48.915000915527344,-53.27899932861328 C-48.915000915527344,-53.27899932861328 -47.78799819946289,-53.27899932861328 -47.78799819946289,-53.27899932861328 C-47.78799819946289,-53.27899932861328 -45.882999420166016,-47.9640007019043 -45.882999420166016,-47.9640007019043 C-45.882999420166016,-47.9640007019043 -32.93299865722656,-47.9640007019043 -32.93299865722656,-47.9640007019043 C-32.93299865722656,-47.9640007019043 -30.9950008392334,-53.27899932861328 -30.9950008392334,-53.27899932861328 C-30.9950008392334,-53.27899932861328 -30.625999450683594,-53.27899932861328 -30.625999450683594,-53.27899932861328 C-30.625999450683594,-53.27899932861328 -32.56100082397461,-47.9640007019043 -32.56100082397461,-47.9640007019043 C-32.56100082397461,-47.9640007019043 7.249000072479248,-47.9640007019043 7.249000072479248,-47.9640007019043 C7.249000072479248,-47.9640007019043 9.184000015258789,-53.27899932861328 9.184000015258789,-53.27899932861328 C9.184000015258789,-53.27899932861328 10.572999954223633,-53.27899932861328 10.572999954223633,-53.27899932861328 C10.572999954223633,-53.27899932861328 8.642999649047852,-47.9640007019043 8.642999649047852,-47.9640007019043 C8.642999649047852,-47.9640007019043 22.128000259399414,-47.9640007019043 22.128000259399414,-47.9640007019043 C22.128000259399414,-47.9640007019043 20.21500015258789,-53.27899932861328 20.21500015258789,-53.27899932861328 C20.21500015258789,-53.27899932861328 20.58300018310547,-53.27899932861328 20.58300018310547,-53.27899932861328 C20.58300018310547,-53.27899932861328 22.496999740600586,-47.9640007019043 22.496999740600586,-47.9640007019043 C22.496999740600586,-47.9640007019043 28.964000701904297,-47.9640007019043 28.964000701904297,-47.9640007019043 C28.964000701904297,-47.9640007019043 30.899999618530273,-53.27899932861328 30.899999618530273,-53.27899932861328 C30.899999618530273,-53.27899932861328 31.270000457763672,-53.27899932861328 31.270000457763672,-53.27899932861328 C31.270000457763672,-53.27899932861328 29.33300018310547,-47.9640007019043 29.33300018310547,-47.9640007019043 C29.33300018310547,-47.9640007019043 43.1349983215332,-47.9640007019043 43.1349983215332,-47.9640007019043 C43.1349983215332,-47.9640007019043 41.222999572753906,-53.27899932861328 41.222999572753906,-53.27899932861328 C41.222999572753906,-53.27899932861328 41.59199905395508,-53.27899932861328 41.59199905395508,-53.27899932861328 C41.59199905395508,-53.27899932861328 43.50600051879883,-47.9640007019043 43.50600051879883,-47.9640007019043 C43.50600051879883,-47.9640007019043 69.31600189208984,-47.9640007019043 69.31600189208984,-47.9640007019043 C69.31600189208984,-47.9640007019043 71.25299835205078,-53.27899932861328 71.25299835205078,-53.27899932861328 C71.25299835205078,-53.27899932861328 71.6240005493164,-53.27899932861328 71.6240005493164,-53.27899932861328 C71.6240005493164,-53.27899932861328 69.68800354003906,-47.9640007019043 69.68800354003906,-47.9640007019043 C69.68800354003906,-47.9640007019043 83.11799621582031,-47.9640007019043 83.11799621582031,-47.9640007019043 C83.11799621582031,-47.9640007019043 81.21399688720703,-53.27899932861328 81.21399688720703,-53.27899932861328 C81.21399688720703,-53.27899932861328 82.3219985961914,-53.27899932861328 82.3219985961914,-53.27899932861328 C82.3219985961914,-53.27899932861328 84.22799682617188,-47.9640007019043 84.22799682617188,-47.9640007019043 C84.22799682617188,-47.9640007019043 89.71700286865234,-47.9640007019043 89.71700286865234,-47.9640007019043 C89.71700286865234,-47.9640007019043 91.64600372314453,-53.27899932861328 91.64600372314453,-53.27899932861328 C91.64600372314453,-53.27899932861328 92.75800323486328,-53.27899932861328 92.75800323486328,-53.27899932861328 C92.75800323486328,-53.27899932861328 90.8290023803711,-47.9640007019043 90.8290023803711,-47.9640007019043 C90.8290023803711,-47.9640007019043 95.88500213623047,-47.9640007019043 95.88500213623047,-47.9640007019043 C95.88500213623047,-47.9640007019043 95.88500213623047,-47.6150016784668 95.88500213623047,-47.6150016784668 C95.88500213623047,-47.6150016784668 90.7020034790039,-47.6150016784668 90.7020034790039,-47.6150016784668 C90.7020034790039,-47.6150016784668 87.50800323486328,-38.8120002746582 87.50800323486328,-38.8120002746582 C87.50800323486328,-38.8120002746582 95.88500213623047,-15.437000274658203 95.88500213623047,-15.437000274658203 C95.88500213623047,-15.437000274658203 95.88500213623047,-12.340999603271484 95.88500213623047,-12.340999603271484 C95.88500213623047,-12.340999603271484 86.9489974975586,-37.27399826049805 86.9489974975586,-37.27399826049805 C86.9489974975586,-37.27399826049805 76.45800018310547,-8.359999656677246 76.45800018310547,-8.359999656677246 C76.45800018310547,-8.359999656677246 95.88500213623047,-8.359999656677246 95.88500213623047,-8.359999656677246 C95.88500213623047,-8.359999656677246 95.88500213623047,-8.01200008392334 95.88500213623047,-8.01200008392334 C95.88500213623047,-8.01200008392334 76.33100128173828,-8.01200008392334 76.33100128173828,-8.01200008392334 C76.33100128173828,-8.01200008392334 67.0719985961914,17.500999450683594 67.0719985961914,17.500999450683594 C67.0719985961914,17.500999450683594 67.43499755859375,18.506000518798828 67.43499755859375,18.506000518798828 C67.43499755859375,18.506000518798828 67.12799835205078,18.683000564575195 67.12799835205078,18.683000564575195 C67.12799835205078,18.683000564575195 66.88700103759766,18.01300048828125 66.88700103759766,18.01300048828125 C66.88700103759766,18.01300048828125 66.51599884033203,19.035999298095703 66.51599884033203,19.035999298095703 C66.51599884033203,19.035999298095703 65.11100006103516,19.847999572753906 65.11100006103516,19.847999572753906 C65.11100006103516,19.847999572753906 66.33300018310547,16.47599983215332 66.33300018310547,16.47599983215332 C66.33300018310547,16.47599983215332 57.51900100708008,-8.01200008392334 57.51900100708008,-8.01200008392334 C57.51900100708008,-8.01200008392334 55.137001037597656,-8.01200008392334 55.137001037597656,-8.01200008392334 C55.137001037597656,-8.01200008392334 46.18199920654297,16.576000213623047 46.18199920654297,16.576000213623047 C46.18199920654297,16.576000213623047 50.395999908447266,28.343000411987305 50.395999908447266,28.343000411987305 C50.395999908447266,28.343000411987305 49.47800064086914,28.87299919128418 49.47800064086914,28.87299919128418 C49.47800064086914,28.87299919128418 45.62200164794922,18.111000061035156 45.62200164794922,18.111000061035156 C45.62200164794922,18.111000061035156 39.632999420166016,34.55699920654297 39.632999420166016,34.55699920654297 C39.632999420166016,34.55699920654297 39.16299819946289,34.827999114990234 39.16299819946289,34.827999114990234 C39.16299819946289,34.827999114990234 45.43899917602539,17.599000930786133 45.43899917602539,17.599000930786133 C45.43899917602539,17.599000930786133 36.263999938964844,-8.01200008392334 36.263999938964844,-8.01200008392334 C36.263999938964844,-8.01200008392334 15.03600025177002,-8.01200008392334 15.03600025177002,-8.01200008392334 C15.03600025177002,-8.01200008392334 -7.205999851226807,53.27899932861328 -7.205999851226807,53.27899932861328z M-15.888999938964844,16.58300018310547 C-15.888999938964844,16.58300018310547 -19.354000091552734,26.091999053955078 -19.354000091552734,26.091999053955078 C-19.354000091552734,26.091999053955078 -19.34600067138672,26.110000610351562 -19.34600067138672,26.110000610351562 C-19.34600067138672,26.110000610351562 -15.888999938964844,16.58300018310547 -15.888999938964844,16.58300018310547z M-31.56999969482422,-8.01200008392334 C-31.56999969482422,-8.01200008392334 -19.535999298095703,25.579999923706055 -19.535999298095703,25.579999923706055 C-19.535999298095703,25.579999923706055 -7.302999973297119,-8.01200008392334 -7.302999973297119,-8.01200008392334 C-7.302999973297119,-8.01200008392334 -31.56999969482422,-8.01200008392334 -31.56999969482422,-8.01200008392334z M37.374000549316406,-8.01200008392334 C37.374000549316406,-8.01200008392334 45.99700164794922,16.062999725341797 45.99700164794922,16.062999725341797 C45.99700164794922,16.062999725341797 54.76599884033203,-8.01200008392334 54.76599884033203,-8.01200008392334 C54.76599884033203,-8.01200008392334 37.374000549316406,-8.01200008392334 37.374000549316406,-8.01200008392334z M57.888999938964844,-8.01200008392334 C57.888999938964844,-8.01200008392334 66.5199966430664,15.96399974822998 66.5199966430664,15.96399974822998 C66.5199966430664,15.96399974822998 75.21900177001953,-8.01200008392334 75.21900177001953,-8.01200008392334 C75.21900177001953,-8.01200008392334 57.888999938964844,-8.01200008392334 57.888999938964844,-8.01200008392334z M-53.25600051879883,-8.01200008392334 C-53.25600051879883,-8.01200008392334 -50.387001037597656,-0.03999999910593033 -50.387001037597656,-0.03999999910593033 C-50.387001037597656,-0.03999999910593033 -47.483001708984375,-8.01200008392334 -47.483001708984375,-8.01200008392334 C-47.483001708984375,-8.01200008392334 -53.25600051879883,-8.01200008392334 -53.25600051879883,-8.01200008392334z M69.56099700927734,-47.6150016784668 C69.56099700927734,-47.6150016784668 56.520999908447266,-11.810999870300293 56.520999908447266,-11.810999870300293 C56.520999908447266,-11.810999870300293 57.762001037597656,-8.359999656677246 57.762001037597656,-8.359999656677246 C57.762001037597656,-8.359999656677246 75.34600067138672,-8.359999656677246 75.34600067138672,-8.359999656677246 C75.34600067138672,-8.359999656677246 86.39800262451172,-38.814998626708984 86.39800262451172,-38.814998626708984 C86.39800262451172,-38.814998626708984 83.24299621582031,-47.6150016784668 83.24299621582031,-47.6150016784668 C83.24299621582031,-47.6150016784668 69.56099700927734,-47.6150016784668 69.56099700927734,-47.6150016784668z M56.334999084472656,-11.300000190734863 C56.334999084472656,-11.300000190734863 55.263999938964844,-8.359999656677246 55.263999938964844,-8.359999656677246 C55.263999938964844,-8.359999656677246 57.393001556396484,-8.359999656677246 57.393001556396484,-8.359999656677246 C57.393001556396484,-8.359999656677246 56.334999084472656,-11.300000190734863 56.334999084472656,-11.300000190734863z M26.21299934387207,-39.165000915527344 C26.21299934387207,-39.165000915527344 37.24700164794922,-8.359999656677246 37.24700164794922,-8.359999656677246 C37.24700164794922,-8.359999656677246 54.89400100708008,-8.359999656677246 54.89400100708008,-8.359999656677246 C54.89400100708008,-8.359999656677246 56.150001525878906,-11.812000274658203 56.150001525878906,-11.812000274658203 C56.150001525878906,-11.812000274658203 43.2599983215332,-47.6150016784668 43.2599983215332,-47.6150016784668 C43.2599983215332,-47.6150016784668 29.20800018310547,-47.6150016784668 29.20800018310547,-47.6150016784668 C29.20800018310547,-47.6150016784668 26.117000579833984,-39.13100051879883 26.117000579833984,-39.13100051879883 C26.117000579833984,-39.13100051879883 26.21299934387207,-39.165000915527344 26.21299934387207,-39.165000915527344z M25.716999053955078,-37.45000076293945 C25.716999053955078,-37.45000076293945 15.16100025177002,-8.359999656677246 15.16100025177002,-8.359999656677246 C15.16100025177002,-8.359999656677246 36.138999938964844,-8.359999656677246 36.138999938964844,-8.359999656677246 C36.138999938964844,-8.359999656677246 25.716999053955078,-37.45000076293945 25.716999053955078,-37.45000076293945z M8.517999649047852,-47.6150016784668 C8.517999649047852,-47.6150016784668 -5.728000164031982,-8.359999656677246 -5.728000164031982,-8.359999656677246 C-5.728000164031982,-8.359999656677246 14.050999641418457,-8.359999656677246 14.050999641418457,-8.359999656677246 C14.050999641418457,-8.359999656677246 25.229999542236328,-39.16699981689453 25.229999542236328,-39.16699981689453 C25.229999542236328,-39.16699981689453 25.30299949645996,-39.14099884033203 25.30299949645996,-39.14099884033203 C25.30299949645996,-39.14099884033203 22.253000259399414,-47.6150016784668 22.253000259399414,-47.6150016784668 C22.253000259399414,-47.6150016784668 8.517999649047852,-47.6150016784668 8.517999649047852,-47.6150016784668z M-32.68899917602539,-47.6150016784668 C-32.68899917602539,-47.6150016784668 -39.277000427246094,-29.52400016784668 -39.277000427246094,-29.52400016784668 C-39.277000427246094,-29.52400016784668 -31.69499969482422,-8.359999656677246 -31.69499969482422,-8.359999656677246 C-31.69499969482422,-8.359999656677246 -7.176000118255615,-8.359999656677246 -7.176000118255615,-8.359999656677246 C-7.176000118255615,-8.359999656677246 7.119999885559082,-47.6150016784668 7.119999885559082,-47.6150016784668 C7.119999885559082,-47.6150016784668 -32.68899917602539,-47.6150016784668 -32.68899917602539,-47.6150016784668z M-39.83700180053711,-27.98900032043457 C-39.83700180053711,-27.98900032043457 -46.986000061035156,-8.359999656677246 -46.986000061035156,-8.359999656677246 C-46.986000061035156,-8.359999656677246 -32.80500030517578,-8.359999656677246 -32.80500030517578,-8.359999656677246 C-32.80500030517578,-8.359999656677246 -39.83700180053711,-27.98900032043457 -39.83700180053711,-27.98900032043457z M-52.77799987792969,-47.6150016784668 C-52.77799987792969,-47.6150016784668 -60.17399978637695,-27.23200035095215 -60.17399978637695,-27.23200035095215 C-60.17399978637695,-27.23200035095215 -53.38100051879883,-8.359999656677246 -53.38100051879883,-8.359999656677246 C-53.38100051879883,-8.359999656677246 -47.35499954223633,-8.359999656677246 -47.35499954223633,-8.359999656677246 C-47.35499954223633,-8.359999656677246 -40.020999908447266,-28.500999450683594 -40.020999908447266,-28.500999450683594 C-40.020999908447266,-28.500999450683594 -45.35900115966797,-43.40399932861328 -45.35900115966797,-43.40399932861328 C-45.35900115966797,-43.40399932861328 -46.875999450683594,-47.6150016784668 -46.875999450683594,-47.6150016784668 C-46.875999450683594,-47.6150016784668 -52.77799987792969,-47.6150016784668 -52.77799987792969,-47.6150016784668z M-60.361000061035156,-26.7189998626709 C-60.361000061035156,-26.7189998626709 -67.02300262451172,-8.359999656677246 -67.02300262451172,-8.359999656677246 C-67.02300262451172,-8.359999656677246 -53.75199890136719,-8.359999656677246 -53.75199890136719,-8.359999656677246 C-53.75199890136719,-8.359999656677246 -60.361000061035156,-26.7189998626709 -60.361000061035156,-26.7189998626709z M43.63100051879883,-47.6150016784668 C43.63100051879883,-47.6150016784668 56.33700180053711,-12.322999954223633 56.33700180053711,-12.322999954223633 C56.33700180053711,-12.322999954223633 69.18900299072266,-47.6150016784668 69.18900299072266,-47.6150016784668 C69.18900299072266,-47.6150016784668 43.63100051879883,-47.6150016784668 43.63100051879883,-47.6150016784668z M-67.51399993896484,-47.6150016784668 C-67.51399993896484,-47.6150016784668 -60.74100112915039,-28.801000595092773 -60.74100112915039,-28.801000595092773 C-60.74100112915039,-28.801000595092773 -54.236000061035156,-46.6619987487793 -54.236000061035156,-46.6619987487793 C-54.236000061035156,-46.6619987487793 -53.88999938964844,-47.6150016784668 -53.88999938964844,-47.6150016784668 C-53.88999938964844,-47.6150016784668 -67.51399993896484,-47.6150016784668 -67.51399993896484,-47.6150016784668z M-45.757999420166016,-47.6150016784668 C-45.757999420166016,-47.6150016784668 -39.46200180053711,-30.03700065612793 -39.46200180053711,-30.03700065612793 C-39.46200180053711,-30.03700065612793 -33.058998107910156,-47.6150016784668 -33.058998107910156,-47.6150016784668 C-33.058998107910156,-47.6150016784668 -45.757999420166016,-47.6150016784668 -45.757999420166016,-47.6150016784668z M22.621999740600586,-47.6150016784668 C22.621999740600586,-47.6150016784668 25.711999893188477,-39.03499984741211 25.711999893188477,-39.03499984741211 C25.711999893188477,-39.03499984741211 28.836999893188477,-47.6150016784668 28.836999893188477,-47.6150016784668 C28.836999893188477,-47.6150016784668 22.621999740600586,-47.6150016784668 22.621999740600586,-47.6150016784668z M84.35299682617188,-47.6150016784668 C84.35299682617188,-47.6150016784668 86.95600128173828,-40.35300064086914 86.95600128173828,-40.35300064086914 C86.95600128173828,-40.35300064086914 89.58999633789062,-47.6150016784668 89.58999633789062,-47.6150016784668 C89.58999633789062,-47.6150016784668 84.35299682617188,-47.6150016784668 84.35299682617188,-47.6150016784668z"></path></g><g opacity="1" transform="matrix(1,0,0,1,118.72000122070312,175.38699340820312)"><path stroke-linecap="butt" stroke-linejoin="miter" fill-opacity="0" stroke-miterlimit="10" stroke="rgb(255,255,255)" stroke-opacity="1" stroke-width="0.85" d=" M-91.41500091552734,-51.63800048828125 C-91.41500091552734,-51.63800048828125 -91.41500091552734,-6.622000217437744 -91.41500091552734,-6.622000217437744 C-91.41500091552734,-1.9889999628067017 -88.94400024414062,2.2920000553131104 -84.93199920654297,4.607999801635742 C-84.93199920654297,4.607999801635742 -6.484000205993652,49.89899826049805 -6.484000205993652,49.89899826049805 C-4.4770002365112305,51.05799865722656 -2.239000082015991,51.63800048828125 -0.0010000000474974513,51.63800048828125 C2.236999988555908,51.63800048828125 4.478000164031982,51.05799865722656 6.482999801635742,49.89899826049805 C6.482999801635742,49.89899826049805 84.93099975585938,4.607999801635742 84.93099975585938,4.607999801635742 C88.94200134277344,2.2920000553131104 91.41400146484375,-1.9889999628067017 91.41400146484375,-6.622000217437744 C91.41400146484375,-6.622000217437744 91.41400146484375,-51.63800048828125 91.41400146484375,-51.63800048828125"></path></g></g><g transform="matrix(1,0,0,1,22.5,15)" opacity="1" style="display: block;"><g opacity="1" transform="matrix(1,0,0,1,118.72000122070312,143.52200317382812)"><path fill="rgb(99,162,221)" fill-opacity="1" d=" M114.90299987792969,23.05699920654297 C114.90299987792969,23.05699920654297 -114.90299987792969,23.05699920654297 -114.90299987792969,23.05699920654297 C-116.52799987792969,23.05699920654297 -117.84500122070312,21.739999771118164 -117.84500122070312,20.115999221801758 C-117.84500122070312,20.115999221801758 -117.84500122070312,-16.482999801635742 -117.84500122070312,-16.482999801635742 C-117.84500122070312,-20.11400032043457 -114.9020004272461,-23.05699920654297 -111.27200317382812,-23.05699920654297 C-111.27200317382812,-23.05699920654297 111.27200317382812,-23.05699920654297 111.27200317382812,-23.05699920654297 C114.9020004272461,-23.05699920654297 117.84500122070312,-20.11400032043457 117.84500122070312,-16.482999801635742 C117.84500122070312,-16.482999801635742 117.84500122070312,20.115999221801758 117.84500122070312,20.115999221801758 C117.84500122070312,21.739999771118164 116.52799987792969,23.05699920654297 114.90299987792969,23.05699920654297z"></path></g><g opacity="1" transform="matrix(1,0,0,1,71.3479995727539,144.39300537109375)"><path fill="rgb(255,255,255)" fill-opacity="1" d=" M-1.8819999694824219,7.953999996185303 C-2.5810000896453857,7.758999824523926 -3.2230000495910645,7.489999771118164 -3.809000015258789,7.144000053405762 C-3.809000015258789,7.144000053405762 -3.8310000896453857,7.144000053405762 -3.8310000896453857,7.144000053405762 C-3.8310000896453857,7.144000053405762 -3.7639999389648438,8.090999603271484 -3.7639999389648438,8.090999603271484 C-3.7639999389648438,8.090999603271484 -5.499000072479248,8.090999603271484 -5.499000072479248,8.090999603271484 C-5.499000072479248,8.090999603271484 -5.499000072479248,2.818000078201294 -5.499000072479248,2.818000078201294 C-5.499000072479248,2.818000078201294 -4.01200008392334,2.818000078201294 -4.01200008392334,2.818000078201294 C-3.816999912261963,4.048999786376953 -3.3429999351501465,4.992000102996826 -2.5910000801086426,5.645999908447266 C-1.840000033378601,6.298999786376953 -0.9229999780654907,6.625999927520752 0.15800000727176666,6.625999927520752 C0.9399999976158142,6.625999927520752 1.5850000381469727,6.420000076293945 2.0959999561309814,6.00600004196167 C2.6059999465942383,5.5929999351501465 2.86299991607666,5.0929999351501465 2.86299991607666,4.506999969482422 C2.86299991607666,4.0269999504089355 2.694000005722046,3.614000082015991 2.3559999465942383,3.2679998874664307 C2.0169999599456787,2.9230000972747803 1.6419999599456787,2.6519999504089355 1.2289999723434448,2.4570000171661377 C0.8149999976158142,2.260999917984009 0.15800000727176666,1.9830000400543213 -0.7429999709129333,1.6230000257492065 C-2.3959999084472656,0.9620000123977661 -3.6619999408721924,0.20999999344348907 -4.539999961853027,-0.6320000290870667 C-5.420000076293945,-1.4730000495910645 -5.859000205993652,-2.5769999027252197 -5.859000205993652,-3.944000005722046 C-5.859000205993652,-4.635000228881836 -5.685999870300293,-5.307000160217285 -5.340000152587891,-5.960999965667725 C-4.994999885559082,-6.613999843597412 -4.427999973297119,-7.158999919891357 -3.6389999389648438,-7.59499979019165 C-2.8499999046325684,-8.031000137329102 -1.8320000171661377,-8.248000144958496 -0.5849999785423279,-8.248000144958496 C0.05999999865889549,-8.248000144958496 0.7369999885559082,-8.154000282287598 1.4429999589920044,-7.9670000076293945 C2.1489999294281006,-7.7789998054504395 2.734999895095825,-7.51200008392334 3.2009999752044678,-7.165999889373779 C3.2009999752044678,-7.165999889373779 3.2230000495910645,-7.165999889373779 3.2230000495910645,-7.165999889373779 C3.2230000495910645,-7.165999889373779 3.132999897003174,-8.090999603271484 3.132999897003174,-8.090999603271484 C3.132999897003174,-8.090999603271484 4.890999794006348,-8.090999603271484 4.890999794006348,-8.090999603271484 C4.890999794006348,-8.090999603271484 4.890999794006348,-2.8389999866485596 4.890999794006348,-2.8389999866485596 C4.890999794006348,-2.8389999866485596 3.4030001163482666,-2.8389999866485596 3.4030001163482666,-2.8389999866485596 C3.2090001106262207,-4.071000099182129 2.7760000228881836,-5.011000156402588 2.1080000400543213,-5.656000137329102 C1.4390000104904175,-6.302000045776367 0.5849999785423279,-6.625 -0.45100000500679016,-6.625 C-1.1269999742507935,-6.625 -1.7079999446868896,-6.441999912261963 -2.197000026702881,-6.073999881744385 C-2.684999942779541,-5.704999923706055 -2.930000066757202,-5.243000030517578 -2.930000066757202,-4.688000202178955 C-2.930000066757202,-4.026000022888184 -2.6519999504089355,-3.4719998836517334 -2.0959999561309814,-3.0199999809265137 C-1.5410000085830688,-2.569999933242798 -0.6000000238418579,-2.075000047683716 0.722000002861023,-1.5329999923706055 C2.239000082015991,-0.9319999814033508 3.4749999046325684,-0.2370000034570694 4.428999900817871,0.5519999861717224 C5.382999897003174,1.340999960899353 5.860000133514404,2.3889999389648438 5.860000133514404,3.696000099182129 C5.860000133514404,4.583000183105469 5.619999885559082,5.370999813079834 5.138999938964844,6.061999797821045 C4.6579999923706055,6.752999782562256 3.9820001125335693,7.290999889373779 3.1110000610351562,7.673999786376953 C2.239000082015991,8.057000160217285 1.2309999465942383,8.24899959564209 0.09000000357627869,8.24899959564209 C-0.5260000228881836,8.24899959564209 -1.184000015258789,8.149999618530273 -1.8819999694824219,7.953999996185303z"></path></g><g opacity="1" transform="matrix(1,0,0,1,86.81900024414062,144.3939971923828)"><path fill="rgb(255,255,255)" fill-opacity="1" d=" M-6.00600004196167,6.400000095367432 C-5.599999904632568,6.385000228881836 -5.291999816894531,6.335999965667725 -5.081999778747559,6.252999782562256 C-4.870999813079834,6.171000003814697 -4.705999851226807,5.994999885559082 -4.585999965667725,5.724999904632568 C-4.466000080108643,5.453999996185303 -4.40500020980835,5.025000095367432 -4.40500020980835,4.439000129699707 C-4.40500020980835,4.439000129699707 -4.40500020980835,-4.191999912261963 -4.40500020980835,-4.191999912261963 C-4.40500020980835,-5.0329999923706055 -4.375999927520752,-5.710000038146973 -4.315999984741211,-6.2210001945495605 C-4.315999984741211,-6.2210001945495605 -6.00600004196167,-6.1529998779296875 -6.00600004196167,-6.1529998779296875 C-6.00600004196167,-6.1529998779296875 -6.00600004196167,-7.88700008392334 -6.00600004196167,-7.88700008392334 C-6.00600004196167,-7.88700008392334 5.263000011444092,-7.88700008392334 5.263000011444092,-7.88700008392334 C5.263000011444092,-7.88700008392334 5.3979997634887695,-3.5160000324249268 5.3979997634887695,-3.5160000324249268 C5.3979997634887695,-3.5160000324249268 3.9100000858306885,-3.5160000324249268 3.9100000858306885,-3.5160000324249268 C3.9100000858306885,-4.626999855041504 3.6429998874664307,-5.3979997634887695 3.109999895095825,-5.826000213623047 C2.5769999027252197,-6.254000186920166 1.934999942779541,-6.453000068664551 1.184000015258789,-6.422999858856201 C1.184000015258789,-6.422999858856201 0.3720000088214874,-6.400000095367432 0.3720000088214874,-6.400000095367432 C0.012000000104308128,-6.385000228881836 -0.27399998903274536,-6.336999893188477 -0.48500001430511475,-6.254000186920166 C-0.6949999928474426,-6.171999931335449 -0.8560000061988831,-5.986999988555908 -0.968999981880188,-5.702000141143799 C-1.0820000171661377,-5.415999889373779 -1.1380000114440918,-4.994999885559082 -1.1380000114440918,-4.439000129699707 C-1.1380000114440918,-4.439000129699707 -1.1380000114440918,-1.059000015258789 -1.1380000114440918,-1.059000015258789 C-1.1380000114440918,-1.059000015258789 1.4989999532699585,-1.059000015258789 1.4989999532699585,-1.059000015258789 C1.4839999675750732,-1.315000057220459 1.4539999961853027,-1.968000054359436 1.409000039100647,-3.0199999809265137 C1.409000039100647,-3.0199999809265137 3.1440000534057617,-3.0199999809265137 3.1440000534057617,-3.0199999809265137 C3.1440000534057617,-3.0199999809265137 3.1440000534057617,2.4560000896453857 3.1440000534057617,2.4560000896453857 C3.1440000534057617,2.4560000896453857 1.656999945640564,2.4560000896453857 1.656999945640564,2.4560000896453857 C1.656999945640564,1.8550000190734863 1.562999963760376,1.4119999408721924 1.375,1.1269999742507935 C1.187000036239624,0.8410000205039978 0.9430000185966492,0.6570000052452087 0.6430000066757202,0.5740000009536743 C0.34200000762939453,0.492000013589859 -0.0560000017285347,0.4580000042915344 -0.5519999861717224,0.47200000286102295 C-0.5519999861717224,0.47200000286102295 -1.1380000114440918,0.4950000047683716 -1.1380000114440918,0.4950000047683716 C-1.1380000114440918,0.4950000047683716 -1.1380000114440918,4.191999912261963 -1.1380000114440918,4.191999912261963 C-1.1380000114440918,5.002999782562256 -1.1679999828338623,5.664000034332275 -1.2280000448226929,6.175000190734863 C-1.2280000448226929,6.175000190734863 1.7920000553131104,6.175000190734863 1.7920000553131104,6.175000190734863 C2.558000087738037,6.175000190734863 3.2079999446868896,5.914999961853027 3.740999937057495,5.396999835968018 C4.275000095367432,4.877999782562256 4.540999889373779,4.056000232696533 4.540999889373779,2.930000066757202 C4.540999889373779,2.930000066757202 6.00600004196167,2.930000066757202 6.00600004196167,2.930000066757202 C6.00600004196167,2.930000066757202 5.894000053405762,7.88700008392334 5.894000053405762,7.88700008392334 C5.894000053405762,7.88700008392334 -6.00600004196167,7.88700008392334 -6.00600004196167,7.88700008392334 C-6.00600004196167,7.88700008392334 -6.00600004196167,6.400000095367432 -6.00600004196167,6.400000095367432z"></path></g><g opacity="1" transform="matrix(1,0,0,1,102.63999938964844,144.3939971923828)"><path fill="rgb(255,255,255)" fill-opacity="1" d=" M-6.073999881744385,6.400000095367432 C-5.668000221252441,6.385000228881836 -5.361000061035156,6.335999965667725 -5.150000095367432,6.252999782562256 C-4.940000057220459,6.171000003814697 -4.775000095367432,5.994999885559082 -4.6539998054504395,5.724999904632568 C-4.533999919891357,5.453999996185303 -4.473999977111816,5.025000095367432 -4.473999977111816,4.439000129699707 C-4.473999977111816,4.439000129699707 -4.473999977111816,-4.191999912261963 -4.473999977111816,-4.191999912261963 C-4.473999977111816,-5.0329999923706055 -4.443999767303467,-5.710000038146973 -4.383999824523926,-6.2210001945495605 C-4.383999824523926,-6.2210001945495605 -6.073999881744385,-6.1529998779296875 -6.073999881744385,-6.1529998779296875 C-6.073999881744385,-6.1529998779296875 -6.073999881744385,-7.88700008392334 -6.073999881744385,-7.88700008392334 C-6.073999881744385,-7.88700008392334 0.39500001072883606,-7.88700008392334 0.39500001072883606,-7.88700008392334 C0.39500001072883606,-7.88700008392334 0.39500001072883606,-6.400000095367432 0.39500001072883606,-6.400000095367432 C-0.010999999940395355,-6.385000228881836 -0.3199999928474426,-6.336999893188477 -0.5299999713897705,-6.254000186920166 C-0.7400000095367432,-6.171999931335449 -0.9049999713897705,-5.99399995803833 -1.024999976158142,-5.7230000495910645 C-1.1460000276565552,-5.453000068664551 -1.2050000429153442,-5.025000095367432 -1.2050000429153442,-4.439000129699707 C-1.2050000429153442,-4.439000129699707 -1.2050000429153442,4.191999912261963 -1.2050000429153442,4.191999912261963 C-1.2050000429153442,5.002999782562256 -1.2359999418258667,5.664000034332275 -1.2960000038146973,6.175000190734863 C-1.2960000038146973,6.175000190734863 1.7239999771118164,6.175000190734863 1.7239999771118164,6.175000190734863 C2.625999927520752,6.159999847412109 3.3239998817443848,5.841000080108643 3.819999933242798,5.2170000076293945 C4.315999984741211,4.5929999351501465 4.563000202178955,3.681999921798706 4.563000202178955,2.4790000915527344 C4.563000202178955,2.4790000915527344 6.073999881744385,2.4790000915527344 6.073999881744385,2.4790000915527344 C6.073999881744385,2.4790000915527344 5.938000202178955,7.88700008392334 5.938000202178955,7.88700008392334 C5.938000202178955,7.88700008392334 -6.073999881744385,7.88700008392334 -6.073999881744385,7.88700008392334 C-6.073999881744385,7.88700008392334 -6.073999881744385,6.400000095367432 -6.073999881744385,6.400000095367432z"></path></g><g opacity="1" transform="matrix(1,0,0,1,117.94300079345703,144.3939971923828)"><path fill="rgb(255,255,255)" fill-opacity="1" d=" M-6.073999881744385,6.400000095367432 C-5.669000148773193,6.385000228881836 -5.361000061035156,6.335999965667725 -5.150000095367432,6.252999782562256 C-4.940000057220459,6.171000003814697 -4.775000095367432,5.994999885559082 -4.65500020980835,5.724999904632568 C-4.533999919891357,5.453999996185303 -4.473999977111816,5.025000095367432 -4.473999977111816,4.439000129699707 C-4.473999977111816,4.439000129699707 -4.473999977111816,-4.191999912261963 -4.473999977111816,-4.191999912261963 C-4.473999977111816,-5.0329999923706055 -4.443999767303467,-5.710000038146973 -4.382999897003174,-6.2210001945495605 C-4.382999897003174,-6.2210001945495605 -6.073999881744385,-6.1529998779296875 -6.073999881744385,-6.1529998779296875 C-6.073999881744385,-6.1529998779296875 -6.073999881744385,-7.88700008392334 -6.073999881744385,-7.88700008392334 C-6.073999881744385,-7.88700008392334 0.39500001072883606,-7.88700008392334 0.39500001072883606,-7.88700008392334 C0.39500001072883606,-7.88700008392334 0.39500001072883606,-6.400000095367432 0.39500001072883606,-6.400000095367432 C-0.010999999940395355,-6.385000228881836 -0.3199999928474426,-6.336999893188477 -0.5299999713897705,-6.254000186920166 C-0.7409999966621399,-6.171999931335449 -0.906000018119812,-5.99399995803833 -1.0260000228881836,-5.7230000495910645 C-1.1460000276565552,-5.453000068664551 -1.2059999704360962,-5.025000095367432 -1.2059999704360962,-4.439000129699707 C-1.2059999704360962,-4.439000129699707 -1.2059999704360962,4.191999912261963 -1.2059999704360962,4.191999912261963 C-1.2059999704360962,5.002999782562256 -1.2359999418258667,5.664000034332275 -1.2960000038146973,6.175000190734863 C-1.2960000038146973,6.175000190734863 1.725000023841858,6.175000190734863 1.725000023841858,6.175000190734863 C2.625999927520752,6.159999847412109 3.325000047683716,5.841000080108643 3.819999933242798,5.2170000076293945 C4.315999984741211,4.5929999351501465 4.563000202178955,3.681999921798706 4.563000202178955,2.4790000915527344 C4.563000202178955,2.4790000915527344 6.073999881744385,2.4790000915527344 6.073999881744385,2.4790000915527344 C6.073999881744385,2.4790000915527344 5.938000202178955,7.88700008392334 5.938000202178955,7.88700008392334 C5.938000202178955,7.88700008392334 -6.073999881744385,7.88700008392334 -6.073999881744385,7.88700008392334 C-6.073999881744385,7.88700008392334 -6.073999881744385,6.400000095367432 -6.073999881744385,6.400000095367432z"></path></g><g opacity="1" transform="matrix(1,0,0,1,130.4040069580078,144.3939971923828)"><path fill="rgb(255,255,255)" fill-opacity="1" d=" M-3.2339999675750732,6.400000095367432 C-2.8289999961853027,6.385000228881836 -2.5209999084472656,6.335999965667725 -2.309999942779541,6.252999782562256 C-2.0999999046325684,6.171000003814697 -1.934000015258789,5.994999885559082 -1.8140000104904175,5.724999904632568 C-1.694000005722046,5.453999996185303 -1.6330000162124634,5.025000095367432 -1.6330000162124634,4.439000129699707 C-1.6330000162124634,4.439000129699707 -1.6330000162124634,-4.191999912261963 -1.6330000162124634,-4.191999912261963 C-1.6330000162124634,-5.0329999923706055 -1.6039999723434448,-5.710000038146973 -1.5440000295639038,-6.2210001945495605 C-1.5440000295639038,-6.2210001945495605 -3.2339999675750732,-6.1529998779296875 -3.2339999675750732,-6.1529998779296875 C-3.2339999675750732,-6.1529998779296875 -3.2339999675750732,-7.88700008392334 -3.2339999675750732,-7.88700008392334 C-3.2339999675750732,-7.88700008392334 3.2330000400543213,-7.88700008392334 3.2330000400543213,-7.88700008392334 C3.2330000400543213,-7.88700008392334 3.2330000400543213,-6.400000095367432 3.2330000400543213,-6.400000095367432 C2.828000068664551,-6.385000228881836 2.5209999084472656,-6.336999893188477 2.311000108718872,-6.254000186920166 C2.0999999046325684,-6.171999931335449 1.934000015258789,-5.99399995803833 1.8140000104904175,-5.7230000495910645 C1.6929999589920044,-5.453000068664551 1.6330000162124634,-5.025000095367432 1.6330000162124634,-4.439000129699707 C1.6330000162124634,-4.439000129699707 1.6330000162124634,4.191999912261963 1.6330000162124634,4.191999912261963 C1.6330000162124634,5.0329999923706055 1.6030000448226929,5.710000038146973 1.5440000295639038,6.2210001945495605 C2.0239999294281006,6.176000118255615 2.5869998931884766,6.1519999504089355 3.2330000400543213,6.1519999504089355 C3.2330000400543213,6.1519999504089355 3.2330000400543213,7.88700008392334 3.2330000400543213,7.88700008392334 C3.2330000400543213,7.88700008392334 -3.2339999675750732,7.88700008392334 -3.2339999675750732,7.88700008392334 C-3.2339999675750732,7.88700008392334 -3.2339999675750732,6.400000095367432 -3.2339999675750732,6.400000095367432z"></path></g><g opacity="1" transform="matrix(1,0,0,1,145.31300354003906,144.50599670410156)"><path fill="rgb(255,255,255)" fill-opacity="1" d=" M-2.9519999027252197,-1.2170000076293945 C-3.328000068664551,-1.6979999542236328 -3.740999937057495,-2.26200008392334 -4.191999912261963,-2.9070000648498535 C-4.191999912261963,-2.9070000648498535 -4.214000225067139,-2.9070000648498535 -4.214000225067139,-2.9070000648498535 C-4.214000225067139,-2.9070000648498535 -4.169000148773193,4.078999996185303 -4.169000148773193,4.078999996185303 C-4.169000148773193,4.921000003814697 -4.198999881744385,5.5960001945495605 -4.258999824523926,6.10699987411499 C-3.7790000438690186,6.061999797821045 -3.2149999141693115,6.039999961853027 -2.569000005722046,6.039999961853027 C-2.569000005722046,6.039999961853027 -2.569000005722046,7.775000095367432 -2.569000005722046,7.775000095367432 C-2.569000005722046,7.775000095367432 -7.708000183105469,7.775000095367432 -7.708000183105469,7.775000095367432 C-7.708000183105469,7.775000095367432 -7.708000183105469,6.2870001792907715 -7.708000183105469,6.2870001792907715 C-7.302000045776367,6.271999835968018 -6.99399995803833,6.223999977111816 -6.783999919891357,6.140999794006348 C-6.572999954223633,6.058000087738037 -6.4079999923706055,5.88100004196167 -6.288000106811523,5.611000061035156 C-6.168000221252441,5.341000080108643 -6.107999801635742,4.9120001792907715 -6.107999801635742,4.327000141143799 C-6.107999801635742,4.327000141143799 -6.1529998779296875,-4.303999900817871 -6.1529998779296875,-4.303999900817871 C-6.1529998779296875,-5.310999870300293 -6.122000217437744,-5.986999988555908 -6.061999797821045,-6.333000183105469 C-6.061999797821045,-6.333000183105469 -7.775000095367432,-6.264999866485596 -7.775000095367432,-6.264999866485596 C-7.775000095367432,-6.264999866485596 -7.775000095367432,-8.00100040435791 -7.775000095367432,-8.00100040435791 C-7.775000095367432,-8.00100040435791 -4.236999988555908,-8.00100040435791 -4.236999988555908,-8.00100040435791 C-4.236999988555908,-8.00100040435791 2.6589999198913574,0.6990000009536743 2.6589999198913574,0.6990000009536743 C3.2899999618530273,1.5260000228881836 3.815999984741211,2.23799991607666 4.236999988555908,2.8389999866485596 C4.236999988555908,2.8389999866485596 4.258999824523926,2.8389999866485596 4.258999824523926,2.8389999866485596 C4.258999824523926,2.8389999866485596 4.258999824523926,-4.303999900817871 4.258999824523926,-4.303999900817871 C4.258999824523926,-5.2820000648498535 4.2820000648498535,-5.956999778747559 4.327000141143799,-6.333000183105469 C4.327000141143799,-6.333000183105469 2.63700008392334,-6.264999866485596 2.63700008392334,-6.264999866485596 C2.63700008392334,-6.264999866485596 2.63700008392334,-8.00100040435791 2.63700008392334,-8.00100040435791 C2.63700008392334,-8.00100040435791 7.775000095367432,-8.00100040435791 7.775000095367432,-8.00100040435791 C7.775000095367432,-8.00100040435791 7.775000095367432,-6.51200008392334 7.775000095367432,-6.51200008392334 C7.36899995803833,-6.498000144958496 7.060999870300293,-6.449999809265137 6.85099983215332,-6.367000102996826 C6.640999794006348,-6.283999919891357 6.474999904632568,-6.10699987411499 6.355000019073486,-5.836999893188477 C6.235000133514404,-5.566999912261963 6.175000190734863,-5.138999938964844 6.175000190734863,-4.552999973297119 C6.175000190734863,-4.552999973297119 6.175000190734863,8.00100040435791 6.175000190734863,8.00100040435791 C6.175000190734863,8.00100040435791 4.258999824523926,8.00100040435791 4.258999824523926,8.00100040435791 C4.258999824523926,8.00100040435791 -2.9519999027252197,-1.2170000076293945 -2.9519999027252197,-1.2170000076293945z"></path></g><g opacity="1" transform="matrix(1,0,0,1,164.05099487304688,144.39300537109375)"><path fill="rgb(255,255,255)" fill-opacity="1" d=" M-4.348999977111816,7.189000129699707 C-5.498000144958496,6.482999801635742 -6.376999855041504,5.526000022888184 -6.985000133514404,4.315999984741211 C-7.593999862670898,3.1059999465942383 -7.89900016784668,1.7430000305175781 -7.89900016784668,0.22599999606609344 C-7.89900016784668,-1.2020000219345093 -7.6020002365112305,-2.565000057220459 -7.007999897003174,-3.865000009536743 C-6.414999961853027,-5.164000034332275 -5.5279998779296875,-6.21999979019165 -4.348999977111816,-7.031000137329102 C-3.1700000762939453,-7.8420000076293945 -1.746000051498413,-8.248000144958496 -0.07800000160932541,-8.248000144958496 C0.5680000185966492,-8.248000144958496 1.2990000247955322,-8.151000022888184 2.118000030517578,-7.954999923706055 C2.937000036239624,-7.758999824523926 3.63100004196167,-7.489999771118164 4.202000141143799,-7.144999980926514 C4.202000141143799,-7.144999980926514 4.22599983215332,-7.144999980926514 4.22599983215332,-7.144999980926514 C4.22599983215332,-7.144999980926514 4.135000228881836,-8.090999603271484 4.135000228881836,-8.090999603271484 C4.135000228881836,-8.090999603271484 5.872000217437744,-8.090999603271484 5.872000217437744,-8.090999603271484 C5.872000217437744,-8.090999603271484 5.872000217437744,-2.8389999866485596 5.872000217437744,-2.8389999866485596 C5.872000217437744,-2.8389999866485596 4.406000137329102,-2.8389999866485596 4.406000137329102,-2.8389999866485596 C4.210999965667725,-4.056000232696533 3.73799991607666,-4.98799991607666 2.9860000610351562,-5.633999824523926 C2.234999895095825,-6.2789998054504395 1.312000036239624,-6.611000061035156 0.2150000035762787,-6.625 C-0.7760000228881836,-6.625 -1.61899995803833,-6.328000068664551 -2.309000015258789,-5.736000061035156 C-3,-5.142000198364258 -3.5190000534057617,-4.355999946594238 -3.865000009536743,-3.380000114440918 C-4.210000038146973,-2.4030001163482666 -4.381999969482422,-1.3519999980926514 -4.381999969482422,-0.22499999403953552 C-4.381999969482422,1.7730000019073486 -3.9700000286102295,3.3889999389648438 -3.1429998874664307,4.619999885559082 C-2.316999912261963,5.8520002365112305 -1.159999966621399,6.4679999351501465 0.3269999921321869,6.4679999351501465 C0.8080000281333923,6.4679999351501465 1.3609999418258667,6.414999961853027 1.9839999675750732,6.309999942779541 C2.6070001125335693,6.205999851226807 3.114000082015991,6.054999828338623 3.505000114440918,5.860000133514404 C3.505000114440918,5.860000133514404 3.505000114440918,3.763000011444092 3.505000114440918,3.763000011444092 C3.505000114440918,2.9230000972747803 3.5339999198913574,2.246000051498413 3.5940001010894775,1.7350000143051147 C3.203000068664551,1.7660000324249268 2.8369998931884766,1.781000018119812 2.490999937057495,1.781000018119812 C2.490999937057495,1.781000018119812 1.9049999713897705,1.8029999732971191 1.9049999713897705,1.8029999732971191 C1.9049999713897705,1.8029999732971191 1.9049999713897705,0.06800000369548798 1.9049999713897705,0.06800000369548798 C1.9049999713897705,0.06800000369548798 7.900000095367432,0.06800000369548798 7.900000095367432,0.06800000369548798 C7.900000095367432,0.06800000369548798 7.900000095367432,1.5549999475479126 7.900000095367432,1.5549999475479126 C7.52400016784668,1.5700000524520874 7.230999946594238,1.6230000257492065 7.019999980926514,1.7130000591278076 C6.809999942779541,1.8029999732971191 6.6519999504089355,1.9869999885559082 6.547999858856201,2.265000104904175 C6.441999912261963,2.5429999828338623 6.388999938964844,2.9600000381469727 6.388999938964844,3.5160000324249268 C6.388999938964844,3.5160000324249268 6.388999938964844,7.122000217437744 6.388999938964844,7.122000217437744 C6.388999938964844,7.122000217437744 5.848999977111816,7.122000217437744 5.848999977111816,7.122000217437744 C5.502999782562256,7.122000217437744 5.160999774932861,7.159999847412109 4.822999954223633,7.235000133514404 C4.486000061035156,7.309999942779541 4.052999973297119,7.429999828338623 3.5280001163482666,7.59499979019165 C2.746000051498413,7.820000171661377 2.0910000801086426,7.986000061035156 1.565999984741211,8.090999603271484 C1.0399999618530273,8.196000099182129 0.4410000145435333,8.24899959564209 -0.23600000143051147,8.24899959564209 C-1.8279999494552612,8.24899959564209 -3.1989998817443848,7.894999980926514 -4.348999977111816,7.189000129699707z"></path></g></g><g style="display: none;"><g><path></path></g><g><path></path></g><g><path></path></g><g><path></path></g><g><path></path></g><g><path></path></g><g><path></path></g><g><path></path></g><g><path></path></g><g><path></path></g><g><path></path></g><g><path></path></g><g><path></path></g><g><path></path></g><g><path></path></g><g><path></path></g><g><path></path></g><g><path></path></g><g><path></path></g><g><path></path></g><g><path></path></g><g><path></path></g><g><path></path></g><g><path></path></g><g><path></path></g><g><path></path></g><g><path></path></g><g><path></path></g><g><path></path></g><g><path></path></g><g><path></path></g><g><path></path></g><g><path></path></g><g><path></path></g><g><path></path></g><g><path></path></g><g><path></path></g><g><path></path></g><g><path></path></g><g><path></path></g><g><path></path></g><g><path></path></g><g><path></path></g><g><path></path></g><g><path></path></g><g><path></path></g><g><path></path></g><g><path></path></g><g><path></path></g><g><path></path></g><g><path></path></g><g><path></path></g><g><path></path></g><g><path></path></g><g><path></path></g><g><path></path></g><g><path></path></g><g><path></path></g></g><g transform="matrix(1,0,0,1,22.49999237060547,15)" opacity="1" style="display: block;"><g opacity="1" transform="matrix(1,0,0,1,0,0)"><path stroke-linecap="butt" stroke-linejoin="miter" fill-opacity="0" stroke-miterlimit="10" stroke="rgb(35,50,62)" stroke-opacity="1" stroke-width="0.25" d="M0 0"></path></g><g opacity="1" transform="matrix(1,0,0,1,93.52999877929688,94.48300170898438)"><path stroke-linecap="butt" stroke-linejoin="miter" fill-opacity="0" stroke-miterlimit="10" stroke="rgb(35,50,62)" stroke-opacity="1" stroke-width="0.25" d="M0 0"></path></g><g opacity="1" transform="matrix(1,0,0,1,102.4749984741211,94.73899841308594)"><path stroke-linecap="butt" stroke-linejoin="miter" fill-opacity="0" stroke-miterlimit="10" stroke="rgb(35,50,62)" stroke-opacity="1" stroke-width="0.25" d="M0 0"></path></g><g opacity="1" transform="matrix(1,0,0,1,116.23300170898438,85.2979965209961)"><path stroke-linecap="butt" stroke-linejoin="miter" fill-opacity="0" stroke-miterlimit="10" stroke="rgb(35,50,62)" stroke-opacity="1" stroke-width="0.25" d="M0 0"></path></g><g opacity="1" transform="matrix(1,0,0,1,123.93699645996094,81.80400085449219)"><path stroke-linecap="butt" stroke-linejoin="miter" fill-opacity="0" stroke-miterlimit="10" stroke="rgb(35,50,62)" stroke-opacity="1" stroke-width="0.25" d="M0 0"></path></g><g opacity="1" transform="matrix(1,0,0,1,106.98300170898438,82.59600067138672)"><path stroke-linecap="butt" stroke-linejoin="miter" fill-opacity="0" stroke-miterlimit="10" stroke="rgb(35,50,62)" stroke-opacity="1" stroke-width="0.25" d="M0 0"></path></g><g opacity="1" transform="matrix(1,0,0,1,115.05899810791016,84.87699890136719)"><path stroke-linecap="butt" stroke-linejoin="miter" fill-opacity="0" stroke-miterlimit="10" stroke="rgb(35,50,62)" stroke-opacity="1" stroke-width="0.25" d="M0 0"></path></g><g opacity="1" transform="matrix(1,0,0,1,134.99600219726562,76.65399932861328)"><path stroke-linecap="butt" stroke-linejoin="miter" fill-opacity="0" stroke-miterlimit="10" stroke="rgb(35,50,62)" stroke-opacity="1" stroke-width="0.25" d="M0 0"></path></g><g opacity="1" transform="matrix(1,0,0,1,142.8179931640625,79.81400299072266)"><path stroke-linecap="butt" stroke-linejoin="miter" fill-opacity="0" stroke-miterlimit="10" stroke="rgb(35,50,62)" stroke-opacity="1" stroke-width="0.25" d="M0 0"></path></g><g opacity="1" transform="matrix(1,0,0,1,0,0)"><path stroke-linecap="butt" stroke-linejoin="miter" fill-opacity="0" stroke-miterlimit="10" stroke="rgb(35,50,62)" stroke-opacity="1" stroke-width="0.25" d="M0 0"></path></g><g opacity="1" transform="matrix(1,0,0,1,0,0)"><path stroke-linecap="butt" stroke-linejoin="miter" fill-opacity="0" stroke-miterlimit="10" stroke="rgb(35,50,62)" stroke-opacity="1" stroke-width="0.25" d="M0 0"></path></g><g opacity="1" transform="matrix(1,0,0,1,0,0)"><path stroke-linecap="butt" stroke-linejoin="miter" fill-opacity="0" stroke-miterlimit="10" stroke="rgb(35,50,62)" stroke-opacity="1" stroke-width="0.25" d="M0 0"></path></g></g></g></svg>